<svg width="157" height="26" viewBox="0 0 157 26" fill="none" xmlns="http://www.w3.org/2000/svg">
<path fill-rule="evenodd" clip-rule="evenodd" d="M11.6179 9.5824C11.6179 8.98323 12.1036 8.49751 12.7028 8.49751H14.2803C16.8856 8.49751 19.203 9.4355 20.9824 10.9528C21.5311 11.4206 22.0287 11.9436 22.4677 12.5111C24.5433 15.194 25.3117 18.8727 23.9984 22.4362C23.5054 23.7738 22.231 24.6623 20.8054 24.6623H5.00392C0.892427 24.6623 -1.11615 19.6466 1.8589 16.8087L5.24721 13.5767C5.68077 13.1631 6.36749 13.1793 6.78105 13.6129C7.19461 14.0464 7.1784 14.7332 6.74484 15.1467L3.35653 18.3788C1.79816 19.8653 2.85029 22.4926 5.00392 22.4926H20.8054C21.322 22.4926 21.7839 22.1706 21.9625 21.6859C23.9325 16.3406 19.9771 10.6673 14.2803 10.6673H12.7028C12.1036 10.6673 11.6179 10.1816 11.6179 9.5824Z" fill="white"/>
<path fill-rule="evenodd" clip-rule="evenodd" d="M7.01435 0.899902C5.40559 0.899902 3.96734 1.90265 3.41101 3.41216C2.09438 6.9846 2.78524 10.6682 4.76502 13.4322L1.55703 16.4923C-1.70357 19.6025 0.497795 25.0997 5.00392 25.0997H20.8054C22.4142 25.0997 23.8524 24.0969 24.4088 22.5874C25.7254 19.015 25.0345 15.3314 23.0548 12.5674L26.2627 9.50732C29.5233 6.3971 27.322 0.899902 22.8159 0.899902H7.01435ZM2.16076 17.1252L5.30519 14.1258C5.58375 14.4552 5.88204 14.7685 6.1986 15.0634L3.05466 18.0623C1.21075 19.8212 2.45566 22.9299 5.00392 22.9299H20.8054C21.5052 22.9299 22.1309 22.4937 22.3729 21.8371C24.4481 16.2063 20.2814 10.2299 14.2803 10.2299H12.7028C12.3452 10.2299 12.0553 9.94002 12.0553 9.5824C12.0553 9.22477 12.3452 8.93485 12.7028 8.93485H14.2803C16.6401 8.93485 18.7533 9.73832 20.4173 11.0547C20.1938 11.5944 20.2931 12.2387 20.7223 12.6886C21.1513 13.1383 21.7897 13.268 22.3393 13.0706C24.1621 15.6113 24.799 18.9993 23.588 22.2849C23.1584 23.4506 22.0478 24.225 20.8054 24.225H5.00392C1.28706 24.225 -0.528736 19.6907 2.16076 17.1252ZM3.6584 18.6952L6.86555 15.636C8.67561 17.0665 10.9736 17.9394 13.5394 17.9394H15.117C15.9577 17.9394 16.6392 17.2579 16.6392 16.4172C16.6392 15.5765 15.9577 14.895 15.117 14.895H13.5394C8.14701 14.895 4.40287 9.52471 6.26764 4.46498C6.38293 4.15217 6.68097 3.94437 7.01435 3.94437H22.8159C24.5749 3.94437 25.4342 6.09025 24.1614 7.30436L20.9542 10.3636C19.1442 8.93314 16.8462 8.06016 14.2803 8.06016H12.7028C11.8621 8.06016 11.1806 8.74169 11.1806 9.5824C11.1806 10.4231 11.8621 11.1046 12.7028 11.1046H14.2803C19.6728 11.1046 23.4169 16.4749 21.5521 21.5346C21.4369 21.8474 21.1388 22.0552 20.8054 22.0552H5.00392C3.24492 22.0552 2.38558 19.9093 3.6584 18.6952ZM22.4677 12.5111C22.0287 11.9436 21.5311 11.4206 20.9824 10.9528C21.0108 10.918 21.0416 10.8846 21.0749 10.8529L24.4632 7.62082C26.0216 6.13433 24.9695 3.50702 22.8159 3.50702H7.01435C6.49776 3.50702 6.03592 3.82902 5.85728 4.31374L5.44691 4.1625C5.68891 3.50587 6.31455 3.06968 7.01435 3.06968H22.8159C25.3641 3.06968 26.609 6.1784 24.7651 7.93728L21.6212 10.9362C21.9377 11.2311 22.236 11.5444 22.5146 11.8738L25.659 8.8744C28.3485 6.30894 26.5327 1.77459 22.8159 1.77459H7.01435C5.77201 1.77459 4.66135 2.54895 4.23173 3.71464L3.82137 3.5634C4.31434 2.2258 5.5888 1.33725 7.01435 1.33725H22.8159C26.9274 1.33725 28.9359 6.35302 25.9609 9.19086L22.5726 12.4229C22.5391 12.4549 22.504 12.4843 22.4677 12.5111Z" fill="white"/>
<path d="M7.01435 1.33725C5.5888 1.33725 4.31434 2.2258 3.82137 3.5634L4.23173 3.71464C4.66135 2.54895 5.77201 1.77459 7.01435 1.77459H22.8159C26.5327 1.77459 28.3485 6.30894 25.659 8.8744L22.5146 11.8738C22.236 11.5444 21.9377 11.2311 21.6212 10.9362L24.7651 7.93728C26.609 6.1784 25.3641 3.06968 22.8159 3.06968H7.01435C6.31455 3.06968 5.68891 3.50587 5.44691 4.1625L5.85728 4.31374C6.03592 3.82902 6.49776 3.50702 7.01435 3.50702H22.8159C24.9695 3.50702 26.0216 6.13433 24.4632 7.62082L21.0749 10.8529C21.0416 10.8846 21.0108 10.918 20.9824 10.9528C21.5311 11.4206 22.0287 11.9436 22.4677 12.5111C22.504 12.4843 22.5391 12.4549 22.5726 12.4229L25.9609 9.19086C28.9359 6.35302 26.9274 1.33725 22.8159 1.33725H7.01435Z" fill="white"/>
<path d="M39.6704 21.4681C37.6587 21.4681 36.1107 20.9795 35.0264 20.0022C33.9206 19.0462 33.3143 17.7158 33.2073 16.0108H36.6957C36.7599 16.8027 37.0595 17.4019 37.5945 17.8085C38.1153 18.2223 38.8072 18.4292 39.6704 18.4292C41.5823 18.4292 42.5382 17.9013 42.5382 16.8455C42.5382 16.4175 42.3991 16.075 42.1209 15.8182C41.8355 15.5757 41.354 15.3795 40.6763 15.2297L38.4399 14.7482C36.9204 14.4129 35.7611 13.8993 34.9622 13.2073C34.1275 12.5296 33.7102 11.5095 33.7102 10.1469C33.7102 8.84858 34.2595 7.78923 35.3581 6.96885C36.4567 6.14847 37.9013 5.73828 39.6918 5.73828C41.461 5.73828 42.9234 6.20554 44.0791 7.14006C45.2133 8.08171 45.7912 9.28017 45.8126 10.7355H42.3242C42.2814 10.1933 42.0388 9.73317 41.5965 9.35508C41.1471 8.99126 40.4979 8.80935 39.649 8.80935C38.8072 8.80935 38.2009 8.94132 37.8299 9.20527C37.4376 9.46922 37.2414 9.7831 37.2414 10.1469C37.2414 10.4608 37.3662 10.7426 37.6159 10.9923C37.8442 11.2205 38.2972 11.4132 38.9749 11.5701L41.0508 12.0088C42.6559 12.337 43.89 12.8613 44.7532 13.5818C45.6307 14.3095 46.0694 15.3688 46.0694 16.7599C46.0694 18.2152 45.5522 19.3637 44.5178 20.2055C43.5048 21.0473 41.889 21.4681 39.6704 21.4681Z" fill="white"/>
<path d="M53.7584 21.4681C51.8822 21.4681 50.3342 20.9295 49.1143 19.8524C47.8873 18.7823 47.2738 17.2343 47.2738 15.2083V5.93089H50.7087V15.1655C50.7087 17.327 51.7253 18.4078 53.7584 18.4078C55.8058 18.4078 56.8295 17.327 56.8295 15.1655V5.93089H60.2857V15.2083C60.2857 17.2343 59.6794 18.7823 58.4666 19.8524C57.2254 20.9295 55.656 21.4681 53.7584 21.4681Z" fill="white"/>
<path d="M62.4747 21.2755V5.93089H69.4514C70.9709 5.93089 72.1979 6.40885 73.1324 7.36477C74.0527 8.32782 74.5128 9.53699 74.5128 10.9923C74.5128 12.4903 74.0527 13.7209 73.1324 14.684C72.1979 15.6613 70.9709 16.15 69.4514 16.15H65.9202V21.2755H62.4747ZM65.9202 13.0789H68.7666C70.2575 13.0789 71.003 12.3833 71.003 10.9923C71.003 10.336 70.8068 9.83304 70.4145 9.48349C70.015 9.1482 69.4657 8.98056 68.7666 8.98056H65.9202V13.0789Z" fill="white"/>
<path d="M76.049 21.2755V5.93089H87.0064V9.00196H79.4946V11.8269H86.3323V14.898H79.4946V18.2259H87.0064V21.2755H76.049Z" fill="white"/>
<path d="M98.221 15.4437L101.923 21.0615V21.2755H97.8893L94.5828 15.861H92.432V21.2755H88.9864V5.93089H96.006C97.5683 5.93089 98.8381 6.40885 99.8154 7.36477C100.764 8.31356 101.239 9.46565 101.239 10.8211C101.239 11.8983 100.975 12.847 100.447 13.6674C99.9046 14.4807 99.1627 15.0728 98.221 15.4437ZM92.432 9.00196V12.79H95.8241C96.459 12.79 96.9334 12.6009 97.2473 12.2228C97.554 11.8519 97.7074 11.3918 97.7074 10.8425C97.7074 10.336 97.554 9.89724 97.2473 9.52629C96.9191 9.17674 96.4447 9.00196 95.8241 9.00196H92.432Z" fill="white"/>
<path d="M103.448 21.2755V5.93089H106.894V18.2045H113.86V21.2755H103.448Z" fill="white"/>
<path d="M115.166 21.2755V5.93089H126.123V9.00196H118.612V11.8269H125.449V14.898H118.612V18.2259H126.123V21.2755H115.166Z" fill="white"/>
<path d="M128.103 21.2755V5.93089H132.159L137.82 15.9466H137.905V5.93089H141.319V21.2755H137.242L131.592 11.324H131.506V21.2755H128.103Z" fill="white"/>
<path d="M143.513 21.2755V5.93089H148.821C151.132 5.93089 153.03 6.6407 154.513 8.06031C156.004 9.48705 156.75 11.3347 156.75 13.6032C156.75 15.7861 156.022 17.6052 154.567 19.0605C153.09 20.5372 151.175 21.2755 148.821 21.2755H143.513ZM146.734 18.2259H148.628C150.105 18.2259 151.243 17.8478 152.042 17.0916C152.848 16.3283 153.251 15.1655 153.251 13.6032C153.251 12.0623 152.848 10.9102 152.042 10.1469C151.235 9.38361 150.098 9.00196 148.628 9.00196H146.734V18.2259Z" fill="white"/>
</svg>
