<svg width="24" height="24" viewBox="0 0 16 16" fill="none" xmlns="http://www.w3.org/2000/svg" class="navbar-icon">
                <path fill-rule="evenodd" clip-rule="evenodd" d="M8 16C12.4183 16 16 12.4183 16 8C16 3.58172 12.4183 0 8 0C3.58172 0 0 3.58172 0 8C0 12.4183 3.58172 16 8 16ZM2.46003 3.15926C2.28564 3.50152 2.28564 3.94956 2.28564 4.84565V11.1542C2.28564 12.0503 2.28564 12.4983 2.46003 12.8406C2.61343 13.1417 2.8582 13.3864 3.15926 13.5398C3.50152 13.7142 3.94956 13.7142 4.84565 13.7142H11.1542C12.0503 13.7142 12.4983 13.7142 12.8406 13.5398C13.1417 13.3864 13.3864 13.1417 13.5398 12.8406C13.7142 12.4983 13.7142 12.0503 13.7142 11.1542V4.84564C13.7142 3.94956 13.7142 3.50152 13.5398 3.15926C13.3864 2.8582 13.1417 2.61343 12.8406 2.46003C12.4983 2.28564 12.0503 2.28564 11.1542 2.28564H4.84564C3.94956 2.28564 3.50152 2.28564 3.15926 2.46003C2.8582 2.61343 2.61343 2.8582 2.46003 3.15926Z" fill="#1FFFA5"></path>
            </svg>