<?xml version="1.0" encoding="UTF-8"?>
<svg id="Layer_2" data-name="Layer 2" xmlns="http://www.w3.org/2000/svg" viewBox="0 0 432 335.94">
  <g id="Artwork">
    <g>
      <g>
        <path d="M266.2,12.4l-86.19,197.39c52.92,18.77,112.12-6.34,134.93-58.6,22.82-52.26.99-112.74-48.75-138.8ZM214.03,165.98l42.93-99.09c3.47,3.46,6.46,7.32,8.92,11.48l-37.38,86.27c-4.72,1.04-9.58,1.5-14.47,1.34ZM269.18,131.21c-5.27,12.07-14.16,21.44-24.84,27.41l27.91-64.84c3.05,12.05,2.29,25.16-3.07,37.43Z"/>
        <path d="M162.82,84.78c11.94-27.34,42.4-40.84,70.24-32.23l20.06-45.94c-53.21-19.54-113.09,5.55-136.07,58.18-22.98,52.63-.67,113.61,49.83,139.35l20.06-45.94c-25.24-14.57-36.04-46.09-24.11-73.43Z"/>
      </g>
      <g>
        <path d="M11.79,333.62c-3.61-1.54-6.46-3.76-8.55-6.66-2.1-2.9-3.17-6.32-3.24-10.26h13.87c.19,2.65,1.12,4.75,2.82,6.29,1.69,1.54,4.02,2.31,6.98,2.31s5.39-.72,7.12-2.17c1.72-1.45,2.59-3.34,2.59-5.69,0-1.91-.59-3.48-1.76-4.71-1.17-1.23-2.63-2.2-4.39-2.91-1.76-.71-4.18-1.49-7.26-2.36-4.19-1.23-7.6-2.45-10.21-3.65-2.62-1.2-4.87-3.02-6.75-5.45-1.88-2.43-2.82-5.69-2.82-9.75,0-3.82.95-7.15,2.87-9.98,1.91-2.83,4.59-5.01,8.04-6.52,3.45-1.51,7.4-2.26,11.83-2.26,6.66,0,12.06,1.62,16.22,4.85,4.16,3.24,6.46,7.75,6.89,13.54h-14.24c-.12-2.22-1.06-4.05-2.82-5.5-1.76-1.45-4.08-2.17-6.98-2.17-2.53,0-4.54.65-6.05,1.94-1.51,1.29-2.26,3.17-2.26,5.64,0,1.73.57,3.16,1.71,4.3,1.14,1.14,2.56,2.07,4.25,2.77,1.69.71,4.08,1.53,7.16,2.45,4.19,1.23,7.61,2.47,10.26,3.7,2.65,1.23,4.93,3.08,6.84,5.55,1.82,2.35,2.77,5.38,2.86,9.12.04,1.84-.16,3.7-.66,5.47-1.46,5.26-4.75,9.19-9.87,11.8-3.45,1.76-7.55,2.63-12.29,2.63-4.5,0-8.55-.77-12.16-2.31Z"/>
        <path d="M72.35,331.68c-5.05-2.83-9.06-6.76-12.02-11.79-2.96-5.02-4.44-10.71-4.44-17.06s1.48-11.94,4.44-16.96c2.96-5.02,6.96-8.95,12.02-11.79,5.05-2.83,10.6-4.25,16.64-4.25s11.66,1.42,16.69,4.25c5.02,2.84,9,6.76,11.93,11.79,2.93,5.02,4.39,10.68,4.39,16.96s-1.47,12.03-4.39,17.06c-2.93,5.02-6.92,8.95-11.97,11.79-5.05,2.84-10.6,4.25-16.64,4.25s-11.59-1.42-16.64-4.25ZM99.25,321.75c2.96-1.76,5.27-4.27,6.93-7.53,1.66-3.27,2.5-7.06,2.5-11.37s-.83-8.09-2.5-11.32c-1.66-3.23-3.98-5.72-6.93-7.44-2.96-1.72-6.38-2.59-10.26-2.59s-7.32.86-10.31,2.59c-2.99,1.73-5.32,4.21-6.98,7.44-1.66,3.24-2.5,7.01-2.5,11.32s.83,8.1,2.5,11.37c1.66,3.27,3.99,5.78,6.98,7.53,2.99,1.76,6.43,2.64,10.31,2.64s7.3-.88,10.26-2.64Z"/>
        <path d="M144.05,325.03h21.26v10.26h-34.2v-64.53h12.94v54.26Z"/>
        <path d="M186.21,333.62c-3.6-1.54-6.46-3.76-8.55-6.66-2.1-2.9-3.18-6.32-3.24-10.26h13.87c.18,2.65,1.12,4.75,2.82,6.29,1.69,1.54,4.02,2.31,6.98,2.31s5.39-.72,7.12-2.17,2.59-3.34,2.59-5.69c0-1.91-.59-3.48-1.76-4.71-1.17-1.23-2.64-2.2-4.39-2.91-1.76-.71-4.18-1.49-7.26-2.36-4.19-1.23-7.6-2.45-10.22-3.65-2.62-1.2-4.87-3.02-6.75-5.45-1.88-2.43-2.82-5.69-2.82-9.75,0-3.82.96-7.15,2.87-9.98,1.91-2.83,4.59-5.01,8.04-6.52,3.45-1.51,7.4-2.26,11.83-2.26,6.66,0,12.06,1.62,16.22,4.85s6.46,7.75,6.89,13.54h-14.24c-.12-2.22-1.06-4.05-2.82-5.5-1.76-1.45-4.08-2.17-6.98-2.17-2.53,0-4.55.65-6.06,1.94-1.51,1.29-2.27,3.17-2.27,5.64,0,1.73.57,3.16,1.71,4.3,1.14,1.14,2.56,2.07,4.25,2.77,1.69.71,4.08,1.53,7.16,2.45,4.19,1.23,7.61,2.47,10.26,3.7,2.65,1.23,4.93,3.08,6.84,5.55,1.83,2.37,2.79,5.45,2.86,9.24.03,1.84-.18,3.68-.68,5.45-1.48,5.21-4.76,9.11-9.85,11.71-3.45,1.76-7.55,2.63-12.3,2.63-4.5,0-8.55-.77-12.16-2.31Z"/>
        <path d="M277.65,270.76v10.45h-17.19v54.08h-12.94v-54.08h-17.19v-10.45h47.33Z"/>
        <path d="M325.39,285.88c2.87-5.02,6.78-8.94,11.74-11.74,4.96-2.8,10.52-4.21,16.69-4.21,7.21,0,13.53,1.85,18.95,5.55,5.42,3.7,9.21,8.81,11.37,15.35h-14.88c-1.48-3.08-3.56-5.39-6.24-6.93-2.68-1.54-5.78-2.31-9.29-2.31-3.76,0-7.1.88-10.03,2.64-2.93,1.76-5.21,4.24-6.84,7.44-1.63,3.2-2.45,6.96-2.45,11.28s.82,8,2.45,11.23c1.63,3.24,3.91,5.73,6.84,7.49,2.93,1.76,6.27,2.64,10.03,2.64,3.51,0,6.61-.79,9.29-2.36,2.68-1.57,4.76-3.9,6.24-6.98h14.88c-2.16,6.6-5.93,11.73-11.32,15.39-5.39,3.67-11.73,5.5-19,5.5-6.16,0-11.73-1.4-16.69-4.21-4.96-2.8-8.88-6.7-11.74-11.69-2.87-4.99-4.3-10.66-4.3-17.01s1.43-12.03,4.3-17.05Z"/>
        <path d="M407.5,281.21v16.18h21.72v10.26h-21.72v17.1h24.5v10.54h-37.44v-64.62h37.44v10.54h-24.5Z"/>
        <polygon points="290.49 335.06 277.65 335.06 305.65 270.67 318.49 270.67 290.49 335.06"/>
      </g>
    </g>
  </g>
</svg>