<?xml version="1.0" encoding="utf-8"?>
<!-- Generator: Adobe Illustrator 26.4.1, SVG Export Plug-In . SVG Version: 6.00 Build 0)  -->
<svg version="1.1" id="Layer_1" xmlns="http://www.w3.org/2000/svg" xmlns:xlink="http://www.w3.org/1999/xlink" x="0px" y="0px"
	 viewBox="0 0 800 190" style="enable-background:new 0 0 800 190;" xml:space="preserve">
<style type="text/css">
	.st0{fill:#FFFFFF;}
</style>
<g>
	<path class="st0" d="M340.6,148.2c-22,0-36.4-26.6-36.4-51.2c0-26.3,13.5-44,34-44c23.3,0,37,27,37,51.2
		C375.2,130.6,361.6,148.2,340.6,148.2 M339.6,47.2c-29,0-52.6,23.9-52.6,53.4c0,29.5,23.5,53.4,52.6,53.4c29,0,52.6-23.9,52.6-53.4
		C392.2,71.1,368.7,47.2,339.6,47.2"/>
	<path class="st0" d="M75.4,106.7c6.7-17.9,15.3-40.8,15.3-40.8s8.8,21.7,16.5,40.8H75.4z M149,147c-3.6,0-7.6-0.1-9.9-3.1
		c-1.8-2.5-4.5-8.9-6.7-14.8c-2.2-5.9-33.1-82.8-33.1-82.8l-8.7,4.6c0,0-27.4,69-28.6,71.9c-1.1,2.9-3.2,8.3-5.1,12.5
		C53,143.5,51.1,146,42.4,147l-0.5,0.1v4.8c0,0,9.4-0.3,18.1-0.3c8.7,0,17.7,0.3,17.7,0.3V147l-5-0.1c-4.6-0.2-8.4-0.6-8.4-5.7
		c0-1.9,0.4-5.2,3.4-13.7c0.2-0.7,2.3-6.2,5.1-13.6h37.4c4.1,10.1,7.4,18.4,8.3,20.7c1.4,3.7,2.6,6.7,2.6,8.2c0,3.2-2.4,4.2-7.4,4.2
		h-3.2v4.9c0,0,13.5-0.3,21.8-0.3c8.2,0,17.3,0.3,17.3,0.3V147H149z"/>
	<path class="st0" d="M505.2,128.3c-4.5,13.9-10.2,17.8-26.6,17.8c-20.4,0-22.4-4.2-22.4-14.7V64.2c0-9.7,5-9.7,12.7-9.9l0.5,0v-4.9
		l-2.2,0c-13.4,0.3-25.2,0.3-38.6,0l-1,0v4.9l0.5,0c7.6,0.1,12.7,0.2,12.7,9.9v73.6c0,3-0.8,5.2-2.4,6.7c-2,1.9-5.4,2.7-10.2,2.4
		l-0.6,0v4.9l0.6,0c12.8-0.3,25.8-0.3,38.5-0.3c12.6,0,24.5,0,36.9,0.3l0.4,0l5.6-23.2l-4.3-0.8L505.2,128.3z"/>
	<path class="st0" d="M618.4,128.3c-4.5,13.9-10.2,17.8-26.6,17.8c-20.4,0-22.4-4.2-22.4-14.7V64.2c0-9.7,5-9.7,12.7-9.9l0.5,0v-4.9
		l-2.2,0c-13.4,0.3-25.2,0.3-38.6,0l-1,0v4.9l0.5,0c7.6,0.1,12.7,0.2,12.7,9.9v73.6c0,3-0.8,5.2-2.4,6.7c-2,1.9-5.4,2.7-10.2,2.4
		l-0.6,0v4.9l0.6,0c12.8-0.3,25.8-0.3,38.5-0.3c12.6,0,24.5,0,36.9,0.3l0.4,0l5.6-23.2l-4.3-0.8L618.4,128.3z"/>
	<path class="st0" d="M701,148.2c-22,0-36.4-26.6-36.4-51.2c0-26.3,13.5-44,34-44c23.3,0,37,27,37,51.2
		C735.6,130.6,722,148.2,701,148.2 M700.1,47.2c-29,0-52.6,23.9-52.6,53.4c0,29.5,23.5,53.4,52.6,53.4c29,0,52.6-23.9,52.6-53.4
		C752.7,71.1,729.1,47.2,700.1,47.2"/>
	<path class="st0" d="M208.2,137.4c0,4,1,9.6,11.3,9.6c2.2,0,3,0,3,0v4.8c-8.8-0.3-16.9-0.5-23.1-0.5c-6.5,0-12.3,0.2-19.1,0.5V147
		c0,0,1.3,0,2.4,0c4.9,0,10.1-1.4,10.1-9.6V65.1c0-7-1.4-9.4-7-10.5c-3.2-0.6-5.8-0.3-5.8-0.3v-4.9c0,0,18,0.2,30.8,0.2
		c15.3,0,28.5,1.4,35.7,5.9c7.1,4.5,12.3,12.5,12.3,23.1c0,14.2-11.5,21.9-18.1,25.1c-6.8,3.2-14.9,4.6-21.2,4.6l-0.3-4.2
		c16.6-3.1,22.6-12,22.6-25.4c0-14.9-9.7-22.5-22-23.5c-8.1-0.7-11.7,0.3-11.7,0.3V137.4z"/>
</g>
</svg>
