<svg width="535" height="197" viewBox="0 0 535 197" fill="none" xmlns="http://www.w3.org/2000/svg">
<rect width="535" height="197" rx="40" fill="white" fill-opacity="0.04"/>
<rect x="0.179319" y="0.179319" width="534.641" height="196.641" rx="39.8207" stroke="white" stroke-opacity="0.1" stroke-width="0.358638"/>
<path d="M130.079 105.783C126.691 112.02 120.11 116.243 112.551 116.243C101.604 116.243 92.6123 107.342 92.6123 96.3615C92.6123 85.446 101.539 76.4796 112.551 76.4796C120.11 76.4796 126.691 80.7029 130.079 86.9404L139.984 81.6125C134.706 71.8665 124.41 65.3042 112.551 65.3042C95.349 65.3042 81.4048 79.2085 81.4048 96.3615C81.4048 113.514 95.349 127.419 112.551 127.419C124.41 127.419 134.706 120.792 139.984 111.11L130.079 105.783Z" fill="black"/>
<path d="M70 96.3627C70 72.9722 89.0267 54 112.484 54V138.725C89.0919 138.725 70 119.818 70 96.3627Z" fill="#50ACD6"/>
<path fill-rule="evenodd" clip-rule="evenodd" d="M112.551 116.243V127.419C95.349 127.419 81.4048 113.514 81.4048 96.3615C81.4048 79.2085 95.349 65.3042 112.551 65.3042V76.4796C101.604 76.4796 92.6123 85.381 92.6123 96.3615C92.6123 107.342 101.539 116.243 112.551 116.243Z" fill="white"/>
<path d="M147.672 63.874H156.925V126.249H147.672V63.874Z" fill="black"/>
<path d="M188.004 118.907C193.152 118.907 196.996 116.568 199.081 113.579L206.705 117.998C202.73 123.78 196.345 127.289 187.939 127.289C173.799 127.289 164.612 117.608 164.612 104.808C164.612 92.1381 173.799 82.3271 187.222 82.3271C199.993 82.3271 208.725 92.593 208.725 104.873C208.725 106.172 208.529 107.537 208.399 108.706H174.32C175.754 115.529 181.162 118.907 188.004 118.907ZM199.407 101.299C198.104 93.9574 192.696 90.7737 187.157 90.7737C180.185 90.7737 175.493 94.867 174.19 101.299H199.407Z" fill="black"/>
<path d="M259.811 83.5616V126.249H250.558V120.077C247.3 124.625 242.218 127.354 235.571 127.354C223.908 127.354 214.264 117.543 214.264 104.873C214.264 92.1381 223.973 82.3921 235.571 82.3921C242.283 82.3921 247.3 85.121 250.558 89.5392V83.4966H259.811V83.5616ZM250.558 104.938C250.558 97.0111 244.759 91.2935 237.005 91.2935C229.316 91.2935 223.451 97.0111 223.451 104.938C223.451 112.865 229.251 118.582 237.005 118.582C244.694 118.582 250.558 112.865 250.558 104.938Z" fill="black"/>
<path d="M292.26 82.7827V92.7886C286.2 92.3338 279.032 95.1926 279.032 104.744V126.25H269.78V83.4974H279.032V90.6445C281.639 84.9268 286.851 82.7827 292.26 82.7827Z" fill="black"/>
<path d="M345.497 104.937C345.497 117.607 335.723 127.418 323.799 127.418C316.501 127.418 311.027 124.169 307.574 118.972V143.402H300.146V83.5611H307.574V90.9031C311.027 85.7052 316.501 82.4565 323.799 82.4565C335.723 82.4565 345.497 92.2675 345.497 104.937ZM338.004 104.937C338.004 96.2309 331.423 89.6686 322.821 89.6686C314.155 89.6686 307.574 96.2309 307.574 104.937C307.574 113.644 314.155 120.206 322.821 120.206C331.423 120.206 338.004 113.644 338.004 104.937Z" fill="black"/>
<path d="M352.012 104.937C352.012 92.2675 362.047 82.4565 374.558 82.4565C387.069 82.4565 397.168 92.2675 397.168 104.937C397.168 117.607 387.069 127.418 374.558 127.418C362.047 127.418 352.012 117.542 352.012 104.937ZM389.74 104.937C389.74 96.2959 383.159 89.7336 374.558 89.7336C366.087 89.7336 359.506 96.2959 359.506 104.937C359.506 113.579 366.087 120.141 374.558 120.141C383.094 120.141 389.74 113.514 389.74 104.937Z" fill="black"/>
<path d="M403.62 104.937C403.62 92.2675 413.654 82.4565 426.165 82.4565C438.676 82.4565 448.776 92.2675 448.776 104.937C448.776 117.607 438.676 127.418 426.165 127.418C413.589 127.418 403.62 117.542 403.62 104.937ZM441.282 104.937C441.282 96.2959 434.701 89.7336 426.1 89.7336C417.629 89.7336 411.048 96.2959 411.048 104.937C411.048 113.579 417.629 120.141 426.1 120.141C434.701 120.141 441.282 113.514 441.282 104.937Z" fill="black"/>
<path d="M457.573 63.874H465.001V126.249H457.573V63.874Z" fill="black"/>
</svg>
