<svg width="395" height="90" viewBox="0 0 395 90" fill="none" xmlns="http://www.w3.org/2000/svg">
<path d="M60.0794 51.7828C56.6911 58.0202 50.11 62.2435 42.5514 62.2435C31.6045 62.2435 22.6124 53.3421 22.6124 42.3616C22.6124 31.4461 31.5394 22.4797 42.5514 22.4797C50.11 22.4797 56.6911 26.703 60.0794 32.9405L69.9838 27.6126C64.7058 17.8666 54.4105 11.3043 42.5514 11.3043C25.3491 11.3043 11.4049 25.2086 11.4049 42.3616C11.4049 59.5146 25.3491 73.4189 42.5514 73.4189C54.4105 73.4189 64.7058 66.7916 69.9838 57.1106L60.0794 51.7828Z" fill="white"/>
<path d="M0 42.3624C0 18.972 19.0267 -0.000244141 42.4843 -0.000244141V84.7251C19.0919 84.7251 0 65.8178 0 42.3624Z" fill="white"/>
<path fill-rule="evenodd" clip-rule="evenodd" d="M42.5514 62.2435V73.4189C25.3491 73.4189 11.4049 59.5146 11.4049 42.3616C11.4049 25.2086 25.3491 11.3043 42.5514 11.3043V22.4797C31.6045 22.4797 22.6124 31.3811 22.6124 42.3616C22.6124 53.3421 31.5394 62.2435 42.5514 62.2435Z" fill="#1B2A32"/>
<path d="M77.672 9.87427H86.9247V72.2487H77.672V9.87427Z" fill="white"/>
<path d="M118.004 64.9072C123.152 64.9072 126.996 62.5681 129.081 59.5794L136.705 63.9976C132.73 69.7802 126.344 73.2888 117.939 73.2888C103.799 73.2888 94.6115 63.6077 94.6115 50.808C94.6115 38.1381 103.799 28.3271 117.222 28.3271C129.993 28.3271 138.725 38.593 138.725 50.8729C138.725 52.1724 138.529 53.5368 138.399 54.7064H104.32C105.754 61.5286 111.162 64.9072 118.004 64.9072ZM129.407 47.2994C128.104 39.9574 122.696 36.7737 117.157 36.7737C110.185 36.7737 105.493 40.867 104.19 47.2994H129.407Z" fill="white"/>
<path d="M189.811 29.5614V72.2489H180.558V66.0764C177.3 70.6246 172.218 73.3535 165.571 73.3535C153.908 73.3535 144.264 63.5425 144.264 50.8727C144.264 38.1379 153.973 28.3918 165.571 28.3918C172.283 28.3918 177.3 31.1207 180.558 35.5389V29.4964H189.811V29.5614ZM180.558 50.9376C180.558 43.0109 174.759 37.2932 167.005 37.2932C159.316 37.2932 153.452 43.0109 153.452 50.9376C153.452 58.8644 159.251 64.5821 167.005 64.5821C174.694 64.5821 180.558 58.8644 180.558 50.9376Z" fill="white"/>
<path d="M222.26 28.7825V38.7884C216.2 38.3336 209.032 41.1924 209.032 50.7435V72.2497H199.78V29.4972H209.032V36.6443C211.639 30.9266 216.851 28.7825 222.26 28.7825Z" fill="white"/>
<path d="M275.497 50.9374C275.497 63.6072 265.723 73.4181 253.799 73.4181C246.501 73.4181 241.028 70.1695 237.574 64.9716V89.4016H230.146V29.5611H237.574V36.9031C241.028 31.7052 246.501 28.4565 253.799 28.4565C265.723 28.4565 275.497 38.2675 275.497 50.9374ZM268.004 50.9374C268.004 42.2309 261.423 35.6686 252.821 35.6686C244.155 35.6686 237.574 42.2309 237.574 50.9374C237.574 59.6438 244.155 66.2061 252.821 66.2061C261.423 66.2061 268.004 59.6438 268.004 50.9374Z" fill="white"/>
<path d="M282.012 50.9374C282.012 38.2675 292.047 28.4565 304.558 28.4565C317.069 28.4565 327.168 38.2675 327.168 50.9374C327.168 63.6072 317.069 73.4181 304.558 73.4181C292.047 73.4181 282.012 63.5422 282.012 50.9374ZM319.74 50.9374C319.74 42.2959 313.159 35.7336 304.558 35.7336C296.087 35.7336 289.506 42.2959 289.506 50.9374C289.506 59.5788 296.087 66.1411 304.558 66.1411C313.094 66.1411 319.74 59.5138 319.74 50.9374Z" fill="white"/>
<path d="M333.62 50.9374C333.62 38.2675 343.654 28.4565 356.165 28.4565C368.676 28.4565 378.775 38.2675 378.775 50.9374C378.775 63.6072 368.676 73.4181 356.165 73.4181C343.589 73.4181 333.62 63.5422 333.62 50.9374ZM371.282 50.9374C371.282 42.2959 364.701 35.7336 356.1 35.7336C347.629 35.7336 341.048 42.2959 341.048 50.9374C341.048 59.5788 347.629 66.1411 356.1 66.1411C364.701 66.1411 371.282 59.5138 371.282 50.9374Z" fill="white"/>
<path d="M387.572 9.87427H395.001V72.2487H387.572V9.87427Z" fill="white"/>
</svg>
