<svg width="395" height="90" viewBox="0 0 395 90" fill="none" xmlns="http://www.w3.org/2000/svg">
<path d="M60.0794 51.7826C56.6911 58.0201 50.11 62.2434 42.5514 62.2434C31.6045 62.2434 22.6124 53.342 22.6124 42.3615C22.6124 31.446 31.5394 22.4796 42.5514 22.4796C50.11 22.4796 56.6911 26.7029 60.0794 32.9404L69.9838 27.6125C64.7058 17.8665 54.4105 11.3042 42.5514 11.3042C25.3492 11.3042 11.4049 25.2085 11.4049 42.3615C11.4049 59.5145 25.3492 73.4188 42.5514 73.4188C54.4105 73.4188 64.7058 66.7915 69.9838 57.1105L60.0794 51.7826Z" fill="white"/>
<path d="M0 42.3627C0 18.9722 19.0267 0 42.4843 0V84.7254C19.0919 84.7254 0 65.8181 0 42.3627Z" fill="#50ACD6"/>
<path fill-rule="evenodd" clip-rule="evenodd" d="M42.5514 62.2434V73.4188C25.3492 73.4188 11.4049 59.5145 11.4049 42.3615C11.4049 25.2085 25.3492 11.3042 42.5514 11.3042V22.4796C31.6045 22.4796 22.6124 31.381 22.6124 42.3615C22.6124 53.342 31.5394 62.2434 42.5514 62.2434Z" fill="#1B2A32"/>
<path d="M77.672 9.87402H86.9247V72.2485H77.672V9.87402Z" fill="white"/>
<path d="M118.004 64.9072C123.152 64.9072 126.996 62.5681 129.081 59.5794L136.705 63.9976C132.73 69.7802 126.345 73.2888 117.939 73.2888C103.799 73.2888 94.6116 63.6077 94.6116 50.808C94.6116 38.1381 103.799 28.3271 117.222 28.3271C129.993 28.3271 138.725 38.593 138.725 50.8729C138.725 52.1724 138.529 53.5368 138.399 54.7064H104.32C105.754 61.5286 111.162 64.9072 118.004 64.9072ZM129.407 47.2994C128.104 39.9574 122.696 36.7737 117.157 36.7737C110.185 36.7737 105.493 40.867 104.19 47.2994H129.407Z" fill="white"/>
<path d="M189.811 29.5616V72.2491H180.558V66.0767C177.3 70.6248 172.218 73.3537 165.571 73.3537C153.908 73.3537 144.264 63.5427 144.264 50.8729C144.264 38.1381 153.973 28.3921 165.571 28.3921C172.283 28.3921 177.3 31.121 180.558 35.5392V29.4966H189.811V29.5616ZM180.558 50.9379C180.558 43.0111 174.759 37.2935 167.005 37.2935C159.316 37.2935 153.452 43.0111 153.452 50.9379C153.452 58.8646 159.251 64.5823 167.005 64.5823C174.694 64.5823 180.558 58.8646 180.558 50.9379Z" fill="white"/>
<path d="M222.26 28.7827V38.7886C216.2 38.3338 209.032 41.1926 209.032 50.7437V72.2499H199.78V29.4974H209.032V36.6445C211.639 30.9268 216.851 28.7827 222.26 28.7827Z" fill="white"/>
<path d="M275.497 50.9374C275.497 63.6072 265.723 73.4181 253.799 73.4181C246.501 73.4181 241.027 70.1695 237.574 64.9716V89.4016H230.146V29.5611H237.574V36.9031C241.027 31.7052 246.501 28.4565 253.799 28.4565C265.723 28.4565 275.497 38.2675 275.497 50.9374ZM268.004 50.9374C268.004 42.2309 261.423 35.6686 252.821 35.6686C244.155 35.6686 237.574 42.2309 237.574 50.9374C237.574 59.6438 244.155 66.2061 252.821 66.2061C261.423 66.2061 268.004 59.6438 268.004 50.9374Z" fill="white"/>
<path d="M282.012 50.9374C282.012 38.2675 292.047 28.4565 304.558 28.4565C317.069 28.4565 327.168 38.2675 327.168 50.9374C327.168 63.6072 317.069 73.4181 304.558 73.4181C292.047 73.4181 282.012 63.5422 282.012 50.9374ZM319.74 50.9374C319.74 42.2959 313.159 35.7336 304.558 35.7336C296.087 35.7336 289.506 42.2959 289.506 50.9374C289.506 59.5788 296.087 66.1411 304.558 66.1411C313.094 66.1411 319.74 59.5138 319.74 50.9374Z" fill="white"/>
<path d="M333.62 50.9374C333.62 38.2675 343.654 28.4565 356.165 28.4565C368.676 28.4565 378.776 38.2675 378.776 50.9374C378.776 63.6072 368.676 73.4181 356.165 73.4181C343.589 73.4181 333.62 63.5422 333.62 50.9374ZM371.282 50.9374C371.282 42.2959 364.701 35.7336 356.1 35.7336C347.629 35.7336 341.048 42.2959 341.048 50.9374C341.048 59.5788 347.629 66.1411 356.1 66.1411C364.701 66.1411 371.282 59.5138 371.282 50.9374Z" fill="white"/>
<path d="M387.573 9.87402H395.001V72.2485H387.573V9.87402Z" fill="white"/>
</svg>
