<svg viewBox="0 0 140 44" id="svg9598984468"><g transform="translate(0 0.995)"><path d="M 0 43.005 L 0 0.005 L 139 0.005 L 139 43.005 Z" fill="transparent"/><path d="M 35.975 29.192 L 39.079 27.707 C 39.079 30.714 40.956 32.634 44.132 32.634 C 46.695 32.634 48.535 31.438 48.535 29.482 C 48.535 24.338 36.444 28.359 36.444 20.317 C 36.444 16.622 39.873 14.267 43.951 14.267 C 48.427 14.267 51.243 16.876 51.64 20.027 L 48.644 21.331 C 48.644 18.868 46.875 17.129 43.951 17.129 C 41.497 17.129 39.765 18.216 39.765 20.1 C 39.765 25.026 51.892 21.187 51.892 29.337 C 51.892 33.213 48.535 35.459 44.132 35.459 C 39.837 35.459 36.516 33.177 35.975 29.192 Z" fill="var(--token-a1f32634-e02f-4198-aae0-1dbcc6b04df3, rgb(255, 255, 255)) /* {&quot;name&quot;:&quot;Neutral-01&quot;} */"/><path d="M 52.578 27.925 C 52.578 23.505 55.61 20.245 59.761 20.245 C 63.948 20.245 66.583 23.252 66.583 27.635 C 66.583 28.033 66.547 28.395 66.511 28.903 L 55.899 28.903 C 56.224 31.62 57.848 32.815 60.014 32.815 C 62.035 32.815 63.298 32.018 64.092 30.243 L 66.366 32.272 C 65.031 34.445 62.576 35.46 59.941 35.46 C 55.43 35.46 52.578 32.344 52.578 27.925 Z M 63.19 26.584 C 63.19 24.338 61.854 22.925 59.689 22.925 C 57.812 22.925 56.296 24.121 55.935 26.584 Z" fill="var(--token-a1f32634-e02f-4198-aae0-1dbcc6b04df3, rgb(255, 255, 255)) /* {&quot;name&quot;:&quot;Neutral-01&quot;} */"/><path d="M 68.099 20.716 L 71.239 20.716 L 71.239 24.918 L 71.997 21.73 C 72.755 20.897 73.874 20.208 75.751 20.208 C 79.216 20.208 81.093 22.454 81.093 26.258 L 81.093 35.025 L 77.953 35.025 L 77.953 26.946 C 77.953 24.374 76.978 23.179 74.885 23.179 C 72.611 23.179 71.275 24.773 71.275 27.417 L 71.275 35.061 L 68.135 35.061 L 68.135 20.716 Z" fill="var(--token-a1f32634-e02f-4198-aae0-1dbcc6b04df3, rgb(255, 255, 255)) /* {&quot;name&quot;:&quot;Neutral-01&quot;} */"/><path d="M 84.486 30.859 L 84.486 23.469 L 81.923 23.469 L 81.923 20.752 L 84.486 20.752 L 84.486 17.709 L 87.626 15.354 L 87.626 20.752 L 91.705 20.752 L 91.705 23.469 L 87.626 23.469 L 87.626 30.424 C 87.626 32.199 88.312 32.561 89.756 32.561 C 90.189 32.561 91.019 32.453 91.488 32.344 L 91.488 35.133 C 91.019 35.315 89.756 35.423 89.286 35.423 C 86.182 35.423 84.486 34.119 84.486 30.859 Z" fill="var(--token-a1f32634-e02f-4198-aae0-1dbcc6b04df3, rgb(255, 255, 255)) /* {&quot;name&quot;:&quot;Neutral-01&quot;} */"/><path d="M 92.246 27.852 C 92.246 23.36 95.567 20.208 99.97 20.208 C 104.374 20.208 107.695 23.36 107.695 27.852 C 107.695 32.308 104.338 35.459 99.97 35.459 C 95.603 35.459 92.246 32.344 92.246 27.852 Z M 104.446 27.852 C 104.446 24.954 102.569 23.143 100.006 23.143 C 97.444 23.143 95.531 24.954 95.531 27.852 C 95.531 30.714 97.444 32.525 100.006 32.525 C 102.569 32.561 104.446 30.75 104.446 27.852 Z" fill="var(--token-a1f32634-e02f-4198-aae0-1dbcc6b04df3, rgb(255, 255, 255)) /* {&quot;name&quot;:&quot;Neutral-01&quot;} */"/><path d="M 109.066 20.716 L 112.206 20.716 L 112.206 25.497 L 112.964 21.839 C 113.506 21.223 114.625 20.389 116.249 20.389 C 116.754 20.389 117.079 20.426 117.512 20.571 L 117.512 23.722 C 116.971 23.541 116.502 23.469 115.888 23.469 C 113.686 23.469 112.17 24.954 112.17 28.142 L 112.17 35.061 L 109.03 35.061 L 109.03 20.716 Z" fill="var(--token-a1f32634-e02f-4198-aae0-1dbcc6b04df3, rgb(255, 255, 255)) /* {&quot;name&quot;:&quot;Neutral-01&quot;} */"/><path d="M 117.548 27.888 C 117.548 23.577 120.472 20.245 124.767 20.245 C 126.969 20.245 128.629 21.114 129.748 22.418 L 129.748 20.752 L 132.888 20.752 L 132.888 28.758 L 135.054 35.097 L 131.697 35.097 L 130.001 29.772 L 129.712 33.359 C 128.665 34.626 127.041 35.496 124.731 35.496 C 120.472 35.46 117.548 32.199 117.548 27.888 Z M 129.856 27.888 C 129.856 25.063 127.944 23.107 125.345 23.107 C 122.638 23.107 120.833 25.135 120.833 27.888 C 120.833 30.605 122.674 32.561 125.345 32.561 C 127.907 32.598 129.856 30.678 129.856 27.888 Z" fill="var(--token-a1f32634-e02f-4198-aae0-1dbcc6b04df3, rgb(255, 255, 255)) /* {&quot;name&quot;:&quot;Neutral-01&quot;} */"/><path d="M 134.549 22.346 C 134.549 21.078 135.596 20.027 136.859 20.027 C 138.122 20.027 139.169 21.078 139.169 22.346 C 139.169 23.614 138.122 24.664 136.859 24.664 C 135.596 24.664 134.549 23.65 134.549 22.346 Z M 138.519 22.346 C 138.519 21.44 137.761 20.679 136.859 20.679 C 135.957 20.679 135.198 21.44 135.198 22.346 C 135.198 23.251 135.957 24.012 136.859 24.012 C 137.797 24.012 138.519 23.288 138.519 22.346 Z M 136.029 21.259 L 137.039 21.259 C 137.545 21.259 137.833 21.549 137.833 21.983 C 137.833 22.273 137.725 22.454 137.508 22.599 L 137.906 23.432 L 137.22 23.432 L 136.931 22.708 L 136.642 22.708 L 136.642 23.432 L 136.029 23.432 Z M 136.931 22.237 C 137.112 22.237 137.22 22.165 137.22 21.983 C 137.22 21.802 137.112 21.694 136.931 21.694 L 136.642 21.694 L 136.642 22.237 Z" fill="var(--token-a1f32634-e02f-4198-aae0-1dbcc6b04df3, rgb(255, 255, 255)) /* {&quot;name&quot;:&quot;Neutral-01&quot;} */"/><g><path d="M 24.003 20.762 C 23.498 18.335 21.909 16.633 21.188 15.944 C 21.151 15.836 21.115 15.727 21.079 15.618 L 24.797 12.938 C 24.797 11.887 24.58 10.873 24.219 9.895 L 17.65 14.64 L 17.975 15.546 C 18.228 16.307 18.48 17.104 18.48 17.104 L 18.625 17.502 L 18.95 17.756 C 19.058 17.828 21.512 19.82 21.224 22.791 L 19.708 23.878 C 17.253 25.653 16.82 26.776 16.243 28.587 C 16.098 29.022 15.954 29.529 15.737 30.109 C 14.871 32.318 13.824 33.007 12.2 33.804 L 10.973 34.419 L 14.907 42.969 L 18.336 42.969 L 18.336 40.216 L 16.82 40.216 L 14.69 35.579 C 16.206 34.709 17.506 33.514 18.444 31.014 C 18.697 30.326 18.877 29.783 19.022 29.312 C 19.383 28.116 19.563 27.537 20.682 26.631 L 20.827 29.348 L 19.491 30.326 L 21.224 32.536 L 23.822 30.724 L 23.714 28.478 L 24.941 30.036 L 27.54 28.225 L 27.215 22.646 Z M 23.678 27.5 L 23.534 24.602 L 24.436 23.95 L 24.617 26.884 Z" fill="var(--token-a1f32634-e02f-4198-aae0-1dbcc6b04df3, rgb(255, 255, 255)) /* {&quot;name&quot;:&quot;Neutral-01&quot;} */"/><path d="M 29.525 4.243 L 27.721 2.07 C 27.721 2.07 26.71 2.794 25.122 3.99 C 21.512 0.512 16.062 -0.864 11.045 0.548 L 11.911 3.157 C 15.773 2.07 19.96 3.048 22.812 5.656 C 21.079 6.924 19.022 8.409 16.892 9.967 C 16.82 9.931 16.748 9.895 16.676 9.822 C 16.243 9.569 15.593 9.134 15.088 8.735 C 13.932 7.794 12.597 7.286 11.334 7.323 C 9.709 7.359 8.193 8.12 7.255 9.315 C 6.75 9.967 6.461 10.655 6.208 11.271 C 6.136 11.489 6.028 11.67 5.956 11.887 C 5.667 12.503 5.342 12.901 5.017 13.046 L 6.1 15.582 C 7.183 15.184 8.049 14.314 8.663 12.974 C 8.771 12.72 8.879 12.503 8.951 12.249 C 9.168 11.742 9.348 11.271 9.637 10.909 C 10.034 10.402 10.72 10.04 11.406 10.04 L 11.442 10.04 C 12.164 10.04 12.85 10.511 13.174 10.764 C 13.608 11.09 14.041 11.416 14.474 11.67 C 11.839 13.59 9.132 15.546 6.822 17.248 L 6.786 17.285 L 6.894 17.575 L 7.833 19.784 L 12.814 20.98 L 12.85 21.668 L 7.869 25.291 C 7.508 25.544 7.183 25.87 6.93 26.196 C 6.208 26.124 5.45 26.269 4.801 26.559 C 3.682 27.066 2.888 28.044 2.599 29.167 L 2.382 30.072 C 2.274 30.58 1.769 30.942 1.227 30.942 L 0 30.942 L 0 33.695 L 1.227 33.695 C 3.14 33.695 4.837 32.427 5.234 30.688 L 5.45 29.783 C 5.522 29.493 5.703 29.239 5.992 29.094 C 6.064 30.652 6.966 32.029 8.374 32.826 C 8.338 32.934 8.302 33.007 8.23 33.079 C 8.013 33.297 7.616 33.441 7.147 33.478 L 5.522 33.514 L 6.894 42.896 L 10.648 42.896 L 10.648 40.143 L 9.457 40.143 L 8.843 35.941 C 9.493 35.724 10.034 35.361 10.467 34.89 C 11.153 34.13 11.478 33.115 11.334 32.065 C 11.261 31.449 10.828 30.942 10.251 30.652 L 10.034 30.543 C 9.348 30.217 8.915 29.601 8.915 28.877 C 8.915 28.841 8.915 28.768 8.915 28.732 C 8.951 28.261 9.24 27.79 9.709 27.464 L 15.882 22.972 L 15.665 18.842 L 10.973 17.719 C 15.485 14.495 20.79 10.619 24.58 7.866 C 24.905 8.373 25.158 8.88 25.338 9.424 L 25.338 9.46 C 26.493 12.358 26.205 15.655 24.472 18.372 L 26.963 19.784 C 29.706 15.582 29.634 10.257 26.89 6.163 C 28.515 4.968 29.525 4.243 29.525 4.243 Z" fill="var(--token-a1f32634-e02f-4198-aae0-1dbcc6b04df3, rgb(255, 255, 255)) /* {&quot;name&quot;:&quot;Neutral-01&quot;} */"/></g></g></svg>