<?xml version="1.0" encoding="UTF-8"?>
<svg id="Layer_1" data-name="Layer 1" xmlns="http://www.w3.org/2000/svg" viewBox="0 0 1812.0443 1137.3762">
  <path d="M1279.0987,106.6045c-157.9102,0-298.5349,73.6174-389.7825,188.2788l80.0225,150.747c57.7787-112.3199,174.7135-189.2429,309.6912-189.2429,192.2744,0,348.1186,155.843,348.1186,348.116s-155.8442,348.116-348.1186,348.116v.6198c-122.995-.2066-238.0015-66.3865-300.4632-172.9906l-93.6581-176.365.1378-.2066-36.017-67.4195-245.0947-461.6755L58.1701,1102.4023h168.5844l114.3867-215.2741h111.5632l78.7829-149.0942h-111.15l183.5973-345.4991,112.2519,211.4177-264.6528,498.4497h169.0665l180.0851-339.4389,29.9568,56.4698c5.647,11.7071,35.9482,62.6678,35.9482,62.6678,92.0052,136.2851,247.9183,220.0948,412.5773,220.2324h0c274.9827,0,497.9025-222.9182,497.9025-497.8989s-222.9888-497.8299-497.9715-497.8299Z" stroke="#000" stroke-miterlimit="10" stroke-width="5"/>
  <path d="M640.1329,1134.8762h-242.609l281.8945-530.9236-75.496-142.1913-129.5534,243.7981h111.0076l-113.1025,214.043h-111.6138l-114.3867,215.2738H4.1581L603.9379,5.3312l273.7745,515.6995,45.1354,84.4873-.1682.2528,84.2406,158.6297c53.4245,90.7472,149.0856,149.1709,253.0593,155.7452h19.05c84.3178,0,163.5855-32.8308,223.2-92.4441,59.6136-59.6141,92.4447-138.8803,92.4447-223.1984s-32.8311-163.5838-92.4447-223.1975c-59.6146-59.6132-138.8813-92.4441-223.2-92.4441-59.1026,0-116.7141,16.4526-166.6051,47.5793-48.5535,30.291-88.0453,73.185-114.2083,124.0441l-28.4252,55.258-119.1358-224.4292,13.2511-16.6517c48.6257-61.1028,111.1887-111.6006,180.9248-146.0341,73.2375-36.1621,152.0565-54.4978,234.2675-54.4978,71.5856,0,141.0497,14.0236,206.4628,41.6806,63.1692,26.7084,119.8937,64.9364,168.5999,113.6238,48.7098,48.6906,86.9569,105.4,113.6779,168.5522,27.6733,65.4034,41.7053,134.8623,41.7053,206.4475s-14.0274,141.0469-41.6933,206.4548c-26.7145,63.1605-64.9525,119.8772-113.6513,168.5756-48.6978,48.6975-105.415,86.9352-168.576,113.6495-65.4085,27.6657-134.8707,41.693-206.4563,41.693-86.0028-.0717-172.0442-21.8213-248.8492-62.8985-76.5577-40.9448-142.4814-100.2969-190.6429-171.6376l-.5217-.7721-.4762-.8016c-5.0957-8.5699-30.4719-51.3623-36.9749-64.5209l-1.018-1.9193-160.5516,302.619ZM505.544,1069.9278h95.5237l199.6191-376.2576,58.9343,111.0941.2703.5598c3.425,7.1001,21.8408,38.6853,34.1295,59.3687,42.2246,62.2771,99.9272,114.1101,166.9287,149.944,67.4307,36.0637,142.8992,55.1596,218.2445,55.2221,62.8199,0,123.7692-12.301,181.128-36.5619,55.4192-23.4401,105.1972-57.0035,147.9522-99.7583,42.755-42.7538,76.3187-92.5323,99.759-147.9502,24.2611-57.3593,36.5622-118.3081,36.5622-181.1542s-12.3048-123.7867-36.5714-181.1386c-23.4458-55.4101-57.0159-105.1798-99.7802-147.9268-42.7615-42.7455-92.5477-76.3016-147.9752-99.7371-57.3671-24.255-118.3209-36.5532-181.1703-36.5532-72.151,0-141.2952,16.0771-205.5114,47.7852-54.9477,27.1312-104.8359,65.641-145.3627,112.0538l43.2781,81.5279c28.7332-39.3977,64.8679-73.1078,106.5429-99.1084,60.2148-37.5667,129.7138-57.4236,200.9842-57.4236,51.3691,0,101.2169,10.0664,148.159,29.9197,45.3252,19.1699,86.0249,46.6058,120.9665,81.5476,34.9416,34.9409,62.3787,75.6398,81.5482,120.9651,19.8534,46.9418,29.9199,96.7892,29.9199,148.1575s-10.0664,101.2162-29.9199,148.1579c-19.1695,45.3258-46.6066,86.0242-81.5482,120.9656-34.9416,34.9414-75.6413,62.3782-120.9665,81.5476-36.9832,15.6414-75.7718,25.2078-115.6846,28.5629v2.0306l-32.5287-.0542c-134.3909-.2261-260.2366-72.6652-328.4275-189.0476l-.6628-1.1867-102.7479-193.4828.1075-.1609-26.8584-50.2762-216.4548-407.7266L112.1823,1069.9278h95.0535l114.3867-215.2738h111.5127l44.4634-84.1463h-111.293l237.6415-447.1997,149.007,280.6446-247.4102,465.9753Z" stroke="#000" stroke-miterlimit="10" stroke-width="5"/>
</svg>