<?xml version="1.0" encoding="UTF-8"?>
<svg xmlns="http://www.w3.org/2000/svg" version="1.1" viewBox="0 0 637 647">
  <defs>
    <style>
      .cls-1 {
        fill: #6e6ef4;
      }
    </style>
  </defs>
  <!-- Generator: Adobe Illustrator 28.7.3, SVG Export Plug-In . SVG Version: 1.2.0 Build 164)  -->
  <g>
    <g id="graphic">
      <g>
        <path class="cls-1" d="M315.6,55L56.6,108.1v290l.2,1c35.3,198,237.1,215.4,245.7,216.1l12.2.9h.7l12.2-.9c8.6-.6,210.4-18.1,245.7-216.1l.2-1V108.1l-257.8-53.1ZM527.5,394c-12.6,66.4-49,115.7-108.3,146.7-33.4,17.4-65.6,24.5-82.6,27.2v-223.1l134.2-22.1v-30.9l-155-25.8-156.4,25.8v30.9l134.2,22.3v222.9c-17-2.7-49.2-9.8-82.6-27.2-59.3-31-95.8-80.3-108.3-146.7v-248.4l212.5-43.6,212.5,43.6v248.4Z"/>
        <polygon class="cls-1" points="293.5 138.1 293.5 187 293.5 199.2 293.5 244.1 315 240 336.5 244.1 336.5 199.2 336.5 187 336.5 138.1 315 131.6 293.5 138.1"/>
      </g>
    </g>
  </g>
</svg>