<svg width="141" height="74" viewBox="0 0 115 61" fill="none" xmlns="http://www.w3.org/2000/svg"><path d="M32.1863 22.2518V14.4537H34.7816V21.6155C34.7816 22.1728 34.9188 22.6802 35.1933 23.1377C35.4678 23.5952 35.8338 23.9612 36.2913 24.2357C36.7488 24.5018 37.252 24.6349 37.801 24.6349C38.3583 24.6349 38.8616 24.5018 39.3107 24.2357C39.7682 23.9612 40.1301 23.5952 40.3962 23.1377C40.6707 22.6802 40.808 22.1728 40.808 21.6155V14.4537H43.4032L43.4157 26.9307H40.8204L40.808 25.5832C40.3838 26.0989 39.8556 26.5065 39.2234 26.8059C38.5912 27.1054 37.9133 27.2551 37.1896 27.2551C36.2663 27.2551 35.4262 27.0305 34.6693 26.5813C33.9123 26.1322 33.3093 25.5291 32.8601 24.7722C32.4109 24.0152 32.1863 23.1751 32.1863 22.2518Z" fill="white"></path><path d="M45.2668 26.9307V8.21515H47.862V26.9307H45.2668Z" fill="white"></path><path d="M56.6866 17.0489H54.0664L54.0539 26.9307H51.4587L51.4712 17.0489H49.4873V14.4537H51.4712L51.4587 10.5359H54.0539L54.0664 14.4537H56.6866V17.0489Z" fill="white"></path><path d="M58.1717 26.9307V14.4537H60.7669V15.7762C61.1995 15.2605 61.7318 14.8529 62.364 14.5535C62.9962 14.254 63.6782 14.1043 64.4102 14.1043C64.876 14.1043 65.3377 14.1667 65.7952 14.2915L64.7596 16.9116C64.4352 16.7869 64.1108 16.7245 63.7864 16.7245C63.2374 16.7245 62.7341 16.8617 62.2767 17.1362C61.8192 17.4024 61.4532 17.7642 61.1787 18.2217C60.9042 18.6792 60.7669 19.1866 60.7669 19.7439V26.9307H58.1717Z" fill="white"></path><path d="M75.6107 14.4537H78.2059V26.9307H75.5982L75.4984 25.1215C75.1324 25.762 74.6375 26.2777 74.0136 26.6687C73.3898 27.0596 72.6536 27.2551 71.8052 27.2551C70.8902 27.2551 70.0293 27.0846 69.2225 26.7435C68.4156 26.3942 67.7044 25.9117 67.0889 25.2962C66.4817 24.6807 66.0075 23.9736 65.6665 23.1751C65.3255 22.3683 65.1549 21.5032 65.1549 20.5799C65.1549 19.6899 65.3213 18.8539 65.654 18.072C65.9868 17.2818 66.4484 16.5914 67.039 16.0008C67.6296 15.4102 68.3116 14.9486 69.0852 14.6159C69.8671 14.2748 70.7031 14.1043 71.5931 14.1043C72.4998 14.1043 73.2983 14.3123 73.9887 14.7282C74.6874 15.1357 75.2655 15.6598 75.723 16.3003L75.6107 14.4537ZM71.7428 24.7472C72.4748 24.7472 73.1153 24.5684 73.6643 24.2107C74.2133 23.8447 74.6375 23.354 74.9369 22.7384C75.2447 22.1229 75.3986 21.4408 75.3986 20.6922C75.3986 19.9352 75.2447 19.249 74.9369 18.6335C74.6292 18.0179 74.2008 17.5313 73.6518 17.1737C73.1111 16.8077 72.4748 16.6247 71.7428 16.6247C71.0192 16.6247 70.3579 16.8077 69.759 17.1737C69.1601 17.5397 68.686 18.0304 68.3366 18.6459C67.9872 19.2615 67.8126 19.9436 67.8126 20.6922C67.8126 21.4491 67.9914 22.1354 68.3491 22.7509C68.7151 23.3581 69.1933 23.8447 69.7839 24.2107C70.3828 24.5684 71.0358 24.7472 71.7428 24.7472Z" fill="white"></path><mask id="mask0_1798_791" maskUnits="userSpaceOnUse" x="0" y="0" width="33" height="33" style="mask-type: alpha;"><path d="M0 12.8279C0 8.33775 0 6.09264 0.873852 4.37761C1.64251 2.86903 2.86903 1.64251 4.37761 0.873852C6.09264 0 8.33775 0 12.8279 0H19.2679C23.7581 0 26.0032 0 27.7182 0.873852C29.2268 1.64251 30.4533 2.86903 31.222 4.37761C32.0958 6.09264 32.0958 8.33775 32.0958 12.8279V19.2679C32.0958 23.7581 32.0958 26.0032 31.222 27.7182C30.4533 29.2268 29.2268 30.4533 27.7182 31.222C26.0032 32.0958 23.7581 32.0958 19.2679 32.0958H12.8279C8.33775 32.0958 6.09264 32.0958 4.37761 31.222C2.86903 30.4533 1.64251 29.2268 0.873852 27.7182C0 26.0032 0 23.7581 0 19.2679V12.8279Z" fill="url(#paint0_linear_1798_791)"></path></mask><g mask="url(#mask0_1798_791)"><path d="M25.404 14.0075L20.7828 16.1368L20.6256 28.6832C20.6256 29.4169 20.0493 30.5067 19.5568 30.7142C23.807 30.7142 25.2573 27.1435 25.404 25.3418V14.0075Z" fill="white"></path><path d="M20.7828 11.9437L25.404 14.0075L20.7828 16.1368L16.0987 14.0075L20.7828 11.9437Z" fill="white"></path><path d="M16.0903 9.73297L11.752 11.8402V23.1541C11.752 24.5156 12.3718 26.2986 14.6147 26.2986C15.5296 26.2986 16.0903 25.9096 16.0903 25.3261V20.9496V9.73297Z" fill="white"></path><path d="M11.7545 7.68738L16.0903 9.73143L11.7545 11.8404L7.35971 9.73143L11.7545 7.68738Z" fill="white"></path><path d="M7.96606 5.17609L11.7209 2.26398L8.81079 6.02179L13.8743 6.61945L8.81079 7.21808L9.03833 7.53741L7.35962 6.73273V17.8177L6.77075 8.06378L4.55396 9.43683L5.92505 7.21808L-1.21655 6.61945L5.92505 6.02179L3.88696 3.13605L6.77075 5.17609L7.36841 -0.685242L7.96606 5.17609Z" fill="white"></path></g><rect x="81.9927" y="14.0865" width="33.0073" height="13.1508" rx="2.0833" fill="white"></rect><path d="M89.711 16.7785H91.5232L88.8327 21.0533V24.561H87.2984V21.0533L84.6079 16.7785H86.4201L88.0655 19.3856L89.711 16.7785Z" fill="black"></path><path d="M92.0382 24.561V16.7785H93.5724V24.561H92.0382Z" fill="black"></path><path d="M94.7407 24.561V16.7785H99.6659V18.3128H96.275V19.6247H98.921V21.1589H96.275V23.0267H99.6659V24.561H94.7407Z" fill="black"></path><path d="M100.563 24.561V16.7785H102.098V23.0267H105.233V24.561H100.563Z" fill="black"></path><path d="M106.125 24.561V16.7785H108.705C109.242 16.7785 109.744 16.8804 110.211 17.0842C110.682 17.2844 111.095 17.5642 111.451 17.9236C111.81 18.2794 112.09 18.6926 112.29 19.1633C112.494 19.6302 112.596 20.1324 112.596 20.6697C112.596 21.2071 112.494 21.7111 112.29 22.1818C112.09 22.6487 111.81 23.0619 111.451 23.4214C111.095 23.7772 110.682 24.057 110.211 24.2608C109.744 24.4609 109.242 24.561 108.705 24.561H106.125ZM107.659 23.0267H108.705C109.023 23.0267 109.323 22.9656 109.605 22.8433C109.89 22.721 110.142 22.5523 110.361 22.3374C110.58 22.1225 110.75 21.8723 110.873 21.587C110.999 21.3016 111.062 20.9959 111.062 20.6697C111.062 20.3436 110.999 20.0397 110.873 19.7581C110.75 19.4727 110.58 19.2226 110.361 19.0076C110.146 18.789 109.896 18.6185 109.611 18.4962C109.329 18.3739 109.027 18.3128 108.705 18.3128H107.659V23.0267Z" fill="black"></path><path d="M14.648 55.1739C13.976 55.1739 13.4113 55.0106 12.954 54.6839C12.4967 54.3572 12.184 53.8952 12.016 53.2979L12.17 53.2699V55.0479H11.12V44.9679H12.24V49.5739L12.086 49.5319C12.2633 48.9812 12.5853 48.5519 13.052 48.2439C13.528 47.9266 14.0927 47.7679 14.746 47.7679C15.3807 47.7679 15.9313 47.9219 16.398 48.2299C16.874 48.5379 17.2427 48.9672 17.504 49.5179C17.7653 50.0686 17.896 50.7126 17.896 51.4499C17.896 52.1966 17.7607 52.8499 17.49 53.4099C17.2193 53.9699 16.8413 54.4039 16.356 54.7119C15.8707 55.0199 15.3013 55.1739 14.648 55.1739ZM14.48 54.1939C15.1893 54.1939 15.7447 53.9512 16.146 53.4659C16.5473 52.9712 16.748 52.2992 16.748 51.4499C16.748 50.6099 16.5473 49.9519 16.146 49.4759C15.7447 48.9906 15.1893 48.7479 14.48 48.7479C13.7707 48.7479 13.2107 48.9952 12.8 49.4899C12.3893 49.9752 12.184 50.6426 12.184 51.4919C12.184 52.3226 12.3893 52.9806 12.8 53.4659C13.2107 53.9512 13.7707 54.1939 14.48 54.1939ZM20.0212 57.9179L21.6172 54.2079L21.8692 53.8159L24.2072 47.9079H25.3552L21.2112 57.9179H20.0212ZM21.7432 55.1179L18.5372 47.9079H19.7692L22.5272 54.3619L21.7432 55.1179Z" fill="white"></path><g clip-path="url(#clip0_1798_791)"><mask id="mask1_1798_791" maskUnits="userSpaceOnUse" x="34" y="43" width="72" height="15" style="mask-type: luminance;"><path d="M106 43.0479H34V57.2166H106V43.0479Z" fill="white"></path></mask><g mask="url(#mask1_1798_791)"><path d="M72.4657 44.8363C72.3688 44.58 72.2093 44.3491 71.9899 44.1351C71.6025 43.7549 71.0697 43.5634 70.3917 43.5634H64.731C64.731 44.2731 65.315 44.8504 66.0329 44.8504H66.785H69.9758C69.9929 44.8504 70.0128 44.8504 70.0299 44.8504C70.2948 44.8588 70.517 44.9236 70.688 45.0757C70.8703 45.225 70.9643 45.439 70.9643 45.7065V47.1738C70.9643 47.4357 70.8703 47.6441 70.6823 47.8018C70.5028 47.9568 70.2692 48.0356 69.9758 48.0412H66.3377V47.2499V47.1288V45.8417H64.7253V47.2499V49.348H70.386C71.0526 49.348 71.5854 49.1565 71.9842 48.765C72.3774 48.382 72.5739 47.937 72.5739 47.4386V45.4756C72.5739 45.2475 72.5369 45.0363 72.46 44.8363H72.4657Z" fill="white"></path><path d="M79.7361 48.0383C79.719 48.0383 79.7048 48.0383 79.6877 48.0412H76.6052C76.3203 48.0356 76.0867 47.9595 75.9015 47.8018C75.7192 47.6441 75.6252 47.4357 75.6252 47.1738V46.3458V45.7572C75.6252 45.7572 75.6394 44.856 76.6337 44.8475H79.8586C80.6819 44.8475 81.4169 44.3321 81.6876 43.5605H76.3773C74.403 43.5605 74.007 44.8644 74.007 45.7487V47.416C74.007 47.9229 74.2007 48.3679 74.5967 48.7593C75.0041 49.148 75.5311 49.3395 76.1892 49.3395H80.0666C80.5936 49.331 81.0437 49.1649 81.4112 48.841C81.679 48.6072 81.85 48.3369 81.9212 48.0299H79.7304L79.7361 48.0383Z" fill="white"></path><path d="M78.3601 45.9149H80.3572H80.7874C81.4426 45.9149 81.9725 46.4387 81.9725 47.0836H79.9925C79.249 47.0836 78.5909 46.6133 78.3601 45.9149Z" fill="white"></path><path d="M84.7215 47.0217H87.505C88.257 47.0217 88.9235 46.5485 89.163 45.8445H83.112V49.3451H89.2485L89.687 48.0581H84.719V47.0217H84.7215Z" fill="white"></path><path d="M89.3995 44.8504L89.8385 43.5634H83.1149C83.1149 44.2731 83.6961 44.8504 84.414 44.8504H89.3965H89.3995Z" fill="white"></path><path d="M58.6429 47.0217H61.4263C62.1784 47.0217 62.845 46.5485 63.0843 45.8445H57.0333V49.3451H63.1698L63.6085 48.0581H58.6401V47.0217H58.6429Z" fill="white"></path><path d="M63.3179 44.8504L63.7567 43.5634H57.0333C57.0333 44.2731 57.6145 44.8504 58.3324 44.8504H63.3151H63.3179Z" fill="white"></path><path d="M83.4938 51.4348V57.2166H81.8842V51.4348H83.4938Z" fill="white"></path><path d="M106 55.9099L105.547 57.2166H99.5955V51.4348H101.211V55.9127H106.003L106 55.9099Z" fill="white"></path><path d="M58.9278 55.6732C58.7454 55.5155 58.6514 55.3071 58.6514 55.0452V54.5045V54.2172V53.6286C58.6514 53.6286 58.6657 52.7302 59.6542 52.7218H62.2695C63.0928 52.7218 63.825 52.2036 64.0928 51.4319H60.5887C60.5488 51.4319 60.5146 51.4376 60.4804 51.4403V51.4319H59.4064C57.4321 51.4319 57.0361 52.7359 57.0361 53.6202V53.7103V54.4087V54.6847V55.2874C57.0361 55.7943 57.2327 56.2393 57.6287 56.6279C58.0361 57.0194 58.5631 57.2109 59.2241 57.2109H61.8308C62.6598 57.2109 63.3977 56.6843 63.6569 55.9042H59.6371C59.3523 55.8985 59.1186 55.8197 58.9306 55.6648L58.9278 55.6732Z" fill="white"></path><path d="M70.8561 57.2166H72.7221L69.1923 51.4348H67.4061L63.8763 57.2166H65.7195L66.3434 56.1746H67.2665C67.9844 56.1746 68.5656 55.5973 68.5656 54.8876H67.1126L68.2778 52.9359L70.8589 57.2166H70.8561Z" fill="white"></path><path d="M97.029 57.2166H98.895L95.365 51.4348H93.579L90.049 57.2166H91.8925L92.516 56.1746H93.439C94.157 56.1746 94.7385 55.5973 94.7385 54.8876H93.2855L94.4505 52.9359L97.0315 57.2166H97.029Z" fill="white"></path><path d="M91.673 51.4319H85.8785C85.1575 51.4319 84.5735 52.0065 84.5705 52.7189H87.2V57.2137H88.8125V52.7189H90.368C91.089 52.7189 91.673 52.1444 91.676 51.4319H91.673Z" fill="white"></path><path d="M78.5167 51.4348H73.4172C73.4172 52.1445 73.9984 52.7219 74.7163 52.7219H75.0382H78.3885C78.588 52.7219 78.9896 52.7359 78.9896 53.2231C78.9896 53.7104 78.6079 53.7104 78.3629 53.7104H75.0411H73.4144V57.2194H75.0268V54.9946H78.5167C79.2916 54.9946 80.6249 54.9777 80.6249 53.1753C80.6249 51.6685 79.3401 51.4376 78.5167 51.4376V51.4348Z" fill="white"></path><path fill-rule="evenodd" clip-rule="evenodd" d="M54.0648 57.2168H48.1077C47.8314 57.2168 47.575 57.0732 47.4354 56.8366L46.3471 55.0032L41.8344 47.4049L37.3218 55.0004H40.9228C42.5324 55.0004 44.0224 55.8425 44.8372 57.214H36.0085H34.7806C34.1795 57.214 33.8034 56.5663 34.1083 56.0537L41.1621 44.1803C41.4641 43.6734 42.2048 43.6734 42.5068 44.1803L43.1278 45.2279L48.9339 55.0032H51.5207L47.008 47.4077C46.2104 46.0616 46.2104 44.3943 47.008 43.051L54.7342 56.0593C55.039 56.5719 54.6658 57.2197 54.0619 57.2197L54.0648 57.2168Z" fill="url(#paint1_linear_1798_791)"></path></g></g><line x1="2.18557e-8" y1="33.7979" x2="115" y2="33.7979" stroke="white" stroke-width="0.5"></line><defs><linearGradient id="paint0_linear_1798_791" x1="0" y1="0" x2="32.0958" y2="32.0958" gradientUnits="userSpaceOnUse"><stop stop-color="#00A3FF"></stop><stop offset="1" stop-color="#0400B4"></stop></linearGradient><linearGradient id="paint1_linear_1798_791" x1="34" y1="50.1339" x2="54.8453" y2="50.1339" gradientUnits="userSpaceOnUse"><stop stop-color="#003BFF"></stop><stop offset="0.51" stop-color="#007AE8"></stop><stop offset="1" stop-color="#00B3D4"></stop></linearGradient><clipPath id="clip0_1798_791"><rect width="72" height="14.1687" fill="white" transform="translate(34 43.0479)"></rect></clipPath></defs></svg>