<svg width="100%" height="100%" viewBox="0 0 36 38" fill="none" xmlns="http://www.w3.org/2000/svg">
<path d="M23.6182 16.2054C24.5216 16.2054 25.2557 16.5142 25.8122 17.1317L29.1598 20.3617C29.9583 21.2167 30.9908 21.6442 32.2411 21.6442H34.4351C34.8546 21.6442 35.2176 21.7867 35.5322 22.0796C35.8467 22.3725 36 22.7367 36 23.18V25.8479C36 26.6713 35.6854 27.3837 35.0562 28.0012L31.7087 31.2867C30.8698 32.1733 30.4584 33.1867 30.4584 34.3108V36.4642C30.4584 36.9075 30.3132 37.2796 30.0148 37.5646C29.7244 37.8575 29.3453 38 28.8936 38H7.05803C6.63858 38 6.28367 37.8575 5.98521 37.5646C5.68676 37.2717 5.54156 36.9075 5.54156 36.4642V34.3108C5.54156 33.1471 5.10598 32.1417 4.23482 31.2867L0.94376 28.0567C0.314587 27.4708 0 26.7504 0 25.8954V12.1521C0 11.2258 0.314587 10.4975 0.94376 9.94333L4.23482 6.65792C5.10598 5.87417 5.54156 4.87667 5.54156 3.68125V1.53583C5.54156 1.0925 5.68676 0.720417 5.98521 0.435417C6.2756 0.1425 6.63858 0 7.05803 0H28.9016C29.3534 0 29.7325 0.1425 30.0229 0.435417C30.3213 0.728333 30.4665 1.0925 30.4665 1.53583V3.68917C30.4665 4.85292 30.8859 5.8425 31.7168 6.66583L35.5322 10.4104C35.8145 10.6875 35.9516 11.0438 35.9516 11.4871V12.1046C35.9516 12.5479 35.8064 12.92 35.508 13.205C35.2095 13.4979 34.8546 13.6404 34.4351 13.6404H31.8781C31.4264 13.6404 31.0473 13.4979 30.7569 13.205C30.4584 12.9121 30.3132 12.5638 30.3132 12.1521V7.0775C30.3132 6.66583 30.168 6.30958 29.8696 6.00083C29.5631 5.69208 29.192 5.54167 28.7403 5.54167H7.21129C6.79184 5.54167 6.42886 5.69208 6.11427 6.00083C5.79969 6.30958 5.64643 6.66583 5.64643 7.0775V30.9225C5.64643 31.3342 5.79969 31.6904 6.11427 31.9992C6.42886 32.3079 6.79184 32.4583 7.21129 32.4583H28.7403C29.192 32.4583 29.5711 32.3079 29.8615 31.9992C30.16 31.6904 30.3052 31.3342 30.3052 30.9225V23.3304C30.3052 22.8871 30.16 22.515 29.8615 22.23C29.5631 21.9371 29.192 21.7946 28.7403 21.7946H18.0766C17.6572 21.7946 17.2942 21.6442 16.9796 21.3354C16.665 21.0267 16.5118 20.6704 16.5118 20.2588V17.7492C16.5118 17.3375 16.665 16.9812 16.9796 16.6725C17.2942 16.3637 17.6572 16.2133 18.0766 16.2133H23.6182V16.2054Z" fill="currentColor"></path>
</svg>