<svg width="154" height="19" viewBox="0 0 154 19" fill="none" xmlns="http://www.w3.org/2000/svg">
<g clip-path="url(#clip0_60_270)">
<g opacity="0.7">
<path d="M33.1504 17.83V0.119999H36.9804V7.08H45.2704V0.119999H49.1004V17.83H45.2704V10.59H36.9804V17.83H33.1504Z" fill="#333333"/>
<path d="M51.1807 14.21C51.2307 11.02 54.3707 10.29 56.8507 9.96C58.7607 9.71 59.9707 9.53 59.9707 8.49C59.9707 7.58 59.3607 7.02 57.9607 7.02C56.4107 7.02 55.4607 7.85 55.3107 9.07H51.4807C51.7707 6.03 54.4007 3.93 58.0107 3.93C61.8107 3.93 63.6507 5.9 63.6507 8.76V14.38C63.6507 14.73 63.8207 14.91 64.2607 14.91H64.9207V17.82H63.3307C62.1007 17.82 61.2007 17.39 60.7507 16.61C60.6507 16.46 60.5807 16.28 60.5307 16.1C59.7707 17.42 58.4007 18.18 56.2407 18.18C53.2007 18.18 51.1407 16.79 51.1907 14.21H51.1807ZM59.9707 13.2V11.18C59.5807 11.96 58.5207 12.17 57.3407 12.34C55.8907 12.57 54.9807 12.77 54.9807 13.88C54.9807 14.82 55.5907 15.3 57.1107 15.3C58.6307 15.3 59.9607 14.57 59.9607 13.2H59.9707Z" fill="#333333"/>
<path d="M69.9503 17.83L64.5303 4.42H68.6003L71.8903 13.25L75.1803 4.42H79.2803L73.8603 17.83H69.9603H69.9503Z" fill="#333333"/>
<path d="M79.3906 11.18C79.3906 6.9 82.1606 3.94 86.1106 3.94C90.0606 3.94 92.5106 6.75 92.5906 11.15V12.01H83.1206C83.3906 13.83 84.6406 15.07 86.4106 15.07C87.6106 15.07 88.5206 14.51 88.8906 13.55H92.5506C91.8106 16.56 89.5306 18.28 86.3706 18.28C82.2706 18.28 79.4006 15.37 79.4006 11.17L79.3906 11.18ZM88.7406 9.54C88.3706 8.05 87.4406 7.19 86.1106 7.19C84.7806 7.19 83.7106 8.1 83.2606 9.54H88.7306H88.7406Z" fill="#333333"/>
<path d="M94.6301 17.83V0.119999H99.3201L104.01 13.1L108.66 0.119999H113.35V17.83H109.52V6.9L105.57 17.83H102.4L98.4501 6.9V17.83H94.6201H94.6301Z" fill="#333333"/>
<path d="M115.381 11.03C115.381 6.73 118.251 3.95 122.321 3.95C126.391 3.95 129.261 6.94 129.261 11.03C129.261 15.43 126.411 18.29 122.321 18.29C118.231 18.29 115.381 15.25 115.381 11.03ZM125.471 11.03C125.471 8.7 124.241 7.21 122.331 7.21C120.421 7.21 119.191 8.7 119.191 11.03C119.191 13.36 120.421 15.03 122.331 15.03C124.241 15.03 125.471 13.46 125.471 11.03Z" fill="#333333"/>
<path d="M131.08 17.83V4.42H134.12L134.59 7.15C135.42 5.23 136.95 4.21 139.08 4.21H139.64V7.96H139.08C136.43 7.96 134.86 9.33 134.86 11.63V17.83H131.08Z" fill="#333333"/>
<path d="M140.28 11.18C140.28 6.9 143.05 3.94 147 3.94C150.95 3.94 153.4 6.75 153.48 11.15V12.01H144.01C144.28 13.83 145.53 15.07 147.3 15.07C148.5 15.07 149.41 14.51 149.78 13.55H153.44C152.7 16.56 150.42 18.28 147.26 18.28C143.16 18.28 140.29 15.37 140.29 11.17L140.28 11.18ZM149.63 9.54C149.26 8.05 148.33 7.19 147 7.19C145.67 7.19 144.6 8.1 144.15 9.54H149.62H149.63Z" fill="#333333"/>
</g>
<g opacity="0.7">
<path d="M6.04987 8.32C5.50987 8.32 4.97987 8.12 4.56987 7.72L0.639869 3.88C-0.200131 3.06 -0.210131 1.71 0.599869 0.869999C1.41987 0.0399987 2.76987 0.0199987 3.59987 0.839999L6.04987 3.23L8.74987 0.599999C9.58987 -0.220001 10.9299 -0.200001 11.7499 0.639999C12.5699 1.48 12.5499 2.82 11.7099 3.64L7.52987 7.72C7.11987 8.12 6.57987 8.32 6.04987 8.32Z" fill="#333333"/>
</g>
<g opacity="0.7">
<path d="M14.6999 18.08C14.1499 18.08 13.5999 17.87 13.1799 17.44C12.3599 16.6 12.3799 15.26 13.2199 14.44L17.3999 10.36C18.2199 9.55 19.5399 9.55 20.3599 10.36L24.2899 14.2C25.1299 15.02 25.1399 16.36 24.3199 17.2C23.4999 18.04 22.1599 18.05 21.3199 17.23L18.8699 14.84L16.1699 17.47C15.7599 17.87 15.2199 18.07 14.6899 18.07L14.6999 18.08Z" fill="#333333"/>
</g>
<g opacity="0.7">
<path d="M5.67996 17.74C5.10996 17.74 4.53996 17.51 4.11996 17.06C3.32996 16.2 3.37996 14.86 4.23996 14.06L18.31 1.1C19.17 0.31 20.51 0.36 21.31 1.22C22.1 2.08 22.05 3.42 21.19 4.22L7.11996 17.19C6.70996 17.57 6.19996 17.75 5.67996 17.75V17.74Z" fill="#333333"/>
</g>
</g>
<defs>
<clipPath id="clip0_60_270">
<rect width="153.48" height="18.29" fill="white"/>
</clipPath>
</defs>
</svg>
