<svg width="141" height="20" viewBox="0 0 141 20" fill="none" xmlns="http://www.w3.org/2000/svg">
<g clip-path="url(#clip0_670_21501)">
<path d="M20.1908 4.05686V0.043457H8.11211V3.68469C8.11211 3.86717 7.96216 4.01562 7.77784 4.01562H0.0874023V8.02902H7.77784C7.96216 8.02902 8.11211 8.17748 8.11211 8.35995V11.629C8.11211 11.8115 7.96216 11.96 7.77784 11.96H0.0874023V15.9734H7.77784C7.96216 15.9734 8.11211 16.1218 8.11211 16.3043V19.9455H20.1908V15.9321H8.48805C8.30373 15.9321 8.15377 15.7837 8.15377 15.6012V12.3321C8.15377 12.1496 8.30373 12.0012 8.48805 12.0012H20.1908V7.98778H8.46722C8.2829 7.98778 8.13294 7.83933 8.13294 7.65686V4.38779C8.13294 4.20531 8.2829 4.05686 8.46722 4.05686H20.1908Z" fill="white"/>
<path d="M44.5953 10.8144H31.495C31.7345 12.6887 33.3673 13.6577 36.5216 13.6577C39.6759 13.6577 40.938 12.9258 41.1775 11.9567H44.5297C44.3984 14.4124 41.4608 15.9629 36.3925 15.9629C31.3242 15.9629 28.1897 13.8093 28.1897 9.97526C28.1897 6.14124 31.1274 3.94434 36.3925 3.94434C41.6576 3.94434 44.5953 6.18454 44.5953 9.91031V10.8155V10.8144ZM31.495 9.02681H41.2431C40.938 7.17423 39.3718 6.24846 36.4352 6.24846C33.4985 6.24846 31.8001 7.23918 31.496 9.02681H31.495Z" fill="white"/>
<path d="M61.816 9.58638V15.639H58.4431V10.2977C58.4431 7.84102 56.9852 6.67813 54.5276 6.67813C51.5462 6.67813 49.9581 8.3369 49.9581 10.2534V15.639H46.606V4.30803H49.8477V6.69978C51.0015 4.97607 53.0686 3.98535 55.6804 3.98535C59.2907 3.98535 61.816 6.11731 61.816 9.58535V9.58638Z" fill="white"/>
<path d="M68.4602 13.056H77.2513V15.6405H63.7168V13.1632L72.4642 6.89514H63.848V4.30957H77.0983V6.85184L68.4591 13.056H68.4602Z" fill="white"/>
<path d="M91.4024 4.30957H95.0586L87.4432 17.6003C86.4633 19.3889 85.6802 19.9487 83.6568 19.9487H80.0672V17.4498H83.1132C84.0931 17.4498 84.3743 17.2776 84.8314 16.4374L85.3115 15.5972L78.2178 4.30957H81.9594L86.986 12.4735L91.4024 4.30957Z" fill="white"/>
<path d="M122.724 9.58638V15.639H119.372V10.2977C119.372 7.84102 117.958 6.67813 115.674 6.67813C112.736 6.67813 111.321 8.35855 111.321 10.2534V15.639H107.949V10.2977C107.949 7.84102 106.578 6.67813 104.25 6.67813C101.421 6.67813 99.8985 8.35855 99.8985 10.2534V15.639H96.5464V4.30803H99.7881V6.69978C100.899 4.97607 102.9 3.98535 105.403 3.98535C107.907 3.98535 109.82 5.08329 110.734 6.95752C111.843 5.08329 113.997 3.98535 116.804 3.98535C120.22 3.98535 122.723 6.11731 122.723 9.58535L122.724 9.58638Z" fill="white"/>
<path d="M140.996 10.8144H127.896C128.135 12.6887 129.767 13.6577 132.922 13.6577C136.078 13.6577 137.339 12.9258 137.578 11.9567H140.93C140.799 14.4124 137.861 15.9629 132.793 15.9629C127.725 15.9629 124.59 13.8093 124.59 9.97526C124.59 6.14124 127.528 3.94434 132.793 3.94434C138.058 3.94434 140.996 6.18454 140.996 9.91031V10.8155V10.8144ZM127.896 9.02681H137.644C137.339 7.17423 135.772 6.24846 132.836 6.24846C129.899 6.24846 128.201 7.23918 127.897 9.02681H127.896Z" fill="white"/>
</g>
<defs>
<clipPath id="clip0_670_21501">
<rect width="141" height="20" fill="white"/>
</clipPath>
</defs>
</svg>
