<svg width="136" height="20" viewBox="0 0 136 20" fill="none" xmlns="http://www.w3.org/2000/svg">
<g clip-path="url(#clip0_682_2256)">
<path d="M19.475 4.05667V0.0432739H7.82462V3.68451C7.82462 3.86698 7.67998 4.01544 7.5022 4.01544H0.0844727V8.02884H7.5022C7.67998 8.02884 7.82462 8.1773 7.82462 8.35977V11.6288C7.82462 11.8113 7.67998 11.9598 7.5022 11.9598H0.0844727V15.9732H7.5022C7.67998 15.9732 7.82462 16.1216 7.82462 16.3041V19.9453H19.475V15.9319H8.18722C8.00944 15.9319 7.8648 15.7835 7.8648 15.601V12.3319C7.8648 12.1495 8.00944 12.001 8.18722 12.001H19.475V7.9876H8.16713C7.98935 7.9876 7.84471 7.83915 7.84471 7.65668V4.3876C7.84471 4.20513 7.98935 4.05667 8.16713 4.05667H19.475Z" fill="black"/>
<path d="M43.0137 10.8144H30.378C30.609 12.6887 32.184 13.6577 35.2264 13.6577C38.2688 13.6577 39.4862 12.9258 39.7172 11.9567H42.9505C42.8239 14.4124 39.9904 15.9629 35.1018 15.9629C30.2133 15.9629 27.1899 13.8093 27.1899 9.97526C27.1899 6.14124 30.0234 3.94434 35.1018 3.94434C40.1802 3.94434 43.0137 6.18454 43.0137 9.91031V10.8155V10.8144ZM30.378 9.02681H39.7805C39.4862 7.17423 37.9755 6.24846 35.143 6.24846C32.3105 6.24846 30.6723 7.23918 30.379 9.02681H30.378Z" fill="black"/>
<path d="M59.6243 9.58663V15.6392H56.371V10.298C56.371 7.84127 54.9648 6.67838 52.5943 6.67838C49.7186 6.67838 48.1869 8.33714 48.1869 10.2536V15.6392H44.9536V4.30828H48.0804V6.70003C49.1933 4.97632 51.1871 3.9856 53.7062 3.9856C57.1886 3.9856 59.6243 6.11755 59.6243 9.58559V9.58663Z" fill="black"/>
<path d="M66.0322 13.0557H74.5116V15.6402H61.457V13.1629L69.8943 6.89488H61.5836V4.30931H74.364V6.85158L66.0312 13.0557H66.0322Z" fill="black"/>
<path d="M88.161 4.30931H91.6875L84.3421 17.6C83.3969 19.3887 82.6416 19.9485 80.69 19.9485H77.2277V17.4495H80.1657C81.1109 17.4495 81.382 17.2774 81.823 16.4371L82.286 15.5969L75.4438 4.30931H79.0528L83.9012 12.4732L88.161 4.30931Z" fill="black"/>
<path d="M118.372 9.58663V15.6392H115.139V10.298C115.139 7.84127 113.775 6.67838 111.572 6.67838C108.739 6.67838 107.374 8.35879 107.374 10.2536V15.6392H104.122V10.298C104.122 7.84127 102.799 6.67838 100.554 6.67838C97.8248 6.67838 96.3563 8.35879 96.3563 10.2536V15.6392H93.123V4.30828H96.2498V6.70003C97.3216 4.97632 99.2511 3.9856 101.666 3.9856C104.08 3.9856 105.926 5.08353 106.807 6.95776C107.877 5.08353 109.955 3.9856 112.662 3.9856C115.957 3.9856 118.371 6.11755 118.371 9.58559L118.372 9.58663Z" fill="black"/>
<path d="M135.996 10.8145H123.36C123.591 12.6887 125.165 13.6578 128.209 13.6578C131.252 13.6578 132.469 12.9258 132.7 11.9567H135.933C135.806 14.4124 132.973 15.9629 128.084 15.9629C123.196 15.9629 120.172 13.8093 120.172 9.97531C120.172 6.14129 123.006 3.94438 128.084 3.94438C133.163 3.94438 135.996 6.18459 135.996 9.91036V10.8155V10.8145ZM123.36 9.02685H132.763C132.469 7.17428 130.958 6.2485 128.125 6.2485C125.293 6.2485 123.655 7.23923 123.361 9.02685H123.36Z" fill="black"/>
</g>
<defs>
<clipPath id="clip0_682_2256">
<rect width="136" height="20" fill="white"/>
</clipPath>
</defs>
</svg>
