<svg width="1412" height="882" viewBox="0 0 1412 882" fill="none" xmlns="http://www.w3.org/2000/svg">
<path d="M252.348 456.916L267.741 436.137C268.738 434.792 270.852 435.351 271.073 437.016C275.77 472.283 323.651 484.908 344.924 455.335L393.651 389.559C394.395 388.556 395.986 389.08 395.986 390.331V428.835C395.986 430.433 395.472 431.991 394.519 433.274L367.233 470.042C338.68 511.138 274.999 506.832 251.861 463.103C250.815 461.124 251.014 458.718 252.348 456.916Z" fill="black"/>
<path d="M371.062 405.639L355.58 426.534C354.583 427.879 352.474 427.319 352.248 425.659C347.511 390.52 299.888 377.878 278.539 407.224L251.147 444.138L230.34 472.499C229.6 473.511 228 472.983 228 471.731V432.992C228 431.394 228.514 429.841 229.462 428.558L254.524 394.733C281.579 351.231 348.397 354.898 371.567 399.483C372.595 401.458 372.387 403.851 371.062 405.639Z" fill="black"/>
<path d="M448.72 485.069V372.071H469.846V467.151H526.612V485.069H487.666H448.72Z" fill="black"/>
<path d="M572.815 487.975C549.108 487.975 532.498 472.155 532.498 446.004C532.498 420.176 549.27 403.711 572.815 403.711C596.521 403.711 613.292 420.176 613.292 446.004C613.292 472.155 596.521 487.975 572.815 487.975ZM572.815 472.478C585.071 472.478 593.295 462.792 593.295 446.004C593.295 428.893 584.909 419.369 572.815 419.369C560.881 419.369 552.495 428.893 552.495 446.004C552.495 462.792 560.558 472.478 572.815 472.478Z" fill="black"/>
<path d="M664.629 487.975C640.923 487.975 624.313 472.155 624.313 446.004C624.313 420.176 641.084 403.711 664.629 403.711C688.335 403.711 705.107 420.176 705.107 446.004C705.107 472.155 688.335 487.975 664.629 487.975ZM664.629 472.478C676.886 472.478 685.11 462.792 685.11 446.004C685.11 428.893 676.724 419.369 664.629 419.369C652.696 419.369 644.31 428.893 644.31 446.004C644.31 462.792 652.373 472.478 664.629 472.478Z" fill="black"/>
<path d="M720.804 518V406.293H740.479V409.845C740.479 412.266 740.317 414.365 739.834 417.593C744.833 409.199 753.219 403.711 765.636 403.711C786.44 403.711 800.147 421.145 800.147 446.166C800.147 471.671 784.827 487.975 764.83 487.975C751.606 487.975 744.833 482.325 739.834 474.254C740.317 477.482 740.479 479.581 740.479 481.841V518H720.804ZM759.992 472.478C772.087 472.478 780.15 461.662 780.15 445.843C780.15 430.346 772.571 419.369 759.992 419.369C748.219 419.369 739.672 429.539 739.672 445.843C739.672 461.662 748.058 472.478 759.992 472.478Z" fill="black"/>
<path d="M847.054 487.975C824.8 487.975 811.092 476.352 809.802 457.95H829.799C830.283 467.312 836.088 473.285 846.571 473.285C855.44 473.285 861.084 469.088 861.084 463.115C861.084 457.788 856.569 455.367 848.183 453.753L838.668 451.816C822.219 448.587 812.866 440.839 812.866 427.763C812.866 414.042 825.767 403.711 845.119 403.711C866.245 403.711 879.469 414.688 879.953 431.153H860.278C859.633 423.405 853.989 418.4 845.119 418.4C837.862 418.4 832.218 421.306 832.218 426.956C832.218 431.637 835.282 434.059 845.28 435.996L854.795 437.933C870.277 441 880.437 448.103 880.437 461.985C880.437 476.998 867.374 487.975 847.054 487.975Z" fill="black"/>
<path d="M931.4 487.975C906.404 487.975 891.568 471.832 891.568 445.681C891.568 419.369 909.468 403.711 932.368 403.711C955.268 403.711 967.685 417.593 969.621 435.996H949.624C948.979 427.117 943.495 419.369 932.368 419.369C920.918 419.369 911.565 428.732 911.565 445.843C911.565 461.501 919.789 472.478 931.884 472.478C943.818 472.478 949.462 464.407 950.43 455.044H970.427C967.685 475.061 954.784 487.975 931.4 487.975Z" fill="black"/>
<path d="M1007.81 487.975C994.102 487.975 980.716 478.935 980.716 463.438C980.716 445.681 994.424 439.547 1011.36 437.287L1022.65 435.834C1029.1 435.027 1031.35 432.606 1031.35 428.732C1031.35 423.243 1026.84 418.4 1018.45 418.4C1009.26 418.4 1003.46 423.566 1002.65 431.799H982.329C983.619 415.333 997.004 403.711 1017.32 403.711C1041.35 403.711 1051.03 416.625 1051.03 438.74V485.069H1032.81V481.841C1032.81 479.258 1033.13 476.836 1033.61 474.254C1029.42 482.002 1021.36 487.975 1007.81 487.975ZM1013.13 473.447C1023.61 473.447 1032 465.698 1032 454.56V446.004C1030.23 447.618 1027.48 448.426 1022.65 449.394L1016.2 450.686C1007 452.461 1000.71 455.528 1000.71 462.631C1000.71 469.572 1006.2 473.447 1013.13 473.447Z" fill="black"/>
<path d="M1070.27 485.069V372.071H1089.94V485.069H1070.27Z" fill="black"/>
<path d="M1145.75 487.975C1122.2 487.975 1105.59 472.801 1105.59 445.52C1105.59 420.66 1122.2 403.711 1145.1 403.711C1169.13 403.711 1183 420.499 1183 446.166V450.524H1125.75C1125.91 462.954 1133.81 472.478 1145.75 472.478C1154.29 472.478 1161.23 467.635 1162.52 459.403H1182.52C1180.9 475.545 1167.03 487.975 1145.75 487.975ZM1162.84 436.319C1162.52 425.665 1155.58 418.4 1144.94 418.4C1134.3 418.4 1126.72 425.987 1125.59 436.319H1162.84Z" fill="black"/>
</svg>
