<svg width="400" height="400" viewBox="0 0 400 400" fill="none" xmlns="http://www.w3.org/2000/svg">
<path d="M93.5739 245.771L121.04 208.7C122.819 206.3 126.59 207.298 126.986 210.268C135.366 273.188 220.801 295.712 258.759 242.952L345.703 125.6C347.032 123.81 349.87 124.745 349.87 126.978V195.672C349.87 198.523 348.952 201.303 347.253 203.591L298.566 269.189C247.618 342.509 133.99 334.827 92.7041 256.811C90.8382 253.279 91.1942 248.986 93.5739 245.771Z" fill="black"/>
<path d="M305.398 154.289L277.774 191.566C275.995 193.966 272.23 192.968 271.828 190.006C263.375 127.315 178.4 104.76 140.307 157.116L91.4311 222.975L54.3034 273.573C52.9831 275.379 50.1289 274.437 50.1289 272.204V203.089C50.1289 200.238 51.046 197.466 52.738 195.178L97.4556 134.831C145.731 57.2191 264.956 63.7607 306.299 143.305C308.133 146.829 307.762 151.098 305.398 154.289Z" fill="black"/>
</svg>
