<svg xmlns="http://www.w3.org/2000/svg" viewBox="0 0 62.03 26" id="svg8699573535">
  <path d="M 18.819 17.617 C 18.819 19.329 19.824 20.216 20.951 20.239 C 22.017 20.219 22.973 19.424 23.074 17.892 C 23.071 17.801 23.069 17.709 23.069 17.618 L 23.069 0.865 L 29.214 0.865 L 29.214 17.617 C 29.214 17.707 29.213 17.798 29.21 17.889 C 29.26 18.633 29.514 19.196 29.859 19.578 C 30.242 20.002 30.77 20.239 31.377 20.239 L 31.377 25.919 C 29.394 25.919 27.572 25.22 26.142 24.057 C 24.909 25.06 23.385 25.717 21.717 25.88 C 21.198 25.92 20.691 25.916 20.187 25.88 C 15.986 25.472 12.69 21.921 12.69 17.617 L 12.69 0.865 L 18.821 0.865 L 18.821 17.617 Z" fill="var(--token-2f366c18-a12c-492e-8f88-745c7ae54c1b, rgb(171, 255, 123)) /* {&quot;name&quot;:&quot;Primary Brand&quot;} */"/>
  <path d="M 6.132 17.617 C 6.132 18.496 6.404 19.151 6.789 19.578 C 7.173 20.002 7.7 20.239 8.307 20.239 L 11.246 20.239 L 11.246 25.919 L 8.307 25.919 C 3.728 25.919 0 22.194 0 17.615 L 0 0.865 L 6.13 0.865 L 6.13 17.617 Z" fill="var(--token-2f366c18-a12c-492e-8f88-745c7ae54c1b, rgb(171, 255, 123)) /* {&quot;name&quot;:&quot;Primary Brand&quot;} */"/>
  <path d="M 38.949 17.617 C 38.949 18.496 39.221 19.151 39.606 19.578 C 39.99 20.002 40.517 20.239 41.124 20.239 L 44.063 20.239 L 44.063 25.919 L 41.124 25.919 C 36.545 25.919 32.817 22.194 32.817 17.615 L 32.817 0.865 L 38.947 0.865 L 38.947 17.617 Z" fill="var(--token-2f366c18-a12c-492e-8f88-745c7ae54c1b, rgb(171, 255, 123)) /* {&quot;name&quot;:&quot;Primary Brand&quot;} */"/>
  <path d="M 62.02 7.889 C 62.017 7.829 62.013 7.767 62.008 7.705 C 62.003 7.611 61.994 7.517 61.984 7.425 C 61.978 7.368 61.972 7.31 61.964 7.252 C 61.965 7.251 61.964 7.251 61.964 7.249 C 61.961 7.221 61.957 7.19 61.952 7.16 C 61.944 7.101 61.935 7.043 61.926 6.984 C 61.92 6.954 61.916 6.925 61.912 6.895 C 61.906 6.866 61.902 6.837 61.896 6.808 C 61.886 6.749 61.874 6.692 61.863 6.634 C 61.84 6.519 61.814 6.403 61.785 6.29 C 61.743 6.12 61.696 5.951 61.642 5.784 C 61.608 5.673 61.57 5.563 61.53 5.454 C 61.51 5.399 61.489 5.344 61.468 5.291 C 61.448 5.236 61.426 5.183 61.403 5.13 C 61.36 5.023 61.314 4.918 61.265 4.813 C 61.215 4.709 61.165 4.605 61.113 4.503 C 61.086 4.452 61.06 4.402 61.032 4.351 C 61.005 4.301 60.978 4.25 60.949 4.2 C 60.893 4.101 60.833 4.003 60.773 3.906 C 60.771 3.902 60.769 3.897 60.766 3.893 C 60.646 3.703 60.519 3.52 60.386 3.341 C 60.352 3.294 60.316 3.246 60.28 3.2 C 60.245 3.157 60.211 3.113 60.176 3.07 C 60.14 3.027 60.104 2.982 60.068 2.939 C 59.994 2.853 59.918 2.766 59.841 2.683 C 59.765 2.599 59.686 2.517 59.605 2.436 C 59.566 2.396 59.524 2.355 59.484 2.317 C 59.444 2.276 59.402 2.237 59.36 2.2 C 59.318 2.161 59.276 2.122 59.233 2.085 C 59.201 2.057 59.17 2.028 59.138 2.001 C 59.079 1.949 59.02 1.9 58.959 1.851 C 58.919 1.819 58.88 1.788 58.839 1.756 C 58.795 1.721 58.75 1.687 58.704 1.652 C 58.62 1.589 58.534 1.527 58.447 1.466 C 58.44 1.461 58.433 1.456 58.426 1.452 C 58.338 1.391 58.248 1.332 58.159 1.276 C 58.149 1.269 58.139 1.262 58.129 1.256 C 58.044 1.203 57.957 1.151 57.871 1.1 C 57.813 1.066 57.754 1.033 57.695 1.002 C 57.604 0.953 57.513 0.904 57.419 0.86 C 57.357 0.828 57.295 0.798 57.233 0.769 C 57.183 0.744 57.131 0.721 57.079 0.698 C 57.076 0.695 57.073 0.694 57.07 0.694 C 57.02 0.672 56.969 0.651 56.918 0.629 C 56.864 0.606 56.811 0.584 56.758 0.563 C 56.7 0.54 56.642 0.518 56.583 0.496 C 56.478 0.459 56.373 0.421 56.266 0.387 C 56.211 0.37 56.155 0.352 56.099 0.335 C 56.042 0.319 55.986 0.302 55.93 0.287 C 55.89 0.276 55.851 0.266 55.81 0.254 C 55.702 0.227 55.594 0.201 55.485 0.178 C 55.446 0.169 55.408 0.161 55.371 0.153 C 55.327 0.145 55.286 0.136 55.242 0.129 C 55.009 0.084 54.772 0.051 54.533 0.028 C 54.07 -0.007 53.607 -0.009 53.134 0.021 L 53.12 0.021 C 53.081 0.024 53.044 0.025 53.005 0.028 C 52.99 0.028 52.974 0.031 52.96 0.032 C 52.92 0.037 52.879 0.041 52.837 0.045 C 52.79 0.051 52.742 0.058 52.693 0.064 C 52.643 0.071 52.591 0.079 52.539 0.086 C 52.438 0.102 52.337 0.12 52.238 0.139 C 52.186 0.149 52.134 0.159 52.083 0.171 C 52.033 0.181 51.983 0.192 51.932 0.204 C 51.883 0.215 51.833 0.227 51.784 0.24 C 51.733 0.253 51.684 0.266 51.635 0.279 C 51.586 0.292 51.537 0.306 51.488 0.321 C 51.39 0.348 51.293 0.378 51.197 0.411 C 51.149 0.427 51.1 0.443 51.053 0.46 C 51.005 0.478 50.957 0.495 50.91 0.512 C 50.864 0.53 50.816 0.548 50.768 0.567 C 50.722 0.584 50.675 0.605 50.629 0.623 C 50.548 0.656 50.469 0.691 50.389 0.727 C 50.296 0.77 50.205 0.813 50.113 0.86 C 50.102 0.865 50.091 0.87 50.081 0.875 C 50.004 0.913 49.929 0.953 49.854 0.995 C 49.826 1.009 49.797 1.025 49.768 1.043 C 49.697 1.082 49.627 1.123 49.556 1.165 C 49.485 1.208 49.413 1.252 49.343 1.298 C 49.305 1.322 49.266 1.347 49.229 1.371 C 49.079 1.472 48.932 1.576 48.788 1.685 C 48.724 1.734 48.659 1.785 48.597 1.835 C 48.591 1.841 48.586 1.845 48.58 1.85 C 46.987 3.145 45.881 5.019 45.588 7.149 C 45.562 7.333 45.542 7.522 45.529 7.711 C 45.525 7.775 45.521 7.843 45.518 7.908 C 45.515 7.974 45.512 8.041 45.51 8.107 C 45.508 8.169 45.508 8.229 45.508 8.291 L 45.508 17.621 C 45.508 17.751 45.51 17.879 45.518 18.006 L 45.518 18.013 C 45.521 18.073 45.525 18.136 45.529 18.197 C 45.535 18.291 45.544 18.385 45.554 18.477 C 45.562 18.566 45.572 18.654 45.585 18.742 C 45.597 18.832 45.61 18.92 45.626 19.006 C 45.63 19.036 45.636 19.065 45.642 19.094 C 45.652 19.153 45.663 19.211 45.675 19.268 C 45.685 19.316 45.695 19.365 45.705 19.412 C 45.708 19.432 45.712 19.451 45.718 19.47 C 45.73 19.518 45.741 19.565 45.753 19.613 C 45.795 19.783 45.842 19.951 45.895 20.118 C 45.93 20.229 45.967 20.339 46.008 20.448 C 46.028 20.503 46.048 20.558 46.07 20.611 C 46.09 20.666 46.112 20.719 46.135 20.773 C 46.178 20.879 46.224 20.985 46.273 21.09 C 46.322 21.193 46.373 21.297 46.425 21.4 C 46.452 21.45 46.478 21.5 46.505 21.551 C 46.533 21.601 46.56 21.652 46.589 21.702 C 46.645 21.802 46.704 21.9 46.765 21.996 C 46.766 22.001 46.769 22.005 46.772 22.009 C 46.892 22.199 47.019 22.382 47.151 22.561 C 47.186 22.609 47.222 22.656 47.258 22.702 L 47.362 22.832 C 47.398 22.875 47.434 22.92 47.47 22.963 C 47.543 23.05 47.62 23.136 47.696 23.22 C 47.773 23.303 47.852 23.385 47.933 23.466 C 47.972 23.506 48.013 23.547 48.054 23.586 C 48.094 23.626 48.136 23.665 48.178 23.702 C 48.22 23.741 48.261 23.78 48.305 23.818 C 48.336 23.845 48.368 23.874 48.4 23.901 C 48.459 23.953 48.518 24.002 48.579 24.051 C 48.619 24.083 48.658 24.115 48.698 24.146 C 48.743 24.181 48.788 24.216 48.834 24.25 C 48.917 24.313 49.004 24.376 49.09 24.436 C 49.098 24.442 49.105 24.446 49.112 24.45 C 49.2 24.511 49.289 24.57 49.379 24.626 C 49.389 24.633 49.399 24.641 49.409 24.646 C 49.494 24.7 49.581 24.752 49.667 24.802 C 49.725 24.837 49.784 24.87 49.843 24.9 C 49.934 24.949 50.025 24.998 50.118 25.043 C 50.18 25.074 50.242 25.105 50.304 25.134 C 50.355 25.158 50.407 25.181 50.459 25.204 C 50.461 25.207 50.464 25.208 50.467 25.208 C 50.518 25.23 50.568 25.252 50.62 25.273 C 50.673 25.296 50.727 25.318 50.78 25.34 C 50.838 25.363 50.895 25.384 50.954 25.406 C 51.06 25.443 51.165 25.481 51.272 25.515 C 51.326 25.533 51.383 25.55 51.439 25.567 C 51.495 25.583 51.551 25.6 51.608 25.615 C 51.648 25.626 51.687 25.636 51.727 25.648 C 51.835 25.675 51.944 25.701 52.053 25.724 C 52.092 25.733 52.13 25.742 52.167 25.749 C 52.21 25.758 52.252 25.766 52.295 25.773 C 52.529 25.818 52.765 25.851 53.005 25.874 L 53.006 25.874 C 53.469 25.909 53.932 25.912 54.405 25.881 L 54.419 25.881 C 54.458 25.878 54.495 25.877 54.534 25.874 C 54.549 25.873 54.565 25.871 54.579 25.87 C 54.619 25.866 54.66 25.861 54.702 25.857 C 54.749 25.851 54.797 25.844 54.846 25.838 C 54.896 25.831 54.948 25.824 55 25.817 C 55.101 25.801 55.202 25.782 55.301 25.763 C 55.353 25.753 55.405 25.743 55.456 25.732 C 55.506 25.721 55.557 25.71 55.607 25.698 C 55.656 25.687 55.707 25.675 55.756 25.662 C 55.806 25.649 55.855 25.636 55.904 25.623 C 55.953 25.611 56.002 25.596 56.051 25.582 C 56.149 25.554 56.246 25.524 56.342 25.491 C 56.39 25.475 56.439 25.459 56.487 25.442 C 56.534 25.425 56.582 25.407 56.629 25.39 C 56.675 25.373 56.723 25.354 56.771 25.335 C 56.817 25.318 56.864 25.298 56.91 25.279 C 56.991 25.246 57.07 25.211 57.15 25.175 C 57.243 25.132 57.334 25.089 57.427 25.043 C 57.437 25.037 57.448 25.033 57.458 25.027 C 57.535 24.989 57.61 24.949 57.685 24.907 C 57.713 24.893 57.742 24.877 57.771 24.86 C 57.842 24.821 57.912 24.779 57.983 24.737 C 58.054 24.694 58.126 24.651 58.196 24.605 C 58.234 24.58 58.273 24.556 58.31 24.531 C 58.46 24.43 58.607 24.326 58.752 24.217 C 58.815 24.168 58.88 24.117 58.942 24.067 C 58.948 24.061 58.953 24.057 58.959 24.053 C 59.046 23.982 59.131 23.91 59.214 23.835 C 59.298 23.762 59.38 23.687 59.461 23.61 C 59.461 23.609 59.462 23.609 59.464 23.607 C 59.787 23.299 60.085 22.965 60.353 22.607 C 60.523 22.384 60.682 22.152 60.826 21.913 C 60.885 21.816 60.942 21.72 60.995 21.622 C 61.073 21.483 61.145 21.343 61.214 21.202 C 61.243 21.14 61.272 21.078 61.299 21.016 C 61.322 20.964 61.345 20.912 61.367 20.861 C 61.388 20.809 61.412 20.755 61.432 20.704 C 61.462 20.632 61.491 20.557 61.518 20.483 C 61.53 20.45 61.543 20.417 61.553 20.384 C 61.563 20.356 61.572 20.329 61.582 20.301 C 61.582 20.301 61.582 20.3 61.583 20.299 C 61.589 20.286 61.593 20.274 61.596 20.261 C 61.606 20.231 61.616 20.201 61.626 20.17 C 61.638 20.133 61.651 20.095 61.661 20.058 C 61.661 20.055 61.664 20.054 61.664 20.051 C 61.673 20.025 61.68 20 61.687 19.974 C 61.696 19.947 61.703 19.921 61.71 19.894 C 61.716 19.878 61.72 19.861 61.724 19.843 C 61.733 19.811 61.742 19.778 61.752 19.745 C 61.752 19.739 61.755 19.734 61.756 19.726 C 61.775 19.656 61.792 19.585 61.809 19.515 C 61.867 19.264 61.915 19.012 61.951 18.754 C 61.977 18.569 61.997 18.38 62.01 18.192 C 62.014 18.127 62.019 18.059 62.021 17.994 C 62.024 17.928 62.027 17.862 62.029 17.795 C 62.032 17.733 62.032 17.673 62.032 17.611 L 62.032 8.291 C 62.032 8.157 62.029 8.023 62.021 7.889 Z M 55.9 17.605 C 55.9 19.317 54.895 20.205 53.769 20.228 C 52.641 20.205 51.637 19.317 51.637 17.605 L 51.637 8.293 C 51.637 6.581 52.641 5.693 53.769 5.67 C 54.878 5.692 55.868 6.553 55.9 8.212 Z" fill="var(--token-2f366c18-a12c-492e-8f88-745c7ae54c1b, rgb(171, 255, 123)) /* {&quot;name&quot;:&quot;Primary Brand&quot;} */"/>
</svg>
