<svg width="1088" height="1088" viewBox="0 0 1088 1088" fill="none" xmlns="http://www.w3.org/2000/svg">
<g clip-path="url(#clip0_44_575)" filter="url(#filter0_d_44_575)">
<rect x="4" width="1080" height="1080" rx="540" fill="#FFF7ED"/>
<rect x="695.875" y="312.188" width="151.875" height="75.9375" fill="#498448"/>
<rect x="771.812" y="312.188" width="75.9375" height="75.9375" fill="#3D783D"/>
<rect x="240.25" y="767.812" width="75.9375" height="75.9375" fill="#F98635"/>
<rect x="316.188" y="615.938" width="151.875" height="151.875" fill="#F98635"/>
<rect x="392.125" y="540" width="151.875" height="151.875" fill="#F98635"/>
<rect x="468.062" y="464.062" width="151.875" height="151.875" fill="#F98635"/>
<rect x="392.125" y="691.875" width="75.9375" height="75.9375" fill="#EA7928"/>
<rect x="468.062" y="615.938" width="75.9375" height="75.9375" fill="#EA7928"/>
<rect x="544" y="540" width="75.9375" height="75.9375" fill="#EA7928"/>
<rect x="468.062" y="312.188" width="151.875" height="75.9375" fill="#498448"/>
<rect x="544" y="312.188" width="75.9375" height="75.9375" fill="#3D783D"/>
<rect x="544" y="236.25" width="75.9375" height="75.9375" fill="#498448"/>
<rect x="695.875" y="236.25" width="75.9375" height="151.875" fill="#498448"/>
<rect x="619.938" y="388.125" width="75.9375" height="75.9375" fill="#498448"/>
<rect x="695.875" y="464.062" width="75.9375" height="75.9375" fill="#498448"/>
<rect x="771.812" y="464.062" width="75.9375" height="151.875" fill="#498448"/>
<rect x="771.812" y="540" width="75.9375" height="75.9375" fill="#3D783D"/>
</g>
<defs>
<filter id="filter0_d_44_575" x="0" y="0" width="1088" height="1088" filterUnits="userSpaceOnUse" color-interpolation-filters="sRGB">
<feFlood flood-opacity="0" result="BackgroundImageFix"/>
<feColorMatrix in="SourceAlpha" type="matrix" values="0 0 0 0 0 0 0 0 0 0 0 0 0 0 0 0 0 0 127 0" result="hardAlpha"/>
<feOffset dy="4"/>
<feGaussianBlur stdDeviation="2"/>
<feComposite in2="hardAlpha" operator="out"/>
<feColorMatrix type="matrix" values="0 0 0 0 0 0 0 0 0 0 0 0 0 0 0 0 0 0 0.25 0"/>
<feBlend mode="normal" in2="BackgroundImageFix" result="effect1_dropShadow_44_575"/>
<feBlend mode="normal" in="SourceGraphic" in2="effect1_dropShadow_44_575" result="shape"/>
</filter>
<clipPath id="clip0_44_575">
<rect width="1080" height="1080" fill="white" transform="translate(4)"/>
</clipPath>
</defs>
</svg>
