<svg width="83" height="107" viewBox="0 0 83 107" fill="none" xmlns="http://www.w3.org/2000/svg">
<path d="M41.5 0C18.6158 0 0 18.5774 0 41.416V65.584C0 88.4199 18.6158 107 41.5 107C64.3842 107 83 88.4226 83 65.584V41.416C83 18.5774 64.3842 0 41.5 0ZM79.6253 41.416V65.584C79.6253 66.2848 79.6039 66.9803 79.5666 67.6705C79.5639 67.7293 79.5132 67.7775 79.4545 67.7775H69.8799C69.8185 67.7775 69.7705 67.7293 69.7705 67.6678C69.5571 57.8267 64.2642 49.2214 56.4076 44.3477C56.3355 44.3022 56.3355 44.1952 56.4102 44.1551C61.399 41.4802 69.4637 39.6051 79.4519 39.2841C79.5132 39.2841 79.5666 39.3295 79.5692 39.3911C79.6039 40.0625 79.6253 40.7366 79.6253 41.416ZM7.0216 25.1872C7.974 23.1836 9.0918 21.2711 10.3643 19.4762C10.3963 19.4307 10.455 19.4147 10.5057 19.4387C18.9973 23.2933 24.4475 30.2856 27.833 37.9573C27.8836 38.075 27.7289 38.1713 27.6462 38.075C22.5641 32.265 15.8279 27.4181 7.09896 25.3423C7.0296 25.3263 6.99225 25.2487 7.02427 25.1845L7.0216 25.1872ZM23.9914 39.2841C18.6478 37.4277 11.7489 36.2667 3.88429 36.0447C3.81759 36.0447 3.76691 35.9832 3.77491 35.9163C4.15107 33.3297 4.78867 30.8259 5.66103 28.4345C5.67971 28.381 5.7384 28.3489 5.79442 28.3623C13.3949 30.0582 19.4161 34.0733 24.1087 39.1022C24.1888 39.1878 24.1007 39.3242 23.9914 39.2841ZM29.7591 46.5786C30.0072 46.9852 30.2473 47.3945 30.4821 47.8037C31.0663 48.8229 31.4611 49.941 31.6479 51.1019C32.0134 53.3622 32.2348 55.537 32.3522 57.5539C32.5229 62.5346 32.0774 68.5157 30.2446 74.4514C29.8231 75.813 29.3376 77.1638 28.78 78.4932C28.748 78.5735 28.6386 78.5895 28.5853 78.52C26.3497 75.7086 25.0104 72.1536 25.0104 68.291C25.0104 62.7085 27.8036 57.7732 32.0641 54.7826C32.0961 54.7586 32.1147 54.7211 32.1121 54.681C31.9947 53.5629 31.848 52.4126 31.6612 51.2357C31.6479 51.1581 31.5598 51.1126 31.4905 51.1527C25.6054 54.6061 21.6384 60.9911 21.6384 68.283C21.6384 79.2369 30.5674 88.1471 41.5427 88.1471C52.5179 88.1471 61.447 79.2369 61.447 68.283C61.447 60.935 57.4213 54.5125 51.4615 51.0725C51.4215 51.0484 51.4001 51.0056 51.4081 50.9575C51.4081 50.9521 51.4081 50.9468 51.4108 50.9414C51.5869 49.8715 51.9577 48.8443 52.4939 47.9027C52.7527 47.4506 53.0195 46.9986 53.2916 46.5492C53.3236 46.4984 53.3903 46.4796 53.4437 46.5091C61.1589 50.7221 66.4091 58.9074 66.4091 68.2884C66.4091 81.968 55.2604 93.0957 41.5534 93.0957C27.8463 93.0957 16.6976 81.968 16.6976 68.2884C16.6976 58.9234 21.9212 50.7622 29.6097 46.5385C29.6631 46.5091 29.7297 46.5278 29.7618 46.5786H29.7591ZM55.1884 37.9573C58.5711 30.2909 64.0134 23.3013 72.4969 19.4468C72.5476 19.4254 72.6063 19.4414 72.6383 19.4842C73.9109 21.2791 75.0287 23.1863 75.9784 25.1898C76.0077 25.254 75.9704 25.3316 75.9037 25.3477C67.1854 27.4261 60.4546 32.2704 55.3778 38.075C55.2924 38.1713 55.1377 38.075 55.1911 37.9573H55.1884ZM77.3416 28.4372C78.2167 30.834 78.8516 33.343 79.2278 35.9351C79.2384 36.0019 79.1851 36.0608 79.1184 36.0634C71.083 36.3416 64.0801 37.5989 58.7605 39.581C58.6512 39.6211 58.5605 39.4874 58.6405 39.3991C63.3651 34.2338 69.4637 30.0957 77.2082 28.3623C77.2643 28.3489 77.3203 28.381 77.3416 28.4345V28.4372ZM51.3815 51.0992C51.2854 51.6931 51.2 52.2816 51.12 52.862C51.1974 52.2816 51.2827 51.6931 51.3815 51.0992ZM51.112 52.9289C51.0373 53.496 50.9706 54.055 50.9119 54.6088C50.9706 54.0577 51.0373 53.496 51.112 52.9289ZM50.6692 57.5886C50.7198 56.7193 50.7892 55.8232 50.8826 54.9003C50.8906 54.8147 50.992 54.7666 51.0613 54.8174C55.3004 57.808 58.0749 62.7325 58.0749 68.2964C58.0749 72.1804 56.7224 75.7541 54.4627 78.5762C54.4094 78.643 54.3 78.627 54.268 78.5494C53.7024 77.2039 53.2062 75.8344 52.7794 74.4594C50.9519 68.5398 50.5011 62.5694 50.6718 57.594L50.6692 57.5886ZM42.986 11.4674C42.986 11.4674 42.986 11.4567 42.986 11.4487C43.05 10.475 43.3861 9.53614 43.9624 8.73633C44.6773 7.74928 45.5817 6.59371 46.39 5.65481C46.8943 5.069 47.4358 4.50191 48.004 3.96693C48.0307 3.94285 48.0681 3.93215 48.1028 3.9375C50.4397 4.34677 52.702 4.96735 54.8709 5.78321C54.9536 5.8153 54.967 5.92765 54.8949 5.98115C51.4321 8.45814 48.711 11.0983 46.6088 14.2333C45.2082 16.3278 44.1064 18.6149 43.2314 21.1748C43.1914 21.2951 43.0153 21.2684 43.0153 21.14V12.3181C43.0153 12.0292 43.0046 11.7456 42.9833 11.4621L42.986 11.4674ZM44.5466 29.5981C45.4456 23.8363 46.9316 19.5645 49.2979 16.0309C51.4455 12.8236 54.3907 10.1139 58.4991 7.43096C58.5338 7.40956 58.5765 7.40689 58.6138 7.42294C60.3239 8.28427 61.9619 9.26864 63.5119 10.368C63.5759 10.4135 63.5732 10.5071 63.5119 10.5526C57.1545 14.87 52.1338 20.7334 48.3935 26.4578C46.7822 28.916 45.4003 31.3609 44.2451 33.6667C44.1891 33.7791 44.0237 33.7256 44.0371 33.5998C44.1811 32.1982 44.3519 30.8634 44.5493 29.5981H44.5466ZM44.0371 3.45334C44.0077 3.48811 43.9757 3.52289 43.9464 3.55766C43.3781 4.21302 42.6925 5.12785 42.0469 6.02127C41.8548 6.28609 41.6814 6.55894 41.5133 6.8398C41.3506 6.55894 41.1692 6.28342 40.9798 6.02127C40.3395 5.12785 39.6486 4.21569 39.0803 3.55766C39.051 3.52289 39.0163 3.48811 38.9869 3.45066C39.8193 3.39716 40.657 3.36507 41.5027 3.36507C42.3484 3.36507 43.202 3.39716 44.0397 3.45066L44.0371 3.45334ZM36.4125 14.236C34.3103 11.0929 31.5865 8.45279 28.1211 5.9758C28.049 5.9223 28.0597 5.80995 28.1451 5.77786C30.3167 4.96468 32.5789 4.34409 34.9159 3.93483C34.9506 3.92948 34.9879 3.94018 35.0146 3.96425C35.5829 4.49924 36.1244 5.069 36.6313 5.65481C37.4396 6.59103 38.3467 7.74661 39.059 8.73633C39.6352 9.53079 39.974 10.4697 40.0354 11.4487C40.0354 11.4541 40.0354 11.4594 40.0354 11.4674C40.014 11.751 40.0034 12.0399 40.0034 12.3234V21.1427C40.0034 21.2711 39.8273 21.2978 39.7873 21.1774C38.9176 18.6229 37.8158 16.3331 36.4099 14.2387L36.4125 14.236ZM38.9869 33.6025C39.0003 33.7256 38.8349 33.7791 38.7789 33.6694C37.6184 31.3636 36.2338 28.916 34.6305 26.4551C30.8876 20.7281 25.8668 14.8593 19.5015 10.5419C19.4375 10.4991 19.4348 10.4028 19.5015 10.3573C21.0541 9.25794 22.6921 8.27624 24.4022 7.41491C24.4395 7.39619 24.4822 7.39886 24.5169 7.42294C28.6333 10.1086 31.5785 12.8156 33.7288 16.0309C36.0951 19.5671 37.5757 23.8363 38.4801 29.5981C38.6775 30.8661 38.8482 32.1955 38.9923 33.6025H38.9869ZM16.6656 12.5722C16.703 12.5401 16.759 12.5347 16.8017 12.5615C23.191 16.6194 28.2705 22.448 32.0614 28.25C35.4308 33.4072 37.7438 38.4709 39.0483 42.1248C39.3924 43.0905 40.3102 43.7325 41.3346 43.7325H41.7321C42.7592 43.7325 43.6155 43.136 43.933 42.2345C45.2296 38.5725 47.5559 33.4554 50.9599 28.25H50.9653C54.7562 22.4507 59.8277 16.6274 66.2117 12.5695C66.2543 12.5428 66.3104 12.5454 66.3477 12.5802C67.8177 13.8428 69.1889 15.215 70.4508 16.6862C70.4988 16.7424 70.4801 16.828 70.4134 16.8601C60.9241 21.4476 55.0737 29.5955 51.6349 38.0616C49.9435 42.2158 48.9111 46.4984 48.3108 50.5322H48.2948C47.3504 56.5213 46.8116 66.0655 49.6954 75.409C50.2823 77.3082 51.0026 79.2074 51.8537 81.0665C51.875 81.1147 51.8617 81.1708 51.8216 81.2029C49.4366 83.0968 46.5208 84.3487 43.3301 84.6911V84.6964C41.8575 84.8676 39.9393 84.6964 39.4858 84.6536C36.3832 84.2684 33.5473 83.0192 31.2237 81.1601C31.1837 81.128 31.1704 81.0719 31.1917 81.0237C32.0347 79.1753 32.7523 77.2922 33.3339 75.4037C34.5371 71.509 35.1373 67.5822 35.3694 63.8908H35.3748C35.3774 63.8239 35.3801 63.7517 35.3828 63.6821C35.6816 58.5971 35.2761 53.9721 34.7345 50.5241H34.7238C34.1236 46.493 33.0912 42.2131 31.3998 38.0616C27.9503 29.5901 22.1026 21.4316 12.5999 16.8494C12.5332 16.8173 12.5146 16.7317 12.5626 16.6755C13.8244 15.207 15.1983 13.8348 16.6656 12.5722ZM3.37474 41.416C3.37474 40.354 3.4201 39.3001 3.50813 38.2596L3.48679 39.1503C3.48679 39.2118 3.53481 39.2627 3.59617 39.2653C13.659 39.5302 21.8171 41.3678 26.9179 44.016C26.9953 44.0561 26.9953 44.1658 26.9206 44.2086C18.9412 49.0556 13.5497 57.7358 13.3336 67.6678C13.3336 67.7293 13.2829 67.7775 13.2242 67.7775H3.54548C3.48679 67.7775 3.4361 67.732 3.43343 67.6705C3.39609 66.9803 3.37474 66.2848 3.37474 65.584V41.416ZM41.5 103.63C22.3453 103.63 6.44803 89.4578 3.77224 71.0703C3.76157 71.0034 3.81493 70.9392 3.88429 70.9392H13.3496C13.4056 70.9392 13.4536 70.982 13.459 71.0382C14.8515 85.2876 26.9179 96.4581 41.5507 96.4581C56.1808 96.4581 68.2498 85.2822 69.6424 71.0382C69.6478 70.982 69.6958 70.9392 69.7518 70.9392H79.1157C79.1851 70.9392 79.2384 71.0007 79.2278 71.0703C76.5546 89.4578 60.6547 103.63 41.5 103.63Z" fill="#E3D27A"/>
</svg>
