<svg width="100%" height="100%" preserveAspectRatio="none" viewBox="0 0 160 29" fill="none" xmlns="http://www.w3.org/2000/svg">
<g clip-path="url(#clip0_3111_10741)">
<path d="M17.1251 6.14185C17.1251 2.58444 14.1194 0 10.1102 0H-0.071167V22.6258H3.80767V13.8648H10.7574C12.4384 13.8648 12.9249 14.3512 12.9249 16.0322V22.6258H16.8037V15.0636C16.8037 12.9309 15.8351 11.8624 13.3766 11.8624C15.8351 11.0545 17.1251 9.01731 17.1251 6.14185ZM9.1416 10.442H3.80767V3.4575H9.1416C11.8259 3.4575 13.2463 4.58684 13.2463 6.81945C13.2463 9.05205 11.8259 10.442 9.1416 10.442Z" fill="#142215"></path>
<path d="M27.4721 6.1422C22.8505 6.1422 19.5537 9.63445 19.5537 14.5471C19.5537 19.4597 22.8505 22.9519 27.4721 22.9519C32.0937 22.9519 35.4252 19.4597 35.4252 14.5471C35.4252 9.63445 32.1284 6.1422 27.4721 6.1422ZM27.6328 19.9114H27.3418C24.9485 19.9114 23.2675 17.9394 23.2675 14.5471C23.2675 11.1547 24.9485 9.18271 27.3418 9.18271H27.6328C30.0261 9.18271 31.6723 11.1547 31.6723 14.5471C31.6723 17.9394 30.0218 19.9114 27.6328 19.9114Z" fill="#142215"></path>
<path d="M44.6991 9.18271H44.925C46.7363 9.18271 47.8352 10.312 48.0915 11.993H51.8096C51.4882 8.17934 48.8038 6.14219 44.8294 6.14219C40.1731 6.14219 37.0718 9.56929 37.0718 14.5471C37.0718 19.5248 40.1731 22.9519 44.8294 22.9519C48.8038 22.9519 51.4882 20.9148 51.8096 17.1011H48.0915C47.8309 18.7821 46.7319 19.9114 44.925 19.9114H44.6991C41.9844 19.9114 40.7856 17.4225 40.7856 14.5471C40.7856 11.6716 41.98 9.18271 44.6991 9.18271Z" fill="#142215"></path>
<path d="M69.1046 6.46327H64.4179L58.0154 12.9309V0H54.3016V22.6258H58.0154V17.5525L60.0526 15.5153L64.9652 22.6258H69.426L62.6717 12.8961L69.1046 6.46327Z" fill="#142215"></path>
<path d="M83.0688 12.0886C83.0688 8.53117 80.5148 6.14219 76.3797 6.14219C72.5008 6.14219 69.8817 8.34005 69.6254 11.3458H73.3435C73.4738 10.1166 74.6379 9.17837 76.2841 9.17837H76.4796C78.2909 9.17837 79.4202 10.3729 79.4202 12.1841V12.6359L75.1852 12.992C72.2446 13.2179 69.304 14.6079 69.304 18.1957C69.304 21.006 71.6321 22.9476 74.6075 22.9476C76.9009 22.9476 78.7122 21.8182 79.5548 20.3935C79.5853 20.88 79.62 22.0094 79.7503 22.6218H83.2426C83.0818 21.4925 83.0818 20.0374 83.0818 19.0644V12.0842L83.0688 12.0886ZM79.4159 16.354C79.4159 18.3911 77.4135 19.9114 75.4719 19.9114H75.246C73.9212 19.9114 72.9526 19.1035 72.9526 17.9698C72.9526 16.5799 74.2774 15.8675 75.7021 15.7415L79.4202 15.4201V16.3583L79.4159 16.354Z" fill="#142215"></path>
<path d="M101.883 18.7815L98.6859 6.46304H94.7419L91.7014 18.8466L88.3394 6.46304H84.5562L89.5035 22.6256H93.6734L96.7443 10.7632L99.8804 22.6256H104.015L108.802 6.46304H105.119L101.883 18.7815Z" fill="#142215"></path>
<path d="M123.056 12.0886C123.056 8.53117 120.502 6.14219 116.363 6.14219C112.484 6.14219 109.865 8.34005 109.608 11.3458H113.326C113.457 10.1166 114.621 9.17837 116.267 9.17837H116.462C118.274 9.17837 119.403 10.3729 119.403 12.1841V12.6359L115.168 12.992C112.227 13.2179 109.287 14.6079 109.287 18.1957C109.287 21.006 111.615 22.9476 114.59 22.9476C116.884 22.9476 118.695 21.8182 119.538 20.3935C119.568 20.88 119.603 22.0094 119.733 22.6218H123.225C123.065 21.4925 123.065 20.0374 123.065 19.0644V12.0842L123.056 12.0886ZM119.403 16.354C119.403 18.3911 117.401 19.9114 115.459 19.9114H115.233C113.908 19.9114 112.94 19.1035 112.94 17.9698C112.94 16.5799 114.265 15.8675 115.689 15.7415L119.407 15.4201V16.3583L119.403 16.354Z" fill="#142215"></path>
<path d="M137.509 6.46304L133.017 17.1961L128.396 6.46304H124.291L131.241 21.8177V24.1111C131.241 25.3403 130.919 25.6617 129.655 25.6617H125.26V28.9281H130.915C133.434 28.9281 134.764 27.6033 134.764 25.0493V21.6569L141.553 6.46304H137.513H137.509Z" fill="#142215"></path>
<path d="M152.919 12.3721H147.282L140.096 22.7875H144.379L150.016 14.6321L155.56 22.7875H159.999L152.919 12.3721Z" fill="#24BD40"></path>
<path d="M147.192 10.4154L152.829 10.4154L160.015 -2.86102e-06L155.732 -2.48659e-06L150.095 8.15539L144.551 -1.50909e-06L140.111 -1.12097e-06L147.192 10.4154Z" fill="#24BD40"></path>
</g>
<defs>
</defs></svg>