<svg width="500" height="502" viewBox="0 0 500 502" fill="none" xmlns="http://www.w3.org/2000/svg">
<path d="M180.146 502C176.599 502 173.053 501.781 169.506 501.38C166.467 501.051 163.463 500.577 160.459 499.957C156.045 499.045 151.811 497.841 147.758 496.418C132.161 490.982 117.686 481.825 104.151 468.764C88.7355 454.098 76.7573 436.623 67.3847 420.023C65.5392 424.802 63.6936 429.618 61.848 434.507C60.1834 438.884 58.555 443.226 56.9265 447.604C56.8541 447.786 56.7818 447.932 56.7456 448.115C56.6732 448.334 56.5646 448.589 56.4923 448.808C55.1533 452.347 53.8506 455.922 52.5116 459.534C49.9423 466.466 47.4092 473.397 44.876 480.329V480.475C43.3561 485.619 40.823 494.302 32.9703 498.862C27.1802 502.328 20.4855 502.438 15.7811 501.051C12.4519 500.066 9.55686 498.352 7.16847 496.09C5.93809 494.995 4.85246 493.718 3.87539 492.332C2.17457 489.888 -2.49364 481.643 1.70413 471.208C4.41821 461.139 8.32648 451.617 12.09 442.387C13.6099 438.593 15.1659 434.871 16.5411 431.15C17.88 427.575 19.219 423.999 20.5579 420.461C23.3082 413.164 26.0222 405.977 28.7725 398.936C33.115 387.626 37.4575 376.645 41.7639 365.882C18.2781 307.072 7.49416 246.984 3.00689 196.455C1.59557 181.206 0.727066 165.81 0.365189 150.377C0.365189 150.232 0.365189 150.122 0.365189 149.976C0.365189 149.794 0.365189 149.611 0.365189 149.429C0.329001 147.532 0.292814 145.635 0.256626 143.738C-0.0328753 128.086 0.148063 112.034 1.70413 96.0179C3.29639 78.8709 6.4809 61.8698 12.4157 45.7444C13.5737 42.4974 15.2745 38.0465 17.7353 33.1578C27.5421 13.4205 41.4382 2.47561 59.2425 0.469053C63.3317 -0.0781909 67.5295 -0.0417079 71.7996 0.469053C87.6137 2.2932 100.858 10.6478 111.244 18.82C113.56 20.6076 115.876 22.5412 118.265 24.6208C138.313 41.9502 154.525 62.6725 169.253 82.9935C172.655 87.6268 176.092 92.4425 179.675 97.5866C190.821 82.4097 203.414 67.1599 217.491 52.9315C235.223 34.763 256.176 17.9809 280.783 8.23992C305.102 -1.57399 326.561 -1.53751 344.655 3.27824C353.376 5.5037 361.952 9.00606 370.276 13.8218C398.574 30.2026 418.514 56.7622 432.735 81.899C434.653 76.8643 436.607 71.7932 438.562 66.6491C438.634 66.4302 438.706 66.2113 438.815 66.0289C438.96 65.6641 439.104 65.2992 439.213 64.9344C440.805 60.6659 442.434 56.3974 444.062 52.0194C445.329 48.6265 446.523 44.6864 447.826 40.4908C450.684 31.2242 453.905 20.7171 459.261 11.341C464.617 1.60002 474.713 -1.24564 482.747 0.469053C483.651 0.651468 484.52 0.906849 485.388 1.19871C486.221 1.49058 487.053 1.81892 487.849 2.22023C495.232 5.86853 501.311 14.1866 499.755 24.9491C498.38 35.967 493.784 46.3646 489.731 55.5583C488.211 58.9512 486.8 62.1982 485.787 64.8614C479.888 80.768 474.134 95.9814 468.344 110.83C464.979 119.513 461.577 128.05 458.248 136.441C458.248 136.477 458.248 136.55 458.284 136.587C482.892 199.265 497.041 270.187 499.538 343.992C499.538 344.138 499.538 344.284 499.538 344.43C499.538 344.54 499.538 344.613 499.538 344.722C499.538 344.977 499.538 345.233 499.538 345.525C499.538 345.525 499.538 345.598 499.538 345.634V346.583C499.538 346.583 499.538 346.619 499.538 346.656C499.538 346.947 499.538 347.239 499.538 347.531C499.538 347.641 499.538 347.75 499.538 347.823C499.538 348.005 499.538 348.224 499.538 348.443C499.538 348.699 499.538 348.918 499.538 349.173V349.282C499.574 351.07 499.61 352.894 499.646 354.682C499.972 369.093 499.936 383.868 498.814 398.717C497.33 420.059 493.748 441.292 485.642 461.03C484.52 463.802 483.326 466.393 482.059 468.801C480.105 472.668 477.644 476.79 474.605 480.73C463.567 495.251 450.684 500.139 440.661 501.416C440.588 501.416 440.552 501.416 440.48 501.416C438.743 501.635 436.969 501.781 435.16 501.818C421.807 502.255 407.983 497.002 393.038 486.349C382.471 478.797 373.026 470.15 364.268 460.811C347.622 443.262 333.509 423.671 321.314 406.013C320.952 405.503 320.554 404.955 320.192 404.445C316.573 409.224 312.846 413.93 309.046 418.564C308.829 418.855 308.576 419.147 308.322 419.439C288.347 444.649 262.364 472.96 229.433 489.158C212.714 497.622 196.177 501.854 179.82 501.854L180.146 502ZM415.329 448.224C417.681 450.048 419.925 451.654 422.169 453.076C425.498 455.156 428.393 456.579 430.998 457.418C434.907 458.622 436.173 457.856 436.861 457.418C439.141 455.995 441.891 452.529 444.605 446.692C445.184 445.451 445.763 444.065 446.342 442.569C446.523 442.131 446.668 441.657 446.849 441.219C447.066 440.636 447.247 440.052 447.464 439.432C448.151 437.425 448.767 435.419 449.382 433.339C450.829 428.195 452.132 422.175 453.218 415.244C453.978 410.464 454.557 405.539 455.063 400.176C455.678 393.719 456.076 387.042 456.33 379.819C456.511 374.346 456.583 368.691 456.547 362.891C456.547 362.745 456.547 362.599 456.547 362.416C456.547 361.942 456.547 361.504 456.547 361.03C456.547 358.549 456.475 356.032 456.402 353.514C456.257 347.385 456.004 341.293 455.678 335.236C453.181 289.815 445.51 243.81 432.735 198.28C413.737 242.898 393.074 287.517 368.937 329.837C362.025 342.168 354.823 354.244 347.296 366.028C347.875 366.904 348.491 367.779 349.07 368.655C350.553 370.844 352.001 372.996 353.484 375.112C362.459 388.1 370.529 399.118 378.635 409.333C388.442 421.738 396.873 431.223 405.124 439.176C406.825 440.818 408.453 442.314 410.046 443.7C410.697 444.284 411.349 444.831 412 445.378C413.158 446.364 414.28 447.276 415.402 448.151L415.329 448.224ZM97.0586 382.737C101.148 390.873 105.49 398.571 110.05 405.867C123.512 427.319 150.037 460.263 185.031 457.673C191.508 457.017 198.131 455.229 204.97 452.383C221.001 445.561 238.046 432.573 255.995 413.492C257.877 411.486 259.722 409.479 261.568 407.473C267.503 400.796 273.546 393.427 279.698 385.401C284.655 378.943 289.468 372.376 294.173 365.663C271.375 330.603 250.132 294.704 229.397 259.607C213.33 232.428 196.937 204.701 179.82 177.448C175.477 184.817 171.46 191.932 167.733 198.644C149.314 231.698 131.509 267.707 113.054 309.261C109.905 316.411 106.793 323.562 103.753 330.64C99.7003 340.052 95.6835 349.574 91.6667 359.315C90.8344 361.322 90.002 363.365 89.1335 365.408C91.4857 370.844 94.0912 376.681 97.0948 382.774L97.0586 382.737ZM306.223 301.782C310.964 309.516 315.777 317.287 320.59 324.948C331.193 307.364 341.108 289.341 350.481 271.136C356.452 259.461 362.206 247.677 367.742 235.857C377.803 214.186 387.501 192.041 397.127 169.64C401.759 158.841 406.391 147.824 411.023 136.587C410.516 135.383 409.973 134.179 409.431 132.939C408.345 130.531 407.223 128.123 406.101 125.751C401.723 116.485 396.367 105.868 389.853 95.3612C377.513 75.8428 354.425 47.1672 324.064 44.3945C294.137 43.1176 264.535 66.5761 243.112 89.5604C238.589 94.4126 234.21 99.4108 229.976 104.482C227.262 107.802 224.693 111.085 222.196 114.259C216.586 121.483 211.158 128.853 205.911 136.368C228.601 171.282 249.771 207.035 270.47 241.986C282.159 261.723 294.064 281.789 306.223 301.709V301.782ZM43.6456 144.467C43.6456 145.525 43.6818 146.62 43.718 147.678C44.9484 199.265 52.9459 251.727 67.5295 303.679C91.1239 248.553 118.59 190.29 153.113 136.332C151.087 133.34 149.096 130.385 147.034 127.43C145.514 125.204 143.958 122.942 142.366 120.68C139.652 116.85 136.901 113.019 134.115 109.225C127.42 100.067 120.725 91.0927 113.741 82.7016C107.625 75.4415 102.016 69.3124 96.4796 63.9129C96.0092 63.4751 95.5026 63.0008 95.0321 62.563C91.341 59.1336 87.5413 55.9231 83.633 52.9315C83.0178 52.4572 82.4388 52.0194 81.8598 51.6181C78.4944 49.1738 75.7079 47.4956 73.3919 46.3281C70.0626 44.6499 67.7466 44.1026 66.1544 43.9567C64.5259 43.8473 63.766 44.3215 63.2955 44.6134C58.2655 47.7874 50.9555 60.8118 46.8663 87.0066C46.794 87.4444 46.7216 87.8822 46.6492 88.3564C46.6492 88.3929 46.6492 88.4659 46.6492 88.5024C46.6492 88.6848 46.613 88.8307 46.5768 89.0131C46.5045 89.4509 46.4683 89.8887 46.3959 90.3265C46.3959 90.436 46.3959 90.5089 46.3597 90.6184C45.8531 94.3032 45.4188 98.1339 45.0208 102.074C44.9122 103.241 44.8036 104.445 44.6951 105.649C44.2246 111.523 43.899 117.506 43.6818 123.964C43.5371 128.962 43.4647 134.143 43.5009 139.469C43.5009 140.016 43.5009 140.527 43.5009 141.074C43.5009 142.205 43.5009 143.336 43.5371 144.467H43.6456Z" fill="#FFFA68"/>
</svg>
