<svg width="128" height="128" viewBox="0 0 128 128" fill="none" xmlns="http://www.w3.org/2000/svg">
<rect width="128" height="128" fill="#29271F"/>
<path d="M86.0371 85.34V81.05H110.237V85.34H86.0371Z" fill="#8FCB4D"/>
<path d="M52.5078 81.05V42H64.3878C72.5828 42 77.6978 46.4 77.6978 53.66C77.6978 58.225 74.7278 61.635 71.3728 62.9C75.0578 63.615 76.6528 65.705 77.0378 69.83L78.0278 81.05H73.2428L72.3078 70.435C71.9778 66.805 69.9978 65.21 65.3778 65.21H57.2378V81.05H52.5078ZM64.3878 60.7C69.7228 60.7 72.7478 58.17 72.7478 53.66C72.7478 49.15 69.7228 46.51 64.3878 46.51H57.2378V60.7H64.3878Z" fill="#F0EFEB"/>
<path d="M29.1 81.05L17 42H22.06L32.18 75.77L42.3 42H47.36L35.26 81.05H29.1Z" fill="#F0EFEB"/>
</svg>
