<svg width="1039" height="240" viewBox="0 0 1039 240" fill="none" xmlns="http://www.w3.org/2000/svg">
<path d="M979.778 193.314C972.774 193.314 966.466 192.067 960.854 189.573C955.289 187.03 950.876 183.289 947.614 178.348C944.4 173.407 942.793 167.315 942.793 160.071C942.793 153.835 943.945 148.679 946.247 144.601C948.55 140.524 951.692 137.262 955.673 134.815C959.655 132.369 964.14 130.522 969.129 129.275C974.165 127.98 979.37 127.044 984.743 126.469C991.219 125.797 996.471 125.197 1000.5 124.67C1004.53 124.094 1007.46 123.231 1009.28 122.079C1011.15 120.88 1012.09 119.033 1012.09 116.539V116.107C1012.09 110.687 1010.48 106.489 1007.26 103.515C1004.05 100.541 999.421 99.0539 993.377 99.0539C986.997 99.0539 981.937 100.445 978.195 103.227C974.501 106.01 972.007 109.295 970.712 113.085L946.391 109.631C948.31 102.915 951.476 97.303 955.889 92.7939C960.302 88.2368 965.699 84.8309 972.079 82.5764C978.459 80.2738 985.51 79.1226 993.233 79.1226C998.558 79.1226 1003.86 79.7462 1009.14 80.9934C1014.41 82.2406 1019.23 84.3033 1023.6 87.1814C1027.96 90.0117 1031.47 93.8732 1034.1 98.7661C1036.79 103.659 1038.13 109.775 1038.13 117.114V191.084H1013.09V175.901H1012.23C1010.65 178.971 1008.42 181.85 1005.54 184.536C1002.71 187.174 999.134 189.309 994.816 190.94C990.547 192.523 985.534 193.314 979.778 193.314ZM986.542 174.174C991.77 174.174 996.303 173.143 1000.14 171.08C1003.98 168.97 1006.93 166.187 1008.99 162.734C1011.1 159.28 1012.16 155.514 1012.16 151.437V138.413C1011.34 139.085 1009.95 139.708 1007.98 140.284C1006.07 140.859 1003.91 141.363 1001.51 141.795C999.11 142.227 996.735 142.61 994.385 142.946C992.034 143.282 989.995 143.57 988.269 143.81C984.383 144.337 980.905 145.201 977.835 146.4C974.765 147.599 972.343 149.278 970.568 151.437C968.793 153.547 967.905 156.282 967.905 159.64C967.905 164.437 969.656 168.058 973.158 170.505C976.66 172.951 981.121 174.174 986.542 174.174Z" fill="#F9F9FB"/>
<path d="M875.334 191.082V80.56H900.59V98.9804H901.742C903.756 92.6004 907.21 87.6835 912.103 84.2297C917.044 80.7279 922.68 78.9771 929.012 78.9771C930.452 78.9771 932.059 79.049 933.833 79.1929C935.656 79.2889 937.167 79.4567 938.367 79.6966V103.657C937.263 103.274 935.512 102.938 933.114 102.65C930.763 102.314 928.485 102.146 926.278 102.146C921.529 102.146 917.26 103.178 913.47 105.24C909.729 107.255 906.779 110.061 904.62 113.659C902.461 117.257 901.382 121.406 901.382 126.107V191.082H875.334Z" fill="#F9F9FB"/>
<path d="M805.987 193.242C795.194 193.242 785.839 190.868 777.924 186.119C770.009 181.37 763.869 174.726 759.504 166.187C755.187 157.649 753.028 147.671 753.028 136.254C753.028 124.838 755.187 114.836 759.504 106.249C763.869 97.6628 770.009 90.995 777.924 86.246C785.839 81.4971 795.194 79.1226 805.987 79.1226C816.78 79.1226 826.134 81.4971 834.049 86.246C841.964 90.995 848.08 97.6628 852.397 106.249C856.762 114.836 858.945 124.838 858.945 136.254C858.945 147.671 856.762 157.649 852.397 166.187C848.08 174.726 841.964 181.37 834.049 186.119C826.134 190.868 816.78 193.242 805.987 193.242ZM806.131 172.376C811.983 172.376 816.876 170.769 820.809 167.555C824.743 164.293 827.669 159.927 829.588 154.459C831.554 148.99 832.538 142.898 832.538 136.182C832.538 129.419 831.554 123.303 829.588 117.834C827.669 112.318 824.743 107.928 820.809 104.666C816.876 101.404 811.983 99.7735 806.131 99.7735C800.134 99.7735 795.146 101.404 791.164 104.666C787.231 107.928 784.28 112.318 782.314 117.834C780.395 123.303 779.435 129.419 779.435 136.182C779.435 142.898 780.395 148.99 782.314 154.459C784.28 159.927 787.231 164.293 791.164 167.555C795.146 170.769 800.134 172.376 806.131 172.376Z" fill="#F9F9FB"/>
<path d="M692.315 193.242C681.234 193.242 671.664 190.94 663.605 186.335C655.594 181.682 649.43 175.11 645.113 166.619C640.796 158.081 638.637 148.031 638.637 136.47C638.637 125.101 640.796 115.124 645.113 106.537C649.478 97.9027 655.57 91.1869 663.389 86.39C671.209 81.545 680.395 79.1226 690.948 79.1226C697.76 79.1226 704.188 80.2259 710.232 82.4325C716.324 84.5911 721.697 87.949 726.35 92.5061C731.051 97.0632 734.744 102.868 737.431 109.919C740.117 116.923 741.46 125.269 741.46 134.959V142.946H650.869V125.389H716.492C716.444 120.4 715.365 115.963 713.254 112.078C711.143 108.144 708.193 105.05 704.403 102.796C700.662 100.541 696.297 99.4137 691.308 99.4137C685.983 99.4137 681.306 100.709 677.277 103.299C673.247 105.842 670.105 109.2 667.851 113.373C665.644 117.498 664.517 122.031 664.469 126.972V142.299C664.469 148.726 665.644 154.243 667.995 158.848C670.345 163.405 673.631 166.907 677.852 169.353C682.074 171.752 687.015 172.951 692.675 172.951C696.465 172.951 699.894 172.423 702.964 171.368C706.034 170.265 708.697 168.658 710.951 166.547C713.206 164.437 714.909 161.822 716.06 158.704L740.381 161.438C738.846 167.866 735.92 173.479 731.602 178.276C727.333 183.025 721.864 186.718 715.197 189.357C708.529 191.947 700.902 193.242 692.315 193.242Z" fill="#F9F9FB"/>
<path d="M628.508 80.5618V100.709H564.972V80.5618H628.508ZM580.658 54.0825H606.706V157.841C606.706 161.343 607.233 164.029 608.289 165.9C609.392 167.723 610.831 168.97 612.606 169.641C614.381 170.313 616.348 170.649 618.506 170.649C620.137 170.649 621.624 170.529 622.968 170.289C624.359 170.049 625.414 169.833 626.134 169.641L630.523 190.004C629.132 190.484 627.141 191.012 624.55 191.587C622.008 192.163 618.89 192.499 615.196 192.595C608.673 192.787 602.796 191.803 597.568 189.645C592.339 187.438 588.19 184.032 585.119 179.427C582.097 174.822 580.61 169.066 580.658 162.158V54.0825Z" fill="#F9F9FB"/>
<path d="M507.857 193.242C496.776 193.242 487.206 190.94 479.147 186.335C471.136 181.682 464.972 175.11 460.655 166.619C456.337 158.081 454.179 148.031 454.179 136.47C454.179 125.101 456.337 115.124 460.655 106.537C465.02 97.9027 471.112 91.1869 478.931 86.39C486.75 81.545 495.936 79.1226 506.49 79.1226C513.301 79.1226 519.729 80.2259 525.774 82.4325C531.866 84.5911 537.238 87.949 541.891 92.5061C546.592 97.0632 550.286 102.868 552.972 109.919C555.659 116.923 557.002 125.269 557.002 134.959V142.946H466.411V125.389H532.034C531.986 120.4 530.906 115.963 528.796 112.078C526.685 108.144 523.735 105.05 519.945 102.796C516.204 100.541 511.838 99.4137 506.849 99.4137C501.525 99.4137 496.848 100.709 492.818 103.299C488.789 105.842 485.647 109.2 483.392 113.373C481.186 117.498 480.058 122.031 480.01 126.972V142.299C480.01 148.726 481.186 154.243 483.536 158.848C485.887 163.405 489.173 166.907 493.394 169.353C497.615 171.752 502.556 172.951 508.217 172.951C512.006 172.951 515.436 172.423 518.506 171.368C521.576 170.265 524.238 168.658 526.493 166.547C528.748 164.437 530.451 161.822 531.602 158.704L555.922 161.438C554.387 167.866 551.461 173.479 547.144 178.276C542.875 183.025 537.406 186.718 530.738 189.357C524.071 191.947 516.443 193.242 507.857 193.242Z" fill="#F9F9FB"/>
<path d="M282.17 43.7202H314.838L358.586 150.501H360.313L404.061 43.7202H436.728V191.083H411.113V89.843H409.745L369.019 190.651H349.879L309.153 89.6272H307.786V191.083H282.17V43.7202Z" fill="#F9F9FB"/>
<path d="M184.157 54.9648C188.214 50.9079 194.499 51.1468 197.098 55.4424C199.909 60.0563 202.03 65.0418 203.541 70.2656C204.39 73.2354 203.408 76.7087 200.942 79.1748L121.472 158.646C116.672 163.446 110.706 166.76 104.368 168.112L97.7657 169.519C91.4548 170.897 85.4352 174.211 80.6622 178.984L19.6466 240C17.0479 229.977 15.9082 223.215 24.0489 215.074L184.157 54.9648ZM201.369 89.2041C204.021 86.5525 208.104 88.0906 207.839 91.5908C206.195 113.016 195.986 135.582 177.796 153.772C163.928 168.967 124.788 192.195 96.8126 207.761C91.0851 210.942 86.419 204.154 91.1124 199.461L201.369 89.2041ZM164.8 22.832C167.319 20.313 171.032 19.7823 173.577 21.5322C178.881 25.1385 183.839 30.3628 186.385 36.6738C187.339 39.1133 186.518 42.1093 184.423 44.2041L98.8263 129.801C94.0267 134.6 88.0602 137.915 81.7228 139.268L75.1202 140.673C68.8093 142.052 62.7897 145.367 58.0167 150.14L5.22178 202.935C2.62315 192.911 3.86943 183.763 12.0099 175.622L164.8 22.832ZM128.524 7.61326C133.297 2.84029 140.138 0.984109 145.76 3.10544C149.287 4.45777 152.68 6.10239 155.889 8.03806C160.131 10.5837 160.344 16.7881 156.366 20.7656L78.089 99.0439C73.6076 103.525 67.5086 105.912 61.6749 105.487C55.5495 105.036 49.106 107.556 44.3595 112.303L1.48154 155.18C-1.11695 145.156 2.2502 133.887 10.3907 125.746L24.2862 111.852L128.524 7.61326ZM115.984 0.00095109C119.75 -0.0518729 121.208 4.42919 118.344 7.29294L35.1075 90.5293L22.0089 103.629L21.9288 103.708C19.1712 106.466 15.0877 103.974 16.6251 100.474L29.4601 71.3047C30.176 69.5282 30.9708 67.725 31.8458 65.8955L31.9259 65.7099C39.3241 50.0385 51.2299 33.4118 62.42 22.2217C80.3719 4.26981 96.4946 0.186569 115.984 0.00095109Z" fill="white"/>
</svg>
