<svg fill="none" viewBox="0 0 84 18" role="img" class="h-[0.9rem] w-[4.25rem] md:h-[1.125rem] md:w-[5.3125rem] xl:h-[1.37rem] xl:w-[6.5rem]"><title>Figure Logo</title><path fill="currentColor" d="M0 7.05v10.06h3.37V10.4h6.75V7.05H0ZM10.12.34H0V3.7h10.12V.34Zm8.43 0h-3.38V17.1h3.38V.34Zm12.36 6.69v3.35h2.1v.7c0 1.71-1.4 3.1-3.13 3.1a3.11 3.11 0 0 1-3.12-3.1V6.46a3.14 3.14 0 0 1 5.3-2.23l.11.1 2.35-2.43-.11-.1a5.32 5.32 0 0 0-.74-.6c-.05-.04-.08-.07-.13-.08h-.02c-.03-.04-.08-.05-.11-.08a6.5 6.5 0 0 0-10.04 5.42v4.64a6.5 6.5 0 0 0 6.51 6.46 6.5 6.5 0 0 0 6.52-6.46V7.03h-5.49ZM49.2.34v10.89a2.93 2.93 0 0 1-2.94 2.92 2.93 2.93 0 0 1-2.95-2.92V.34h-3.38v10.89a6.3 6.3 0 0 0 6.33 6.27 6.3 6.3 0 0 0 6.32-6.13V.34H49.2ZM65.9 17.1h3.71l-3.05-6.41a5.53 5.53 0 0 0 2.84-4.82A5.57 5.57 0 0 0 63.82.34H57.4V17.1h3.38v-5.7h2.36l2.76 5.7ZM60.8 3.69h3.02c1.2 0 2.2.97 2.2 2.18a2.2 2.2 0 0 1-2.2 2.19h-3.03V3.69ZM84 3.7V.34H73.88V17.1H84v-3.36h-6.73V10.4H84V7.05h-6.73V3.7H84Z"></path></svg>
