<svg width="800" height="200" viewBox="0 0 800 200" fill="none" xmlns="http://www.w3.org/2000/svg">
<g clip-path="url(#clip0_4037_2365)">
<path d="M331.905 4.41798C322.985 1.66658 313.535 0.131227 303.743 0.00874847L302.456 0C247.379 0 202.729 44.6216 202.729 99.6669L202.737 100.957C202.759 102.694 202.825 104.417 202.934 106.128C203.184 109.999 203.652 113.813 204.331 117.553H242.792C242.792 117.553 242.779 117.509 242.775 117.488C281.983 117.488 326.21 117.488 362.138 117.488C362.134 117.509 362.129 117.531 362.125 117.553C368.103 117.553 387.787 117.553 400.578 117.553C401.558 112.16 402.101 106.613 402.171 100.957L402.18 99.6669C402.18 54.8704 372.608 16.972 331.905 4.41798ZM241.934 83.4647C247.887 55.2641 269.505 33.2617 302.456 33.2617C313.631 33.2617 323.506 35.7944 331.905 40.2429C348.271 48.8996 359.048 64.8305 362.978 83.4647H241.934Z" fill="#7EA5F3"/>
<path d="M355.931 138.678C355.397 138.337 354.863 138 354.338 137.655C342.633 153.594 323.755 163.948 302.456 163.948C283.227 163.948 265.973 155.519 254.185 142.151H254.181C252.898 140.69 251.682 139.181 250.535 137.615C240.695 144.002 229.875 149.666 218.079 154.513L218.529 155.143C236.204 181.463 267.168 198.898 301.165 199.327L302.456 199.336C321.864 199.336 340.318 193.793 355.931 184.205C368.02 176.786 378.412 166.94 386.229 155.366L386.702 154.5C375.575 149.924 365.315 144.623 355.931 138.678Z" fill="#7EA5F3"/>
<path d="M572.462 138.829C560.696 154.099 542.229 163.941 521.46 163.941C500.69 163.941 482.175 154.082 470.423 138.785C460.609 145.233 449.811 150.959 438.028 155.867C455.781 181.775 486.487 198.896 520.168 199.32L521.46 199.329C555.662 199.329 586.884 182.121 604.865 155.897C593.082 150.994 582.279 145.272 572.462 138.829Z" fill="#7EA5F3"/>
<path d="M522.753 0.00874847L521.466 0C466.385 0 421.734 44.6216 421.734 99.6669L421.743 100.953C421.813 106.613 422.36 112.155 423.34 117.553H461.797C461.797 117.553 461.784 117.505 461.78 117.483H581.148C581.143 117.505 581.139 117.531 581.13 117.553H619.592C620.568 112.16 621.115 106.613 621.185 100.953L621.194 99.6669C621.194 45.0502 577.239 0.699877 522.753 0.00874847ZM460.944 83.4604C466.897 55.2597 488.515 33.2617 521.466 33.2617C554.417 33.2617 576.035 55.2597 581.988 83.4604H460.944Z" fill="#7EA5F3"/>
<path d="M685.831 160.964H799.985V194.969H693.377C667.683 194.969 646.853 174.152 646.853 148.476V3.67969H685.831V160.964Z" fill="#7EA5F3"/>
<path d="M190.439 163.786V199.231C157.738 197.765 128.184 180.614 111.078 155.143L110.627 154.513C122.428 149.662 133.248 143.997 143.088 137.615C153.943 152.431 171.001 162.426 190.439 163.786Z" fill="#7EA5F3"/>
<path d="M188.456 3.72343C187.751 18.4908 186.053 31.1105 183.26 42.6191C178.367 62.7756 170.151 79.2139 158.144 92.8747C136.452 117.554 102.822 132.094 55.913 136.932V194.969H17.0838V138.03H0V104.007H17.0838V3.67969H55.913V101.68C91.5995 97.5595 116.58 87.0001 131.764 69.7219C139.936 60.4266 145.617 48.8568 149.141 34.3474C151.299 25.4415 152.664 15.4814 153.303 3.72343H188.456Z" fill="#7EA5F3"/>
</g>
<defs>
<clipPath id="clip0_4037_2365">
<rect width="799.993" height="199.334" fill="white"/>
</clipPath>
</defs>
</svg>
