<svg width="1200" height="600" viewBox="0 0 1200 600" fill="none" xmlns="http://www.w3.org/2000/svg">
<g clip-path="url(#clip0_4037_2299)">
<path d="M531.905 205.418C522.985 202.667 513.534 201.131 503.743 201.009L502.456 201C447.379 201 402.728 245.622 402.728 300.667L402.737 301.957C402.759 303.694 402.825 305.417 402.934 307.128C403.183 310.999 403.652 314.813 404.33 318.553H442.792C442.792 318.553 442.779 318.509 442.774 318.488C481.983 318.488 526.21 318.488 562.138 318.488C562.133 318.509 562.129 318.531 562.125 318.553C568.103 318.553 587.787 318.553 600.577 318.553C601.558 313.16 602.101 307.613 602.171 301.957L602.179 300.667C602.179 255.87 572.608 217.972 531.905 205.418ZM441.934 284.465C447.887 256.264 469.505 234.262 502.456 234.262C513.631 234.262 523.505 236.794 531.905 241.243C548.271 249.9 559.047 265.831 562.978 284.465H441.934Z" fill="white"/>
<path d="M555.931 339.677C555.397 339.336 554.863 338.999 554.338 338.654C542.633 354.593 523.755 364.947 502.456 364.947C483.227 364.947 465.973 356.518 454.185 343.15H454.181C452.898 341.689 451.682 340.18 450.535 338.614C440.695 345.001 429.875 350.665 418.079 355.512L418.529 356.142C436.204 382.462 467.168 399.897 501.165 400.326L502.456 400.335C521.864 400.335 540.318 394.793 555.931 385.204C568.02 377.786 578.412 367.939 586.229 356.365L586.702 355.499C575.575 350.923 565.315 345.622 555.931 339.677Z" fill="white"/>
<path d="M772.461 339.83C760.696 355.1 742.229 364.942 721.459 364.942C700.69 364.942 682.175 355.083 670.422 339.786C660.609 346.234 649.811 351.96 638.028 356.868C655.781 382.776 686.486 399.897 720.168 400.321L721.459 400.33C755.662 400.33 786.884 383.122 804.865 356.898C793.082 351.995 782.279 346.273 772.461 339.83Z" fill="white"/>
<path d="M722.753 201.009L721.466 201C666.385 201 621.734 245.622 621.734 300.667L621.743 301.953C621.813 307.613 622.36 313.155 623.34 318.553H661.797C661.797 318.553 661.784 318.505 661.78 318.483H781.148C781.143 318.505 781.139 318.531 781.13 318.553H819.592C820.568 313.16 821.115 307.613 821.185 301.953L821.194 300.667C821.194 246.05 777.239 201.7 722.753 201.009ZM660.944 284.46C666.897 256.26 688.515 234.262 721.466 234.262C754.417 234.262 776.035 256.26 781.988 284.46H660.944Z" fill="white"/>
<path d="M885.831 361.963H999.985V395.968H893.377C867.683 395.968 846.853 375.151 846.853 349.475V204.679H885.831V361.963Z" fill="white"/>
<path d="M390.44 364.784V400.229C357.739 398.763 328.184 381.612 311.079 356.141L310.628 355.511C322.429 350.66 333.249 344.995 343.088 338.613C353.944 353.429 371.001 363.424 390.44 364.784Z" fill="white"/>
<path d="M388.456 204.721C387.751 219.489 386.053 232.109 383.26 243.617C378.367 263.774 370.151 280.212 358.145 293.873C336.452 318.552 302.823 333.092 255.913 337.93V395.967H217.084V339.028H200V305.005H217.084V204.678H255.913V302.678C291.6 298.558 316.58 287.998 331.764 270.72C339.936 261.425 345.617 249.855 349.141 235.345C351.299 226.44 352.665 216.479 353.304 204.721H388.456Z" fill="white"/>
</g>
<defs>
<clipPath id="clip0_4037_2299">
<rect width="799.993" height="199.334" fill="white" transform="translate(200 201)"/>
</clipPath>
</defs>
</svg>
