<svg width="1200" height="600" viewBox="0 0 1200 600" fill="none" xmlns="http://www.w3.org/2000/svg">
<g clip-path="url(#clip0_4037_2313)">
<path d="M531.905 205.418C522.985 202.667 513.534 201.131 503.743 201.009L502.456 201C447.379 201 402.728 245.622 402.728 300.667L402.737 301.957C402.759 303.694 402.825 305.417 402.934 307.128C403.183 310.999 403.652 314.813 404.33 318.553H442.792C442.792 318.553 442.779 318.509 442.774 318.488C481.983 318.488 526.21 318.488 562.138 318.488C562.133 318.509 562.129 318.531 562.125 318.553C568.103 318.553 587.787 318.553 600.577 318.553C601.558 313.16 602.101 307.613 602.171 301.957L602.179 300.667C602.179 255.87 572.608 217.972 531.905 205.418ZM441.934 284.465C447.887 256.264 469.505 234.262 502.456 234.262C513.631 234.262 523.505 236.794 531.905 241.243C548.271 249.9 559.047 265.831 562.978 284.465H441.934Z" fill="#7EA5F3"/>
<path d="M555.931 339.678C555.397 339.337 554.863 339 554.338 338.655C542.633 354.594 523.755 364.948 502.456 364.948C483.227 364.948 465.973 356.519 454.185 343.151H454.181C452.898 341.69 451.682 340.181 450.535 338.615C440.695 345.002 429.875 350.666 418.079 355.513L418.529 356.143C436.204 382.463 467.168 399.898 501.165 400.327L502.456 400.336C521.864 400.336 540.318 394.793 555.931 385.205C568.02 377.786 578.412 367.94 586.229 356.366L586.702 355.5C575.575 350.924 565.315 345.623 555.931 339.678Z" fill="#7EA5F3"/>
<path d="M772.461 339.829C760.696 355.099 742.229 364.941 721.459 364.941C700.69 364.941 682.175 355.082 670.422 339.785C660.609 346.233 649.811 351.959 638.028 356.867C655.781 382.775 686.486 399.896 720.168 400.32L721.459 400.329C755.662 400.329 786.884 383.121 804.865 356.897C793.082 351.994 782.279 346.272 772.461 339.829Z" fill="#7EA5F3"/>
<path d="M722.753 201.009L721.466 201C666.385 201 621.734 245.622 621.734 300.667L621.743 301.953C621.813 307.613 622.36 313.155 623.34 318.553H661.797C661.797 318.553 661.784 318.505 661.78 318.483H781.148C781.143 318.505 781.139 318.531 781.13 318.553H819.592C820.568 313.16 821.115 307.613 821.185 301.953L821.194 300.667C821.194 246.05 777.239 201.7 722.753 201.009ZM660.944 284.46C666.897 256.26 688.515 234.262 721.466 234.262C754.417 234.262 776.035 256.26 781.988 284.46H660.944Z" fill="#7EA5F3"/>
<path d="M885.831 361.964H999.985V395.969H893.377C867.683 395.969 846.853 375.152 846.853 349.476V204.68H885.831V361.964Z" fill="#7EA5F3"/>
<path d="M390.44 364.786V400.231C357.739 398.765 328.184 381.614 311.079 356.143L310.628 355.513C322.429 350.662 333.249 344.997 343.088 338.615C353.944 353.431 371.001 363.426 390.44 364.786Z" fill="#7EA5F3"/>
<path d="M388.456 204.723C387.751 219.491 386.053 232.111 383.26 243.619C378.367 263.776 370.151 280.214 358.145 293.875C336.452 318.554 302.823 333.094 255.913 337.932V395.969H217.084V339.03H200V305.007H217.084V204.68H255.913V302.68C291.6 298.559 316.58 288 331.764 270.722C339.936 261.427 345.617 249.857 349.141 235.347C351.299 226.441 352.665 216.481 353.304 204.723H388.456Z" fill="#7EA5F3"/>
</g>
<defs>
<clipPath id="clip0_4037_2313">
<rect width="799.993" height="199.334" fill="white" transform="translate(200 201)"/>
</clipPath>
</defs>
</svg>
