<svg width="800" height="200" viewBox="0 0 800 200" fill="none" xmlns="http://www.w3.org/2000/svg">
<g clip-path="url(#clip0_4037_2366)">
<path d="M331.905 4.41798C322.985 1.66658 313.535 0.131227 303.743 0.00874847L302.456 0C247.379 0 202.729 44.6216 202.729 99.6669L202.737 100.957C202.759 102.694 202.825 104.417 202.934 106.128C203.184 109.999 203.652 113.813 204.331 117.553H242.792C242.792 117.553 242.779 117.509 242.775 117.488C281.983 117.488 326.21 117.488 362.138 117.488C362.134 117.509 362.129 117.531 362.125 117.553C368.103 117.553 387.787 117.553 400.578 117.553C401.558 112.16 402.101 106.613 402.171 100.957L402.18 99.6669C402.18 54.8704 372.608 16.972 331.905 4.41798ZM241.934 83.4647C247.887 55.2641 269.505 33.2617 302.456 33.2617C313.631 33.2617 323.506 35.7944 331.905 40.2429C348.271 48.8996 359.048 64.8305 362.978 83.4647H241.934Z" fill="#03080F"/>
<path d="M355.931 138.677C355.397 138.336 354.863 137.999 354.338 137.654C342.633 153.593 323.755 163.947 302.456 163.947C283.227 163.947 265.973 155.518 254.185 142.15H254.181C252.898 140.689 251.682 139.18 250.535 137.614C240.695 144.001 229.875 149.665 218.079 154.512L218.529 155.142C236.204 181.462 267.168 198.897 301.165 199.326L302.456 199.335C321.864 199.335 340.318 193.793 355.931 184.204C368.02 176.786 378.412 166.939 386.229 155.365L386.702 154.499C375.575 149.923 365.315 144.622 355.931 138.677Z" fill="#03080F"/>
<path d="M572.462 138.83C560.696 154.1 542.229 163.942 521.46 163.942C500.69 163.942 482.175 154.083 470.423 138.786C460.609 145.234 449.811 150.96 438.028 155.868C455.781 181.776 486.487 198.897 520.168 199.321L521.46 199.33C555.662 199.33 586.884 182.122 604.865 155.898C593.082 150.995 582.279 145.273 572.462 138.83Z" fill="#03080F"/>
<path d="M522.753 0.00874847L521.466 0C466.385 0 421.734 44.6216 421.734 99.6669L421.743 100.953C421.813 106.613 422.36 112.155 423.34 117.553H461.797C461.797 117.553 461.784 117.505 461.78 117.483H581.148C581.143 117.505 581.139 117.531 581.13 117.553H619.592C620.568 112.16 621.115 106.613 621.185 100.953L621.194 99.6669C621.194 45.0502 577.239 0.699877 522.753 0.00874847ZM460.944 83.4604C466.897 55.2597 488.515 33.2617 521.466 33.2617C554.417 33.2617 576.035 55.2597 581.988 83.4604H460.944Z" fill="#03080F"/>
<path d="M685.831 160.963H799.985V194.968H693.377C667.683 194.968 646.853 174.151 646.853 148.475V3.67871H685.831V160.963Z" fill="#03080F"/>
<path d="M190.439 163.784V199.229C157.738 197.763 128.184 180.612 111.078 155.141L110.627 154.511C122.428 149.66 133.248 143.995 143.088 137.613C153.943 152.429 171.001 162.424 190.439 163.784Z" fill="#03080F"/>
<path d="M188.456 3.72148C187.751 18.4889 186.053 31.1085 183.26 42.6172C178.367 62.7736 170.151 79.212 158.144 92.8727C136.452 117.552 102.822 132.092 55.913 136.93V194.967H17.0838V138.028H0V104.005H17.0838V3.67773H55.913V101.678C91.5995 97.5575 116.58 86.9981 131.764 69.7199C139.936 60.4247 145.617 48.8548 149.141 34.3455C151.299 25.4395 152.664 15.4794 153.303 3.72148H188.456Z" fill="#03080F"/>
</g>
<defs>
<clipPath id="clip0_4037_2366">
<rect width="799.993" height="199.334" fill="white"/>
</clipPath>
</defs>
</svg>
