<svg width="1087" height="290" viewBox="0 0 1087 290" fill="none" xmlns="http://www.w3.org/2000/svg">
<rect width="289.365" height="289.37" rx="144.683" fill="black"/>
<path fill-rule="evenodd" clip-rule="evenodd" d="M113.024 77.1263H109.871L107.827 79.5269L56.2232 140.139L52.4565 144.563L56.2232 148.988L107.827 209.6L109.871 212.001H113.024H205.928H212.753V205.176V166.643H199.104V198.351H127.948L170.607 149.028L174.469 144.563L170.607 140.099L127.948 90.776H199.104V122.484H212.753V83.9512V77.1263H205.928H113.024ZM113.064 94.4318L70.383 144.563L113.064 194.695L156.422 144.563L113.064 94.4318Z" fill="white"/>
<path d="M478.803 73.5538V57.8574H363.525V229.549H478.803V213.852H381.674V149.59H471.447V133.892H381.674V73.5538H478.803Z" fill="black"/>
<path d="M524.547 221.209C518.905 215.653 516.085 206.494 516.085 193.739V122.854H494.499V107.157H516.085V70.12H533.742V107.157H565.63V122.854H533.742V193.739C533.742 200.937 535.174 206.088 538.038 209.191C540.895 212.299 545.679 213.852 552.384 213.852H565.63V229.549H552.384C539.466 229.549 530.187 226.77 524.547 221.209Z" fill="black"/>
<path d="M591.136 57.8578H608.797V124.081C612.556 118.36 617.381 113.78 623.268 110.346C629.155 106.912 635.12 105.196 641.173 105.196H658.342C669.624 105.196 678.738 109.04 685.69 116.723C692.639 124.411 696.113 134.467 696.113 146.892V229.55H678.453V146.402C678.453 138.883 676.573 132.75 672.813 128.005C669.05 123.265 664.063 120.893 657.85 120.893H641.662C633.974 120.893 626.984 123.879 620.693 129.846C614.396 135.816 610.429 143.459 608.797 152.779V229.55H591.136V57.8578Z" fill="black"/>
<path d="M733.636 219.371C725.296 211.276 721.126 200.527 721.126 187.117V152.043C721.126 137.982 725.296 126.656 733.636 118.072C741.976 109.488 753.014 105.195 766.749 105.195H786.859C799.94 105.195 810.488 109.365 818.502 117.704C826.511 126.044 830.52 137.081 830.52 150.816V172.401H738.787V187.116C738.787 195.621 741.362 202.531 746.513 207.843C751.663 213.158 758.409 215.815 766.749 215.815H785.39C793.564 215.815 800.187 213.568 805.256 209.069C810.322 204.573 812.86 198.564 812.86 191.042H830.029C830.029 203.145 825.94 212.913 817.766 220.351C809.586 227.795 798.796 231.512 785.39 231.512H766.749C753.014 231.512 741.976 227.465 733.636 219.371ZM812.86 157.193V150.816C812.86 141.826 810.488 134.59 805.748 129.109C801.002 123.633 794.711 120.893 786.859 120.893H766.749C758.409 120.893 751.663 123.755 746.513 129.477C741.362 135.203 738.787 142.722 738.787 152.043V157.193H812.86Z" fill="black"/>
<path d="M855.539 107.157H872.707V125.308C876.467 119.421 881.373 114.6 887.423 110.836C893.473 107.077 899.523 105.195 905.575 105.195H922.252C933.537 105.195 942.648 109.039 949.6 116.723C956.549 124.411 960.026 134.467 960.026 146.892V229.55H942.366V146.402C942.366 138.882 940.483 132.75 936.724 128.005C932.961 123.265 927.976 120.893 921.763 120.893H906.064C898.376 120.893 891.386 123.921 885.095 129.968C878.798 136.019 874.832 143.787 873.199 153.269V229.549H855.539V107.157Z" fill="black"/>
<path d="M992.767 222.192C985.652 215.979 982.096 207.639 982.096 197.173V189.324C982.096 179.022 985.777 170.768 993.133 164.551C1000.49 158.34 1010.22 155.231 1022.32 155.231H1038.02C1043.41 155.231 1048.97 156.051 1054.7 157.684C1060.42 159.321 1065.33 161.528 1069.42 164.307V143.949C1069.42 137.081 1067.29 131.481 1063.04 127.147C1058.79 122.817 1053.14 120.647 1046.12 120.647H1026.49C1019.46 120.647 1013.82 122.284 1009.57 125.553C1005.31 128.826 1003.19 133.156 1003.19 138.552H985.53C985.53 128.58 989.289 120.525 996.815 114.392C1004.33 108.261 1014.23 105.195 1026.49 105.195H1046.12C1058.21 105.195 1067.98 108.751 1075.42 115.865C1082.86 122.978 1086.58 132.339 1086.58 143.949V229.55H1069.9V212.381C1066.14 218.266 1061.2 222.926 1055.07 226.362C1048.93 229.795 1042.59 231.512 1036.06 231.512H1021.34C1009.4 231.512 999.879 228.407 992.767 222.192ZM1036.55 216.059C1044.23 216.059 1051.1 213.69 1057.15 208.947C1063.2 204.205 1067.29 197.91 1069.42 190.06V180.985C1066.14 177.88 1061.6 175.386 1055.8 173.504C1050 171.627 1044.07 170.684 1038.02 170.684H1022.32C1015.62 170.684 1010.18 172.401 1006.01 175.835C1001.84 179.268 999.756 183.767 999.756 189.324V197.173C999.756 202.899 1001.72 207.475 1005.64 210.908C1009.57 214.342 1014.8 216.059 1021.34 216.059L1036.55 216.059Z" fill="black"/>
</svg>
