<svg width="1087" height="290" viewBox="0 0 1087 290" fill="none" xmlns="http://www.w3.org/2000/svg">
<rect x="4.44959" y="4.44959" width="280.47" height="280.47" rx="140.235" fill="white"/>
<rect x="4.44959" y="4.44959" width="280.47" height="280.47" rx="140.235" stroke="black" stroke-width="8.89919"/>
<path fill-rule="evenodd" clip-rule="evenodd" d="M113.026 77.1261H109.873L107.829 79.5267L56.2254 140.139L52.4587 144.563L56.2254 148.987L107.829 209.6L109.873 212H113.026H205.931H212.755V205.176V166.643H199.106V198.351H127.951L170.609 149.028L174.471 144.563L170.609 140.099L127.951 90.7757H199.106V122.484H212.755V83.9509V77.1261H205.931H113.026ZM113.066 94.4315L70.3852 144.563L113.066 194.695L156.424 144.563L113.066 94.4315Z" fill="black"/>
<path d="M478.807 73.5535V57.8572H363.529V229.549H478.807V213.851H381.679V149.589H471.451V133.892H381.679V73.5535H478.807Z" fill="white"/>
<path d="M524.551 221.209C518.909 215.653 516.089 206.494 516.089 193.739V122.854H494.503V107.156H516.089V70.1198H533.747V107.156H565.634V122.854H533.747V193.739C533.747 200.937 535.179 206.088 538.042 209.191C540.9 212.299 545.684 213.851 552.388 213.851H565.634V229.549H552.388C539.471 229.549 530.191 226.77 524.551 221.209Z" fill="white"/>
<path d="M591.141 57.8575H608.801V124.081C612.561 118.36 617.385 113.78 623.272 110.346C629.159 106.912 635.125 105.195 641.177 105.195H658.346C669.628 105.195 678.742 109.039 685.694 116.723C692.643 124.411 696.117 134.467 696.117 146.892V229.549H678.457V146.402C678.457 138.882 676.577 132.75 672.817 128.005C669.055 123.265 664.067 120.893 657.854 120.893H641.666C633.978 120.893 626.988 123.879 620.697 129.846C614.4 135.815 610.434 143.458 608.801 152.779V229.549H591.141V57.8575Z" fill="white"/>
<path d="M733.641 219.37C725.301 211.276 721.131 200.527 721.131 187.116V152.043C721.131 137.982 725.301 126.656 733.641 118.072C741.981 109.487 753.018 105.195 766.753 105.195H786.864C799.944 105.195 810.493 109.365 818.507 117.704C826.515 126.043 830.525 137.081 830.525 150.816V172.401H738.791V187.116C738.791 195.621 741.367 202.53 746.517 207.842C751.668 213.157 758.413 215.814 766.753 215.814H785.394C793.568 215.814 800.191 213.568 805.26 209.069C810.327 204.573 812.864 198.564 812.864 191.042H830.033C830.033 203.144 825.944 212.913 817.77 220.351C809.59 227.795 798.8 231.512 785.394 231.512H766.753C753.018 231.512 741.981 227.464 733.641 219.37ZM812.864 157.193V150.816C812.864 141.826 810.493 134.59 805.752 129.109C801.006 123.633 794.715 120.893 786.864 120.893H766.753C758.413 120.893 751.668 123.755 746.517 129.477C741.366 135.203 738.791 142.722 738.791 152.043V157.193H812.864Z" fill="white"/>
<path d="M855.543 107.156H872.712V125.307C876.471 119.42 881.377 114.6 887.427 110.836C893.477 107.076 899.527 105.195 905.58 105.195H922.257C933.541 105.195 942.653 109.039 949.604 116.723C956.553 124.411 960.031 134.466 960.031 146.892V229.549H942.37V146.402C942.37 138.882 940.487 132.749 936.728 128.005C932.965 123.264 927.98 120.893 921.768 120.893H906.068C898.38 120.893 891.391 123.921 885.099 129.968C878.802 136.019 874.836 143.787 873.203 153.269V229.549H855.543V107.156Z" fill="white"/>
<path d="M992.771 222.192C985.656 215.979 982.1 207.639 982.1 197.173V189.323C982.1 179.022 985.781 170.768 993.138 164.551C1000.5 158.34 1010.22 155.23 1022.33 155.23H1038.02C1043.42 155.23 1048.98 156.051 1054.7 157.683C1060.42 159.32 1065.33 161.528 1069.42 164.307V143.948C1069.42 137.081 1067.29 131.481 1063.04 127.146C1058.79 122.816 1053.15 120.647 1046.12 120.647H1026.49C1019.46 120.647 1013.82 122.284 1009.57 125.553C1005.32 128.825 1003.19 133.155 1003.19 138.552H985.534C985.534 128.58 989.294 120.525 996.819 114.392C1004.34 108.261 1014.23 105.195 1026.49 105.195H1046.12C1058.22 105.195 1067.98 108.751 1075.43 115.864C1082.87 122.978 1086.59 132.339 1086.59 143.948V229.549H1069.91V212.381C1066.15 218.266 1061.2 222.926 1055.07 226.361C1048.94 229.795 1042.6 231.512 1036.06 231.512H1021.34C1009.41 231.512 999.883 228.407 992.771 222.192ZM1036.55 216.059C1044.24 216.059 1051.1 213.69 1057.15 208.947C1063.2 204.205 1067.29 197.909 1069.42 190.06V180.985C1066.15 177.88 1061.61 175.386 1055.81 173.503C1050 171.627 1044.07 170.684 1038.02 170.684H1022.33C1015.62 170.684 1010.18 172.401 1006.01 175.834C1001.84 179.268 999.761 183.767 999.761 189.324V197.173C999.761 202.899 1001.72 207.474 1005.65 210.908C1009.57 214.342 1014.8 216.059 1021.34 216.059L1036.55 216.059Z" fill="white"/>
</svg>
