<svg width="788" height="788" viewBox="0 0 788 788" fill="none" xmlns="http://www.w3.org/2000/svg">
<path d="M393.618 7.11914H393.633C607.09 7.11914 780.133 180.161 780.133 393.618V393.633C780.133 607.09 607.09 780.133 393.633 780.133H393.618C180.161 780.133 7.11914 607.09 7.11914 393.633V393.618C7.11929 180.161 180.161 7.11929 393.618 7.11914Z" fill="#111111" stroke="#111111" stroke-width="14.2382"/>
<path d="M393.633 0H393.618C176.229 0 0 176.229 0 393.618V393.633C0 611.023 176.229 787.252 393.618 787.252H393.633C611.023 787.252 787.252 611.023 787.252 393.633V393.618C787.252 176.229 611.023 0 393.633 0Z" fill="url(#paint0_radial_1178_6223)" fill-opacity="0.7"/>
<path d="M393.618 7.20898H393.633C607.041 7.20898 780.043 180.21 780.043 393.618V393.633C780.043 607.041 607.041 780.043 393.633 780.043H393.618C180.21 780.043 7.20898 607.041 7.20898 393.633V393.618C7.20913 180.21 180.21 7.20913 393.618 7.20898Z" stroke="url(#paint1_linear_1178_6223)" stroke-width="14.4184"/>
<path fill-rule="evenodd" clip-rule="evenodd" d="M307.495 210.558H299.107L293.669 216.945L153.277 381.845L143.255 393.616L153.277 405.388L293.669 570.289L299.107 576.676H307.495H560.25H578.408V558.518V453.686H542.092V540.359H329.618L446.891 404.765L457.165 392.887L446.891 381.008L330.88 246.874H542.092V333.547H578.408V228.716V210.558H560.25H307.495ZM299.504 266.113L190.951 393.617L298.878 520.385L409.15 392.887L299.504 266.113Z" fill="white"/>
<defs>
<radialGradient id="paint0_radial_1178_6223" cx="0" cy="0" r="1" gradientUnits="userSpaceOnUse" gradientTransform="translate(394.472 114.949) rotate(90) scale(829.934 584.19)">
<stop offset="0.03125" stop-color="#3A3A3A"/>
<stop offset="1" stop-color="#1C1C1C"/>
</radialGradient>
<linearGradient id="paint1_linear_1178_6223" x1="393.626" y1="-7.42697" x2="393.626" y2="794.679" gradientUnits="userSpaceOnUse">
<stop stop-color="white"/>
<stop offset="1" stop-color="#111111"/>
</linearGradient>
</defs>
</svg>
