<svg width="788" height="788" viewBox="0 0 788 788" fill="none" xmlns="http://www.w3.org/2000/svg">
<rect x="12.1055" y="12.1055" width="763.041" height="763.041" rx="381.52" fill="white"/>
<rect x="12.1055" y="12.1055" width="763.041" height="763.041" rx="381.52" stroke="black" stroke-width="24.2109"/>
<path fill-rule="evenodd" clip-rule="evenodd" d="M307.495 209.828H298.918L293.357 216.359L152.965 381.259L142.718 393.295L152.965 405.332L293.357 570.233L298.918 576.764H307.495H560.25H578.817V558.196V453.365H541.682V539.629H348.1L464.156 405.441L474.661 393.295L464.156 381.149L348.1 246.962H541.682V333.226H578.817V228.395V209.828H560.25H307.495ZM307.605 256.908L191.488 393.295L307.605 529.683L425.564 393.295L307.605 256.908Z" fill="black"/>
</svg>
