<svg width="975" height="235" viewBox="0 0 975 235" fill="none" xmlns="http://www.w3.org/2000/svg">
<path d="M155.445 21.1655V0H0V231.516H155.445V210.348H24.4734V123.695H145.526V102.528H24.4734V21.1655H155.445Z" fill="black"/>
<path d="M217.128 220.27C209.52 212.777 205.718 200.427 205.718 183.228V87.6442H176.61V66.4767H205.718V16.5353H229.528V66.4767H272.526V87.6442H229.528V183.228C229.528 192.934 231.458 199.879 235.32 204.064C239.173 208.255 245.624 210.348 254.664 210.348H272.526V231.516H254.664C237.246 231.516 224.733 227.769 217.128 220.27Z" fill="black"/>
<path d="M306.92 0.000488281H330.734V89.2986C335.803 81.5842 342.309 75.408 350.247 70.7778C358.185 66.1476 366.229 63.8325 374.391 63.8325H397.542C412.755 63.8325 425.045 69.016 434.419 79.377C443.789 89.7439 448.474 103.303 448.474 120.058V231.516H424.66V119.397C424.66 109.257 422.125 100.988 417.056 94.5899C411.982 88.1979 405.257 84.9999 396.879 84.9999H375.05C364.683 84.9999 355.258 89.0258 346.775 97.0718C338.283 105.122 332.935 115.428 330.734 127.996V231.516H306.92V0.000488281Z" fill="black"/>
<path d="M499.072 217.79C487.826 206.876 482.203 192.381 482.203 174.298V127.003C482.203 108.043 487.826 92.7709 499.072 81.1954C510.318 69.6199 525.201 63.8322 543.722 63.8322H570.84C588.478 63.8322 602.702 69.4551 613.508 80.699C624.307 91.9449 629.714 106.828 629.714 125.349V154.455H506.017V174.298C506.017 185.765 509.49 195.083 516.435 202.246C523.38 209.413 532.476 212.995 543.722 212.995H568.858C579.881 212.995 588.811 209.966 595.647 203.9C602.478 197.837 605.9 189.734 605.9 179.591H629.051C629.051 195.911 623.538 209.083 612.516 219.113C601.486 229.15 586.936 234.163 568.858 234.163H543.722C525.201 234.163 510.318 228.705 499.072 217.79ZM605.9 133.948V125.349C605.9 113.226 602.702 103.469 596.31 96.0788C589.91 88.694 581.427 84.9996 570.84 84.9996H543.722C532.476 84.9996 523.38 88.8588 516.435 96.5751C509.49 104.295 506.017 114.435 506.017 127.003V133.948H605.9Z" fill="black"/>
<path d="M663.45 66.4769H686.601V90.9522C691.67 83.0141 698.286 76.5142 706.444 71.4386C714.602 66.369 722.759 63.8322 730.921 63.8322H753.409C768.626 63.8322 780.912 69.0156 790.286 79.3767C799.656 89.7436 804.345 103.303 804.345 120.058V231.516H780.531V119.396C780.531 109.257 777.992 100.988 772.923 94.5896C767.849 88.1976 761.127 84.9996 752.75 84.9996H731.58C721.213 84.9996 711.788 89.0824 703.305 97.2363C694.813 105.396 689.465 115.871 687.264 128.657V231.516H663.45V66.4769Z" fill="black"/>
<path d="M848.493 221.595C838.899 213.217 834.104 201.971 834.104 187.859V177.274C834.104 163.383 839.068 152.253 848.988 143.87C858.911 135.494 872.025 131.302 888.348 131.302H909.514C916.789 131.302 924.283 132.408 932.006 134.609C939.72 136.817 946.336 139.793 951.849 143.54V116.089C951.849 106.828 948.98 99.2768 943.247 93.4321C937.515 87.5934 929.906 84.6681 920.43 84.6681H893.967C884.487 84.6681 876.879 86.8753 871.15 91.2838C865.413 95.6962 862.549 101.535 862.549 108.812H838.734C838.734 95.3646 843.804 84.5033 853.951 76.2337C864.091 67.966 877.432 63.8322 893.967 63.8322H920.43C936.742 63.8322 949.914 68.6272 959.952 78.2191C969.981 87.8111 975 100.434 975 116.089V231.516H952.508V208.365C947.434 216.301 940.768 222.585 932.5 227.217C924.232 231.848 915.682 234.163 906.869 234.163H887.022C870.926 234.163 858.083 229.976 848.493 221.595ZM907.528 213.325C917.891 213.325 927.152 210.131 935.309 203.735C943.467 197.341 948.98 188.852 951.849 178.267V166.03C947.434 161.843 941.317 158.481 933.493 155.942C925.664 153.411 917.668 152.14 909.514 152.14H888.348C879.304 152.14 871.974 154.455 866.351 159.085C860.728 163.715 857.918 169.781 857.918 177.274V187.859C857.918 195.579 860.563 201.749 865.856 206.38C871.15 211.01 878.201 213.325 887.022 213.325L907.528 213.325Z" fill="black"/>
</svg>
