<svg width="629" height="119" viewBox="0 0 629 119" fill="none" xmlns="http://www.w3.org/2000/svg">
<path d="M42.424 99.2519C37.4683 99.2519 33.0221 98.4183 29.1316 96.7046C25.1949 94.991 21.8602 92.6753 19.0813 89.7111C16.3024 86.747 14.2183 83.2734 12.6899 79.244C11.2078 75.2146 10.4205 70.9073 10.4205 66.2759C10.4205 61.6444 11.1615 57.3371 12.5973 53.3078C14.033 49.2784 16.1635 45.8048 18.8498 42.8406C21.5823 39.8765 24.8244 37.5608 28.6222 35.8471C32.42 34.1335 36.7272 33.2998 41.4977 33.2998C45.5271 33.2998 49.1859 33.8556 52.428 35.0135C55.67 36.1713 58.4952 37.6997 60.8572 39.6912C63.2656 41.6828 65.2108 44.0448 66.6929 46.87C68.036 49.371 69.0086 52.1036 69.5644 55.0677C69.7034 55.6235 69.2402 56.1793 68.6381 56.1793H54.3269C53.91 56.1793 53.5395 55.9014 53.4469 55.4846C52.7985 53.0299 51.5943 50.9457 49.788 49.2784C47.7965 47.4721 45.2492 46.5458 42.1924 46.5458C37.1441 46.5458 33.3926 48.3058 30.8916 51.8257C28.3906 55.3456 27.1401 60.1623 27.1401 66.2296C27.1401 72.1578 28.3443 76.9283 30.7063 80.4945C33.1147 84.107 36.8662 85.9133 41.9608 85.9133C45.3418 85.9133 48.167 85.0333 50.3438 83.3197C52.3816 81.6987 53.7248 79.2903 54.3269 76.0946C54.4195 75.6778 54.79 75.3536 55.2531 75.3536H69.3791C69.9349 75.3536 70.3518 75.8167 70.3054 76.3725C69.9812 79.2903 69.1939 82.0692 67.8971 84.6165C66.4613 87.488 64.5624 89.989 62.2004 92.1658C59.792 94.2963 56.9205 96.0099 53.5858 97.2604C50.2975 98.6035 46.546 99.2519 42.424 99.2519Z" fill="white"/>
<path d="M107.218 99.2519C102.355 99.2519 97.9551 98.4183 93.9721 96.7046C89.989 94.991 86.5617 92.6753 83.6902 89.7111C80.8187 86.747 78.5956 83.2734 77.0209 79.244C75.4462 75.2146 74.6588 70.9073 74.6588 66.2759C74.6588 61.6444 75.4462 57.3371 77.0209 53.3078C78.5956 49.2784 80.8187 45.8048 83.6902 42.8406C86.5617 39.8765 89.989 37.5608 93.9721 35.8471C97.9551 34.1335 102.355 33.2998 107.218 33.2998C112.081 33.2998 116.481 34.1335 120.464 35.8471C124.447 37.5608 127.874 39.8765 130.746 42.8406C133.618 45.8048 135.841 49.2784 137.415 53.3078C138.99 57.3371 139.777 61.6444 139.777 66.2759C139.777 70.9073 138.99 75.2146 137.415 79.244C135.841 83.2734 133.618 86.747 130.746 89.7111C127.874 92.6753 124.447 94.991 120.464 96.7046C116.481 98.4183 112.081 99.2519 107.218 99.2519ZM107.218 86.608C112.313 86.608 116.249 84.7554 118.936 81.004C121.668 77.2988 123.011 72.3894 123.011 66.2759C123.011 60.2087 121.668 55.253 118.936 51.5015C116.203 47.75 112.313 45.8511 107.218 45.8511C102.123 45.8511 98.1867 47.75 95.5005 51.5015C92.7679 55.253 91.4248 60.2087 91.4248 66.2759C91.4248 72.3431 92.7679 77.2525 95.5005 81.004C98.1867 84.7554 102.123 86.608 107.218 86.608Z" fill="white"/>
<path d="M148.346 10.5137H163.028C163.537 10.5137 163.954 10.9305 163.954 11.44V24.4081C163.954 24.9176 163.537 25.3344 163.028 25.3344H148.346C147.837 25.3344 147.42 24.9176 147.42 24.4081V11.44C147.42 10.9305 147.837 10.5137 148.346 10.5137ZM148.346 35.0605H163.028C163.537 35.0605 163.954 35.4773 163.954 35.9868V96.4738C163.954 96.9833 163.537 97.4001 163.028 97.4001H148.346C147.837 97.4001 147.42 96.9833 147.42 96.4738V35.9868C147.42 35.4773 147.837 35.0605 148.346 35.0605Z" fill="white"/>
<path d="M190.816 43.5828H191.187C193.271 40.2018 195.818 37.6082 198.782 35.9409C201.746 34.2272 205.359 33.3936 209.666 33.3936C212.908 33.3936 215.826 33.9956 218.466 35.1535C221.106 36.3114 223.329 37.9324 225.228 40.0166C227.081 42.1007 228.563 44.5554 229.582 47.3806C230.647 50.2058 231.156 53.3552 231.156 56.7362V96.5206C231.156 97.0301 230.74 97.4469 230.23 97.4469H215.548C215.039 97.4469 214.622 97.0301 214.622 96.5206V59.1446C214.622 55.7636 213.696 52.9847 211.843 50.9005C209.99 48.8164 207.304 47.7511 203.831 47.7511C200.172 47.7511 197.161 49.0479 194.753 51.6879C192.345 54.3278 191.187 57.8014 191.187 62.0624V96.5206C191.187 97.0301 190.77 97.4469 190.26 97.4469H175.579C175.069 97.4469 174.652 97.0301 174.652 96.5206V35.9872C174.652 35.4777 175.069 35.0609 175.579 35.0609H189.89C190.399 35.0609 190.816 35.4777 190.816 35.9872V43.5828Z" fill="white"/>
<path d="M270.339 99.2519C265.383 99.2519 260.937 98.4183 257.046 96.7046C253.11 94.991 249.775 92.6753 246.996 89.7111C244.217 86.747 242.133 83.2734 240.605 79.244C239.123 75.2146 238.335 70.9073 238.335 66.2759C238.335 61.6444 239.076 57.3371 240.512 53.3078C241.948 49.2784 244.078 45.8048 246.764 42.8406C249.497 39.8765 252.739 37.5608 256.537 35.8471C260.335 34.1335 264.642 33.2998 269.412 33.2998C273.442 33.2998 277.101 33.8556 280.343 35.0135C283.585 36.1713 286.41 37.6997 288.772 39.6912C291.18 41.6828 293.126 44.0448 294.608 46.87C295.951 49.371 296.923 52.1036 297.479 55.0677C297.618 55.6235 297.155 56.1793 296.553 56.1793H282.242C281.825 56.1793 281.454 55.9014 281.362 55.4846C280.713 53.0299 279.509 50.9457 277.703 49.2784C275.711 47.4721 273.164 46.5458 270.107 46.5458C265.059 46.5458 261.307 48.3058 258.806 51.8257C256.305 55.3456 255.055 60.1623 255.055 66.2296C255.055 72.1578 256.259 76.9283 258.621 80.4945C261.029 84.107 264.781 85.9133 269.876 85.9133C273.257 85.9133 276.082 85.0333 278.259 83.3197C280.296 81.6987 281.639 79.2903 282.242 76.0946C282.334 75.6778 282.705 75.3536 283.168 75.3536H297.294C297.85 75.3536 298.266 75.8167 298.22 76.3725C297.896 79.2903 297.109 82.0692 295.812 84.6165C294.376 87.488 292.477 89.989 290.115 92.1658C287.707 94.2963 284.835 96.0099 281.501 97.2604C278.212 98.6035 274.461 99.2519 270.339 99.2519Z" fill="white"/>
<path d="M322.119 43.2119H322.489C324.759 39.8772 327.259 37.4225 330.038 35.8015C332.771 34.1805 336.337 33.3932 340.598 33.3932C343.84 33.3932 346.758 33.9953 349.398 35.1531C352.038 36.311 354.261 37.932 356.16 40.0162C358.012 42.1003 359.494 44.555 360.513 47.3802C361.579 50.2054 362.088 53.3548 362.088 56.7358V96.5202C362.088 97.0296 361.671 97.4465 361.162 97.4465H346.48C345.971 97.4465 345.554 97.0296 345.554 96.5202V59.1442C345.554 55.7632 344.627 52.9843 342.775 50.9001C340.922 48.816 338.236 47.7507 334.762 47.7507C331.104 47.7507 328.093 49.0476 325.685 51.6875C323.276 54.3274 322.119 57.801 322.119 62.062V96.5202C322.119 97.0296 321.702 97.4465 321.192 97.4465H306.511C306.001 97.4465 305.584 97.0296 305.584 96.5202V11.44C305.584 10.9305 306.001 10.5137 306.511 10.5137H321.192C321.702 10.5137 322.119 10.9305 322.119 11.44V43.2119Z" fill="white"/>
<path d="M412.062 97.4479C411.738 97.4479 411.414 97.2626 411.275 96.9848C410.904 96.3827 410.626 95.549 410.348 94.5301C410.024 93.2333 409.793 91.8901 409.607 90.5007H409.376C408.542 91.7049 407.662 92.8164 406.643 93.8354C405.624 94.8543 404.42 95.7343 402.984 96.429C401.548 97.17 399.881 97.7258 397.936 98.1889C395.991 98.6521 393.675 98.8373 390.989 98.8373C384.597 98.8373 379.364 97.2163 375.288 93.9743C371.212 90.7323 369.221 86.0082 369.221 79.7557C369.221 76.3747 369.869 73.4569 371.166 71.1412C372.463 68.7791 374.223 66.8339 376.492 65.3055C378.762 63.7771 381.402 62.5729 384.458 61.7393C387.515 60.9056 390.757 60.2109 394.231 59.7477C399.418 59.0067 403.216 58.2657 405.671 57.432C408.079 56.6447 409.329 55.0236 409.329 52.7079C409.329 50.4385 408.449 48.6322 406.736 47.2891C404.976 45.946 402.382 45.2976 398.909 45.2976C395.018 45.2976 392.1 45.9923 390.155 47.428C388.395 48.7248 387.33 50.6701 386.959 53.2637C386.913 53.7268 386.496 54.051 386.033 54.051H373.111C372.555 54.051 372.139 53.5879 372.185 53.0321C372.37 50.6237 372.972 48.3543 373.945 46.1775C375.056 43.7229 376.724 41.5461 378.947 39.6935C381.124 37.8409 383.903 36.3125 387.191 35.2009C390.526 34.0894 394.462 33.4873 399.001 33.4873C408.31 33.4873 415.026 35.4788 419.102 39.5082C423.177 43.5376 425.262 49.188 425.262 56.4594V88.185C425.262 92.5849 425.91 95.4101 427.161 96.6142C427.346 96.7995 427.438 97.0311 427.438 97.2626V97.4479H412.062V97.4479ZM395.018 87.3513C397.38 87.3513 399.464 87.0271 401.271 86.3324C403.077 85.6377 404.652 84.7577 405.902 83.6461C407.153 82.5346 408.125 81.2841 408.774 79.8946C409.422 78.4589 409.746 76.9768 409.746 75.4484V67.6212C409.746 66.9265 409.051 66.5097 408.449 66.7876C407.292 67.3433 405.948 67.8065 404.466 68.177C402.382 68.6865 400.298 69.1959 398.214 69.7054C393.86 70.678 390.618 71.8359 388.488 73.0864C386.357 74.3832 385.338 76.4673 385.338 79.3852C385.338 82.303 386.218 84.3408 388.025 85.545C389.785 86.7492 392.1 87.3513 395.018 87.3513Z" fill="white"/>
<path d="M451.939 43.5828H452.31C454.394 40.2018 456.941 37.6082 459.905 35.9409C462.869 34.2272 466.482 33.3936 470.789 33.3936C474.031 33.3936 476.949 33.9956 479.589 35.1535C482.229 36.3114 484.452 37.9324 486.351 40.0166C488.203 42.1007 489.686 44.5554 490.704 47.3806C491.77 50.2058 492.279 53.3552 492.279 56.7362V96.5206C492.279 97.0301 491.862 97.4469 491.353 97.4469H476.671C476.162 97.4469 475.745 97.0301 475.745 96.5206V59.1446C475.745 55.7636 474.818 52.9847 472.966 50.9005C471.113 48.8164 468.427 47.7511 464.953 47.7511C461.295 47.7511 458.284 49.0479 455.876 51.6879C453.467 54.3278 452.31 57.8014 452.31 62.0624V96.5206C452.31 97.0301 451.893 97.4469 451.383 97.4469H436.701C436.192 97.4469 435.775 97.0301 435.775 96.5206V35.9872C435.775 35.4777 436.192 35.0609 436.701 35.0609H451.013C451.522 35.0609 451.939 35.4777 451.939 35.9872V43.5828V43.5828Z" fill="white"/>
<path d="M529.979 118.704C521.411 118.704 514.603 116.99 509.601 113.517C504.923 110.275 502.051 105.875 500.986 100.364C500.893 99.8077 501.31 99.252 501.912 99.252H516.594C516.965 99.252 517.289 99.4835 517.428 99.8077C518.123 101.521 519.327 102.957 521.04 104.161C522.939 105.504 525.857 106.153 529.748 106.153C538.964 106.153 543.596 101.799 543.596 93.1384V86.3302H543.225C541.373 88.4606 539.149 90.1743 536.648 91.5637C534.147 92.9532 530.905 93.6479 526.922 93.6479C523.449 93.6479 520.068 92.9995 516.779 91.6563C513.491 90.3132 510.573 88.368 508.026 85.8207C505.479 83.2734 503.395 80.1703 501.82 76.4651C500.245 72.7599 499.458 68.5916 499.458 63.8675C499.458 59.236 500.106 55.0677 501.449 51.2699C502.792 47.5184 504.645 44.2764 507.053 41.5901C509.462 38.9039 512.287 36.866 515.575 35.4303C518.864 33.9945 522.476 33.2998 526.459 33.2998C530.35 33.2998 533.731 34.0408 536.602 35.4766C539.474 36.9124 541.836 38.9502 543.735 41.5438H543.966V35.8934C543.966 35.384 544.383 34.9671 544.893 34.9671H558.972C559.482 34.9671 559.899 35.384 559.899 35.8934V92.5826C559.899 96.9362 559.25 100.688 557.953 103.744C556.656 106.801 554.85 109.395 552.488 111.525C549.895 113.934 546.653 115.74 542.762 116.852C538.825 118.148 534.564 118.704 529.979 118.704ZM529.701 80.4019C532.295 80.4019 534.518 79.9387 536.371 79.0587C538.223 78.1788 539.752 76.9746 540.909 75.3999C542.067 73.8715 542.947 72.0652 543.503 70.0737C544.059 68.0358 544.337 65.8591 544.337 63.497C544.337 61.2276 544.013 59.0508 543.41 57.0129C542.808 54.9751 541.882 53.1225 540.678 51.5941C539.474 50.0657 537.899 48.8615 536.046 47.9353C534.194 47.0553 531.971 46.5921 529.47 46.5921C525.255 46.5921 521.874 48.1205 519.327 51.131C516.779 54.1877 515.483 58.3098 515.483 63.5896C515.483 68.9158 516.779 73.0841 519.327 76.002C522.013 78.9661 525.44 80.4019 529.701 80.4019Z" fill="white"/>
<path d="M599.868 99.2506C594.681 99.2506 590.096 98.417 586.066 96.7033C582.037 94.9897 578.656 92.6739 575.923 89.7098C573.144 86.7457 571.06 83.2257 569.671 79.1963C568.235 75.167 567.54 70.8134 567.54 66.1819C567.54 61.5504 568.281 57.2432 569.81 53.2138C571.292 49.1844 573.422 45.7571 576.109 42.8393C578.841 39.9214 582.083 37.6057 585.835 35.892C589.586 34.1784 593.754 33.3447 598.293 33.3447C603.295 33.3447 607.741 34.271 611.539 36.0773C615.337 37.8836 618.533 40.4772 621.126 43.8119C623.72 47.1465 625.665 51.0833 627.008 55.6684C628.259 59.9757 628.954 64.7461 629 69.9797C629 70.4892 628.583 70.906 628.074 70.906H584.862C584.306 70.906 583.843 71.4155 583.936 72.0176C584.677 76.3711 586.251 79.7984 588.706 82.3458C591.346 85.1246 595.005 86.4678 599.729 86.4678C602.971 86.4678 605.565 85.773 607.51 84.3836C609.27 83.1331 610.613 81.4658 611.539 79.3816C611.678 79.0574 612.002 78.8258 612.419 78.8258H626.916C627.518 78.8258 627.981 79.3816 627.796 79.9837C627.194 82.2994 626.267 84.5225 624.971 86.653C623.488 89.1077 621.543 91.2845 619.135 93.1371C616.726 94.9897 613.948 96.4718 610.706 97.5833C607.417 98.6949 603.805 99.2506 599.868 99.2506ZM598.525 46.1276C594.171 46.1276 590.837 47.3318 588.567 49.6938C586.529 51.8706 585.094 54.7421 584.306 58.3547C584.167 58.9568 584.63 59.4663 585.232 59.4663H610.798C611.354 59.4663 611.771 59.0031 611.724 58.4473C611.308 54.9274 610.057 52.0559 607.88 49.8328C605.426 47.3781 602.323 46.1276 598.525 46.1276Z" fill="white"/>
<path d="M0 19.2669L9.7261 28.5299C17.507 19.3132 29.1783 13.4313 42.1927 13.4313C55.2072 13.4313 66.8785 19.3132 74.6594 28.5762L84.1076 18.989C73.8257 7.36404 58.866 0 42.1927 0C25.3805 0 10.2819 7.45667 0 19.2669Z" fill="#FF8719"/>
</svg>
