<?xml version="1.0" encoding="UTF-8"?>
<svg id="Layer_2" xmlns="http://www.w3.org/2000/svg" version="1.1" viewBox="0 0 509.7 131.5">
  <!-- Generator: Adobe Illustrator 29.7.1, SVG Export Plug-In . SVG Version: 2.1.1 Build 8)  -->
  <defs>
    <style>
      .st0, .st1 {
        fill: none;
      }

      .st2 {
        fill: #6e23fa;
      }

      .st3 {
        fill: #575756;
      }

      .st1 {
        stroke: #575756;
        stroke-miterlimit: 10;
        stroke-width: 2px;
      }

      .st4 {
        fill: #e87722;
      }
    </style>
  </defs>
  <g id="Layer_1-2">
    <g>
      <path id="path14" class="st3" d="M117.1,131.3h-2.2l10.7-14.3-9.8-14.7h5.1l7.4,11.1,8.3-11.1h2.3l-9.6,12.7,10.9,16.3h-5.1l-8.5-12.7-9.5,12.7"/>
      <path id="path16" class="st3" d="M54.2,116.5h-3.6v-12.4h3.6c3.4,0,6.2,2.6,6.2,6.2s-2.8,6.2-6.2,6.2ZM56.4,102.4h-10.7v28.9h5v-12.9h6.4c4.5,0,8.4-3.6,8.4-8s-4.3-8-9-8"/>
      <path id="path18" class="st3" d="M8.8,118.6l5.2-10.3,4.7,10.3h-9.9ZM24.6,131.3h4.9l-13.6-29.5h-1.2L0,131.3h2.4l5.5-10.8h11.7l5,10.8"/>
      <path id="path20" class="st3" d="M101.3,104.1v-1.9h-20.1v29h20.1v-1.9h-15.3v-11h10.6v-2.1h-10.6v-12.1h15.3"/>
      <path id="path22" class="st4" d="M97,78.7c0-6.2,5-11.2,11.2-11.2s11.2,5,11.2,11.2-5,11.2-11.2,11.2-11.2-5-11.2-11.2"/>
      <path id="path24" class="st4" d="M95.3,35.4h0c-5.6-2.7-12.4-.3-15.1,5.3l-15.9,32.9c-2.7,5.6-.3,12.4,5.3,15.1h0c5.6,2.7,12.4.3,15.1-5.3l15.9-32.9c2.7-5.6.3-12.4-5.3-15.1"/>
      <path id="path26" class="st4" d="M75.8,1.2h0c5.5,2.8,7.8,9.5,5.1,15.1l-33.4,67.5c-2.8,5.5-9.5,7.8-15.1,5.1h0c-5.5-2.8-7.8-9.5-5.1-15.1L60.8,6.2c2.8-5.5,9.5-7.8,15.1-5.1"/>
      <path id="Shape" d="M353.9,40.6v29.6c0,.2,0,.4,0,.6,0,0,0,0,0,0,0-.1.2-.2.3-.3,1.6-2,3.2-4,4.8-5.9,2.6-3.3,5.3-6.6,7.9-9.8.2-.2.3-.3.6-.3h15.6c-2.5,3-12.3,14.7-14.8,17.6,5.7,6.7,11.3,13.5,17,20.2-.1,0-.2,0-.2,0h-.4c-5.4,0-10.7,0-16,0-.3,0-.5-.1-.7-.3-1.4-1.7-2.8-3.5-4.3-5.3-1.9-2.3-3.8-4.7-5.7-7-1.3-1.7-2.7-3.3-4-5,0,0-.2-.2-.3-.3,0,.1,0,.2,0,.2,0,.2,0,.3,0,.4v17.2c-.2,0-.3,0-.4,0-2.8,0-5.6,0-8.5,0-1.4,0-2.7,0-4.1,0h-.5c0-.1,0-.2,0-.3v-50.8c0-.2,0-.4,0-.6,4.5,0,9,0,13.6,0h0Z"/>
      <path id="Shape-2" d="M470.5,109.5c.5-1,.9-2,1.4-3,.6-1.3,1.2-2.6,1.8-3.9.9-1.9,1.8-3.9,2.7-5.8.8-1.7,1.5-3.3,2.3-4.9.7-1.4,1.3-2.8,2-4.2.1-.3.1-.5,0-.7-.9-2.1-1.9-4.2-2.9-6.3-1.1-2.3-2.1-4.6-3.1-6.9-1.5-3.2-2.9-6.4-4.4-9.6-1.4-3.2-2.9-6.3-4.3-9.5,0,0,0-.2-.1-.3.1,0,.2,0,.3,0h13.5c.3,0,.5.1.6.4,1.5,3.8,3.1,7.6,4.6,11.4.9,2.2,1.8,4.4,2.7,6.6,0,.1.1.2.2.4.2-.4.4-.8.6-1.1.9-1.9,1.7-3.7,2.6-5.6.9-2,1.9-4,2.8-6.1.7-1.4,1.3-2.8,2-4.2.2-.5.5-.9.6-1.4.1-.3.3-.4.6-.4h12.1c.2,0,.3,0,.5,0h0c0,.2-.2.3-.2.4-.3.7-.6,1.4-.9,2.1-.8,1.8-1.7,3.6-2.5,5.4-1.1,2.4-2.2,4.8-3.3,7.1-.9,1.8-1.7,3.6-2.5,5.4-1.1,2.3-2.2,4.6-3.3,7-.9,1.8-1.7,3.6-2.5,5.4-.9,1.9-1.8,3.8-2.7,5.8-.9,1.8-1.7,3.6-2.5,5.4-.9,1.9-1.8,3.8-2.7,5.8-.8,1.7-1.6,3.4-2.4,5.1,0,0,0,.2,0,.3h-13.5,0s0,0,0,0Z"/>
      <path id="Shape-3" d="M337,72.3c0-.8,0-1.6-.2-2.3-.3-2.2-1-4.3-2.1-6.3-1-1.8-2.2-3.4-3.8-4.7-1.8-1.6-4-2.8-6.3-3.6-1.3-.4-2.6-.8-4-1-1.1-.2-2.1-.3-3.2-.4-1.6,0-3.2-.1-4.8,0-.6,0-1.3,0-1.9.2-1.3.2-2.6.5-3.9.9-3.3,1-6.2,2.7-8.5,5.3-1.7,1.9-3,4.2-3.8,6.7-.6,1.9-.8,3.8-.9,5.9,0,1.5,0,2.9.3,4.3.3,2.1.9,4,1.9,5.9.9,1.7,2,3.3,3.4,4.6,2.5,2.3,5.4,3.7,8.6,4.6,1.1.3,2.1.5,3.2.6.8,0,1.6.2,2.3.2.6,0,1.3,0,1.9,0h0c.9,0,1.8,0,2.7,0,1.2,0,2.4-.3,3.6-.5,2.3-.5,4.5-1.3,6.6-2.5,2.7-1.6,4.9-3.7,6.5-6.6,1.7-3,2.3-6.2,2.4-9.6,0-.6,0-1.1,0-1.6h0ZM322,78.9c-.6,1.3-1.4,2.4-2.5,3.1-.9.6-1.9.9-3,1-.4,0-.8,0-1.2.1-1.5,0-2.9-.4-4.1-1.2-1.2-.8-2-1.9-2.5-3.2-.5-1.2-.8-2.5-.9-3.8,0-.8,0-1.6,0-2.4,0-1.7.4-3.3,1.1-4.8.9-1.9,2.4-3.2,4.6-3.7,1-.2,2.1-.3,3.1-.1,1,.1,1.9.4,2.8.9,1.1.6,1.9,1.6,2.5,2.7.6,1.2,1,2.5,1.1,3.9,0,.8.2,1.6.1,2.3,0,1.8-.3,3.6-1,5.3h0s0,0,0,0Z"/>
      <path id="Shape-4" d="M437.8,92.1h-13.2c-.1-.4-.1-37.3,0-37.8h13.2c0,.3,0,.7,0,1,0,.4,0,.7,0,1.1v3.2c.2,0,.2,0,.3-.2,1.2-1.2,2.4-2.3,3.8-3.3,1.7-1.1,3.6-1.8,5.6-2.2,1.8-.4,3.6-.4,5.4-.3,1.8.1,3.5.5,5.1,1.3,1.8.9,3.3,2.2,4.3,3.9,1,1.6,1.6,3.3,2,5.1.3,1.5.5,2.9.5,4.4,0,.8,0,1.7,0,2.5v21.2c-4.5,0-8.9,0-13.3-.1,0-.2,0-.4,0-.5v-10.6c0-3.3,0-6.6,0-9.8,0-1.7-.3-3.3-1-4.8-.5-1.2-1.4-1.9-2.6-2.2-1.7-.4-3.5-.3-5.1.5-1.1.5-1.9,1.3-2.7,2.2-.7.9-1.4,1.8-2.1,2.7-.2.3-.3.5-.3.8v21.1c0,.3,0,.4,0,.6h0s0,0,0,0Z"/>
      <path id="Shape-5" d="M421.6,76.5h-26.6c0,.2,0,.3,0,.5.6,2,1.7,3.6,3.4,4.9,1.4,1.1,3,1.8,4.7,2.2.6.1,1.3.2,1.9.2.7,0,1.4,0,2.1,0,.9,0,1.7-.1,2.5-.3,2.1-.3,4.1-.9,6.1-1.5,1.5-.5,2.9-1.1,4.3-1.7.1,0,.3-.1.5-.2,0,.2,0,.3,0,.4v7.3c0,.3-.1.5-.4.6-1.3.6-2.7,1.2-4.1,1.7-1.5.5-3.1,1.1-4.7,1.4-.8.2-1.6.3-2.4.4-.9.1-1.9.2-2.9.3-1.8.2-3.7.1-5.6,0-2.7-.1-5.4-.6-7.9-1.7-2.5-1-4.8-2.5-6.7-4.5-1.5-1.6-2.6-3.4-3.4-5.4-.7-1.7-1.2-3.6-1.4-5.5-.2-1.3-.2-2.6-.1-4,.2-3.4,1.1-6.6,2.8-9.5.6-.9,1.2-1.7,1.9-2.5,2.3-2.5,5.2-4.1,8.4-5.1,1.4-.4,2.8-.7,4.2-.9,2-.3,3.9-.3,5.9-.2,1.7,0,3.3.4,4.9,1,1.5.5,2.9,1.1,4.2,1.9,1.9,1.2,3.5,2.8,4.7,4.7,1.5,2.2,2.4,4.7,2.9,7.4.2,1,.3,2.1.3,3.1,0,1.4,0,2.9,0,4.3,0,.1,0,.2,0,.3h0ZM394.6,69.9h14.5c0-.2,0-.3,0-.4,0-.2,0-.4,0-.6,0-1.1-.3-2.1-.7-3.1-.7-1.7-1.9-2.9-3.7-3.5-1.3-.5-2.6-.5-4-.3-2.2.3-3.9,1.5-5,3.3-.8,1.3-1.1,2.7-1.2,4.2,0,.1,0,.3,0,.4Z"/>
      <path id="Shape-6" d="M266.1,63.6c-.7,0-1.4,0-2,0h-3.9c0-.2,0-.3,0-.4v-1.7c0-.2,0-.4.2-.5.7-.7,1.5-1.5,2.2-2.3,1.6-1.6,3.2-3.3,4.8-4.9.7-.7,1.4-1.4,2.1-2.1,1.5-1.6,3-3.1,4.6-4.7,1.3-1.3,2.5-2.5,3.7-3.8.2-.2.4-.3.7-.3.2,0,.5,0,.7,0s.3,0,.3.3v11c.2,0,.4,0,.6,0h12.1c.1.4.1,8.8,0,9.2-.2,0-.3,0-.5,0h-11.6c-.2,0-.4,0-.6,0,0,.2,0,.3,0,.4v12.2c0,.9,0,1.8.2,2.7.3,1.5,1.2,2.4,2.5,2.9.7.3,1.4.4,2.1.4h.4c1.6,0,3-.3,4.5-.8,1.3-.4,2.5-1,3.8-1.6.1,0,.2,0,.4-.2,0,.2,0,.3,0,.4v9.6c0,.3,0,.4-.3.6-1.5.7-3.1,1.2-4.7,1.6-1.2.3-2.5.6-3.7.8-.6.1-1.1.1-1.7.2-1.4.2-2.7.1-4,0-2.5-.1-4.8-.6-7-1.9-2.1-1.2-3.6-3-4.5-5.2-.6-1.4-.9-2.8-1.1-4.3-.1-1.1-.2-2.2-.2-3.3v-14.5h0s0,0,0,0Z"/>
      <path id="Shape-7" class="st0" d="M254.6,51.1c0,0,0,.1.2.1"/>
      <path id="Shape-8" class="st0" d="M239.9,61.1c0,0,0,.1.2.1"/>
      <path id="Shape-9" class="st0" d="M203.9,65.9l-.3.5"/>
      <path id="Shape-10" class="st2" d="M216.5,40.9l12.5,25.7c.2.4.2.9,0,1.2l-12.5,25.6c-.3.6-1.2.6-1.5,0l-11.7-25.6c-.2-.4-.2-.9,0-1.4l11.8-25.6c.3-.6,1.1-.6,1.4,0h0Z"/>
      <path id="Shape-11" class="st2" d="M230.8,40.9l12.5,25.7c.2.4.2.9,0,1.2l-12.5,25.7c-.3.6-1.2.6-1.5,0l-5.1-11.2,6.9-14.5c.2-.4.2-.9,0-1.4l-6.9-14.2,5.2-11.3c.3-.6,1.2-.6,1.4,0h0s0,0,0,0Z"/>
      <path id="Shape-12" class="st2" d="M244.2,40.9l12.7,25.7c.2.4.2.9,0,1.2l-12.5,25.6c-.3.6-1.2.6-1.5,0l-4.8-9.9,7.5-15.8c.2-.4.2-.9,0-1.4l-7.6-15.7,4.7-9.8c.3-.6,1.1-.6,1.4,0h0Z"/>
      <line class="st1" x1="171.8" y1="1.2" x2="171.8" y2="131.5"/>
    </g>
  </g>
</svg>