<svg width="2012" height="513" viewBox="0 0 2012 513" fill="none" xmlns="http://www.w3.org/2000/svg">
<path d="M238.44 280.99H300.66L342.13 364.98H425.08L373.24 259.99L404.35 155H321.4L296.51 238.99H238.44V155H155.5V364.98H238.44V280.99Z" fill="#F4FF00"/>
<path d="M673.93 155H497.66L435.45 364.98H518.4L530.84 322.98H640.75L653.19 364.98H736.14L673.93 155ZM543.29 280.98L565.06 207.49H606.54L628.32 280.98H543.29Z" fill="#F4FF00"/>
<path d="M1617.49 155L1555.28 364.98H1638.23L1650.68 322.98H1760.59L1773.03 364.98H1855.98L1793.77 155H1617.49ZM1663.11 280.98L1684.89 207.49H1726.36L1748.14 280.98H1663.11Z" fill="#F4FF00"/>
<path d="M1161.26 155H984.99L922.78 364.98H1005.73L1018.17 322.98H1128.08L1140.52 364.98H1223.47L1161.25 155H1161.26ZM1030.61 280.98L1052.39 207.49H1093.87L1115.64 280.98H1030.61Z" fill="#F4FF00"/>
<path d="M1451.59 315.11L1388.34 155H1243.18V364.98H1326.13V207.5H1346.86L1409.08 364.98H1534.54V155H1451.59V315.11Z" fill="#F4FF00"/>
<path d="M787.99 207.5V364.98H870.94V207.5H938.33L953.89 155H705.04L720.59 207.5H787.99Z" fill="#F4FF00"/>
</svg>
