<svg width="175" height="28" viewBox="0 0 175 28" fill="none" xmlns="http://www.w3.org/2000/svg">
<path d="M56.7505 5.5137V1.375H42.8652V23.3227H47.4493V14.8571H56.4848V10.7184H47.4493V5.5137H56.7505Z" fill="white"/>
<path d="M71.9618 23.7703C78.9313 23.7703 84.5206 18.7497 84.5206 12.3485C84.5206 5.91593 78.9313 0.926758 71.9618 0.926758C64.9923 0.926758 59.4375 5.91593 59.4375 12.3485C59.4375 18.7497 64.9923 23.7703 71.9618 23.7703ZM71.9618 19.5342C67.5801 19.5342 64.1642 16.5533 64.1642 12.3485C64.1642 8.11243 67.5801 5.13147 71.9618 5.13147C76.3437 5.13147 79.7593 8.11243 79.7593 12.3485C79.7593 16.5533 76.3437 19.5342 71.9618 19.5342Z" fill="white"/>
<path d="M101.011 23.3227H106.02L100.81 15.0452C103.499 13.8851 105.348 11.4082 105.348 8.64908C105.348 4.63579 101.852 1.375 97.5154 1.375H88.1035V23.3227H92.7423V15.7036H96.2717L101.011 23.3227ZM92.7423 5.41963H97.5154C99.2635 5.41963 100.709 6.83056 100.709 8.64908C100.709 10.4676 99.2635 11.9099 97.5154 11.9099H92.7423V5.41963Z" fill="white"/>
<path d="M118.67 1.375H109.154V23.3227H118.67C125.277 23.3227 130.206 18.5255 130.206 12.3488C130.206 6.17213 125.277 1.375 118.67 1.375ZM118.67 19.1839H113.878V5.5137H118.67C122.812 5.5137 125.688 8.30418 125.688 12.3488C125.688 16.3934 122.812 19.1839 118.67 19.1839Z" fill="white"/>
<path d="M138.5 19.1839V14.2614H147.546V10.1854H138.5V5.5137H148.399V1.375H133.789V23.3227H148.57V19.1839H138.5Z" fill="white"/>
<path d="M166.488 5.5137V1.375H152.154V23.3227H156.886V14.8571H166.213V10.7184H156.886V5.5137H166.488Z" fill="white"/>
<path d="M170.52 1.375V23.3227H174.999V1.375H170.52Z" fill="white"/>
<path d="M14.3332 19.708H0V23.2449C0 25.7442 2.03188 27.7704 4.53836 27.7704H10.3177L14.3332 19.708Z" fill="#7994FF"/>
<path d="M0 10.3018H27.3227L24.1506 17.0204H0V10.3018Z" fill="#486DFF"/>
<path d="M9.58195 0H0V7.61448L32.6976 7.61452V2.21119e-05H23.1158V5.6869H21.1394V2.21119e-05H11.5575V5.6869H9.58195V0Z" fill="#5CD1FA"/>
</svg>
