<svg width="650" height="201" viewBox="0 0 650 201" fill="none" xmlns="http://www.w3.org/2000/svg">
<path fill-rule="evenodd" clip-rule="evenodd" d="M100.785 0.5C45.524 0.5 0.697266 45.2875 0.697266 100.5C0.697266 155.713 45.524 200.5 100.785 200.5C156.046 200.5 200.873 155.713 200.873 100.5C200.873 45.2875 156.071 0.5 100.785 0.5ZM140.557 100.188C140.557 99.6 140.52 99.025 140.482 98.4375L156.609 93.3375C156.884 95.5875 157.034 97.8625 157.034 100.188C157.034 128.438 136.178 151.813 109.005 155.788V170.763H92.5402V104.95L62.9518 87.8875C61.6882 91.7625 60.9875 95.8875 60.9875 100.188C60.9875 115.5 69.7077 128.812 82.4438 135.45L78.7906 151.95C58.6355 143.4 44.4981 123.45 44.4981 100.188C44.4981 92.8875 45.8993 85.925 48.4391 79.525L35.4777 72.05L43.7224 57.7875L100.772 90.675L130.186 73.7125C122.942 65.5875 112.508 60.4375 100.76 60.4375C92.8905 60.4375 85.5591 62.7375 79.3661 66.7L66.8802 55.3C76.301 48.1875 88.0362 43.975 100.747 43.975C118.613 43.975 134.514 52.3 144.823 65.2625L157.797 57.775L166.042 72.0375L108.992 104.938V139.062C126.983 135.262 140.532 119.275 140.532 100.175L140.557 100.188Z" fill="#E7FD7F"/>
<path d="M273.224 44.6125L233.84 156.388H255.471L264.717 128.825H306.779L316.049 156.388H337.681L298.246 44.6125H273.224V44.6125ZM270.184 112.563L285.297 67.5375H286.173L301.311 112.563H270.184Z" fill="#F5F5F5"/>
<path d="M374.438 108.9H423.155V91.9375H374.438V61.5875H426.921V44.6125H354.17V156.388H427.359V139.413H374.438V108.9Z" fill="#F5F5F5"/>
<path d="M511.044 111.175C516.949 108.325 521.416 104.263 524.456 99.0001C527.496 93.7376 529.022 87.525 529.022 80.3625C529.022 73.2 527.521 66.9875 524.519 61.6125C521.516 56.25 517.087 52.075 511.244 49.0875C505.402 46.1 498.183 44.6125 489.588 44.6125H447.639V156.388H467.906V115.45H488.525L510.506 156.388H533.126L508.917 112.113C509.643 111.813 510.369 111.5 511.057 111.163L511.044 111.175ZM467.894 61.5375H486.46C491.515 61.5375 495.656 62.275 498.859 63.75C502.061 65.225 504.451 67.375 506.015 70.1875C507.579 73.0125 508.367 76.4 508.367 80.3625C508.367 84.325 507.591 87.6625 506.04 90.375C504.488 93.0875 502.111 95.1375 498.909 96.5375C495.706 97.9375 491.59 98.6376 486.56 98.6376H467.881V61.525L467.894 61.5375Z" fill="#F5F5F5"/>
<path d="M627.71 156.388H649.341L609.906 44.6125H584.884L545.5 156.388H567.131L576.377 128.825H618.439L627.71 156.388V156.388ZM581.844 112.563L596.958 67.5375H597.833L612.972 112.563H581.844Z" fill="#F5F5F5"/>
</svg>
