<svg width="201" height="200" viewBox="0 0 201 200" fill="none" xmlns="http://www.w3.org/2000/svg">
<circle cx="100.242" cy="99.9999" r="81.8182" fill="#F5F5F5"/>
<path fill-rule="evenodd" clip-rule="evenodd" d="M100.475 0C45.1341 0 0.242188 44.7875 0.242188 100C0.242188 155.212 45.1341 200 100.475 200C155.816 200 200.708 155.212 200.708 100C200.708 44.7875 155.842 0 100.475 0ZM140.305 99.6875C140.305 99.1 140.268 98.525 140.23 97.9375L156.38 92.8375C156.656 95.0875 156.806 97.3625 156.806 99.6875C156.806 127.938 135.92 151.313 108.707 155.288V170.263H92.2186V104.45L62.5872 87.3875C61.3217 91.2625 60.6201 95.3875 60.6201 99.6875C60.6201 115 69.3529 128.312 82.1076 134.95L78.4491 151.45C58.2646 142.9 44.1067 122.95 44.1067 99.6875C44.1067 92.3875 45.51 85.425 48.0534 79.025L35.0732 71.55L43.3299 57.2875L100.463 90.175L129.919 73.2125C122.664 65.0875 112.215 59.9375 100.45 59.9375C92.5694 59.9375 85.2273 62.2375 79.0254 66.2L66.5213 54.8C75.9558 47.6875 87.7081 43.475 100.438 43.475C118.329 43.475 134.254 51.8 144.578 64.7625L157.571 57.275L165.827 71.5375L108.694 104.438V138.562C126.711 134.762 140.28 118.775 140.28 99.675L140.305 99.6875Z" fill="#161F59"/>
</svg>
