<svg width="202" height="200" viewBox="0 0 202 200" fill="none" xmlns="http://www.w3.org/2000/svg">
<circle cx="100.97" cy="99.9999" r="81.8182" fill="#161F59"/>
<path fill-rule="evenodd" clip-rule="evenodd" d="M101.203 0C45.8616 0 0.969727 44.7875 0.969727 100C0.969727 155.212 45.8616 200 101.203 200C156.544 200 201.436 155.212 201.436 100C201.436 44.7875 156.569 0 101.203 0ZM141.033 99.6875C141.033 99.1 140.995 98.525 140.958 97.9375L157.108 92.8375C157.383 95.0875 157.534 97.3625 157.534 99.6875C157.534 127.938 136.648 151.313 109.434 155.288V170.263H92.9461V104.45L63.3147 87.3875C62.0493 91.2625 61.3476 95.3875 61.3476 99.6875C61.3476 115 70.0804 128.312 82.8351 134.95L79.1766 151.45C58.9922 142.9 44.8342 122.95 44.8342 99.6875C44.8342 92.3875 46.2375 85.425 48.7809 79.025L35.8007 71.55L44.0574 57.2875L101.19 90.175L130.646 73.2125C123.392 65.0875 112.943 59.9375 101.178 59.9375C93.2969 59.9375 85.9549 62.2375 79.7529 66.2L67.2489 54.8C76.6833 47.6875 88.4356 43.475 101.165 43.475C119.057 43.475 134.981 51.8 145.305 64.7625L158.298 57.275L166.555 71.5375L109.422 104.438V138.562C127.439 134.762 141.008 118.775 141.008 99.675L141.033 99.6875Z" fill="#E7FD7F"/>
</svg>
