<svg width="653" height="200" viewBox="0 0 653 200" fill="none" xmlns="http://www.w3.org/2000/svg">
<rect x="0.894413" y="0.378788" width="650.758" height="199.242" stroke="#161F59" stroke-opacity="0.4" stroke-width="0.757576"/>
<path fill-rule="evenodd" clip-rule="evenodd" d="M100.749 0C45.4075 0 0.515625 44.7875 0.515625 100C0.515625 155.212 45.4075 200 100.749 200C156.09 200 200.982 155.212 200.982 100C200.982 44.7875 156.115 0 100.749 0ZM140.579 99.6875C140.579 99.1 140.541 98.525 140.504 97.9375L156.654 92.8375C156.929 95.0875 157.08 97.3625 157.08 99.6875C157.08 127.937 136.194 151.313 108.98 155.288V170.263H92.492V104.45L62.8606 87.3875C61.5952 91.2625 60.8935 95.3875 60.8935 99.6875C60.8935 115 69.6263 128.313 82.381 134.95L78.7225 151.45C58.5381 142.9 44.3801 122.95 44.3801 99.6875C44.3801 92.3875 45.7834 85.425 48.3268 79.025L35.3466 71.55L43.6033 57.2875L100.736 90.175L130.192 73.2125C122.938 65.0875 112.489 59.9375 100.724 59.9375C92.8428 59.9375 85.5008 62.2375 79.2988 66.2L66.7948 54.8C76.2292 47.6875 87.9815 43.475 100.711 43.475C118.603 43.475 134.527 51.8 144.851 64.7625L157.844 57.275L166.101 71.5375L108.968 104.437V138.562C126.985 134.762 140.554 118.775 140.554 99.675L140.579 99.6875Z" fill="#161F59"/>
<path d="M273.438 44.1125L233.996 155.887H255.659L264.918 128.325H307.041L316.325 155.887H337.988L298.496 44.1125H273.438ZM270.393 112.062L285.528 67.0375H286.405L301.566 112.062H270.393Z" fill="#161F59"/>
<path d="M374.799 108.4H423.587V91.4375H374.799V61.0875H427.358V44.1125H354.501V155.887H427.797V138.912H374.799V108.4Z" fill="#161F59"/>
<path d="M511.604 110.675C517.518 107.825 521.991 103.763 525.035 98.5C528.08 93.2375 529.609 87.025 529.609 79.8625C529.609 72.7 528.105 66.4875 525.098 61.1125C522.091 55.75 517.656 51.575 511.805 48.5875C505.954 45.6 498.724 44.1125 490.117 44.1125H448.107V155.887H468.404V114.95H489.052L511.065 155.887H533.718L509.474 111.613C510.201 111.313 510.928 111 511.617 110.662L511.604 110.675ZM468.391 61.0375H486.984C492.046 61.0375 496.193 61.775 499.401 63.25C502.608 64.725 505.001 66.875 506.567 69.6875C508.134 72.5125 508.923 75.9 508.923 79.8625C508.923 83.825 508.146 87.1625 506.593 89.875C505.039 92.5875 502.658 94.6375 499.451 96.0375C496.244 97.4375 492.121 98.1375 487.085 98.1375H468.379V61.025L468.391 61.0375Z" fill="#161F59"/>
<path d="M628.438 155.887H650.101L610.609 44.1125H585.551L546.109 155.887H567.772L577.031 128.325H619.154L628.438 155.887ZM582.507 112.062L597.642 67.0375H598.519L613.679 112.062H582.507Z" fill="#161F59"/>
</svg>
