<svg width="192" height="233" viewBox="0 0 192 233" fill="none" xmlns="http://www.w3.org/2000/svg">
<path d="M164.827 142.407C155.531 159.56 137.476 171.175 116.739 171.175C86.7054 171.175 62.0354 146.695 62.0354 116.498C62.0354 86.48 86.5267 61.822 116.739 61.822C137.476 61.822 155.531 73.4363 164.827 90.5896L192 75.9378C177.52 49.1356 149.274 31.0889 116.739 31.0889C69.5437 31.0889 31.2872 69.3266 31.2872 116.498C31.2872 163.67 69.5437 201.908 116.739 201.908C149.274 201.908 177.52 183.682 192 157.059L164.827 142.407Z" fill="white"/>
<path d="M0 116.5C0 52.1748 52.2004 0 116.557 0V233C52.3791 233 0 181.004 0 116.5Z" fill="white"/>
<path fill-rule="evenodd" clip-rule="evenodd" d="M116.739 171.175V201.908C69.5437 201.908 31.2872 163.67 31.2872 116.498C31.2872 69.3266 69.5437 31.0889 116.739 31.0889V61.822C86.7054 61.822 62.0354 86.3013 62.0354 116.498C62.0354 146.695 86.5267 171.175 116.739 171.175Z" fill="#50ACD6"/>
</svg>
