<svg width="340" height="340" viewBox="0 0 340 340" fill="none" xmlns="http://www.w3.org/2000/svg">
<rect width="340" height="340" rx="50" fill="#FFFBFB"/>
<rect x="0.5" y="0.5" width="339" height="339" rx="49.5" stroke="white" stroke-opacity="0.1"/>
<path d="M238.827 196.407C229.531 213.56 211.476 225.175 190.739 225.175C160.705 225.175 136.035 200.695 136.035 170.498C136.035 140.48 160.527 115.822 190.739 115.822C211.476 115.822 229.531 127.436 238.827 144.59L266 129.938C251.52 103.136 223.274 85.0889 190.739 85.0889C143.544 85.0889 105.287 123.327 105.287 170.498C105.287 217.67 143.544 255.908 190.739 255.908C223.274 255.908 251.52 237.682 266 211.059L238.827 196.407Z" fill="black"/>
<path d="M74 170.5C74 106.175 126.2 54 190.557 54V287C126.379 287 74 235.004 74 170.5Z" fill="#50ACD6"/>
<path fill-rule="evenodd" clip-rule="evenodd" d="M190.739 225.175V255.908C143.544 255.908 105.287 217.67 105.287 170.498C105.287 123.327 143.544 85.0889 190.739 85.0889V115.822C160.705 115.822 136.035 140.301 136.035 170.498C136.035 200.695 160.527 225.175 190.739 225.175Z" fill="white"/>
</svg>
