<svg width="464" height="87" viewBox="0 0 464 87" fill="none" xmlns="http://www.w3.org/2000/svg">
<path d="M67.5998 80.602L53.1833 73.039V29.5139L67.5998 36.3654V80.602Z" fill="#0E0E0F"/>
<path d="M0 86.4335L14.4562 79.9246V42.6897L0 49.5411V86.4335Z" fill="#0E0E0F"/>
<path d="M26.4187 75.0417L41.2218 69.1363V0L26.4187 6.50887V75.0417Z" fill="#0E0E0F"/>
<path opacity="0.6" d="M160.094 79.8009H145.555V6.34554H160.094V79.8009Z" fill="#0E0EF4"/>
<path d="M116.1 79.9353V74.881C112.369 79.0077 108.532 80.5545 102.729 80.5545C97.3382 80.5545 92.5698 78.9049 89.5647 75.7058C84.3806 70.5488 83.9675 62.0873 83.9675 53.0091C83.9675 44.0337 84.3806 35.5748 89.5647 30.4152C92.5698 27.2187 97.2429 25.5665 102.626 25.5665C108.119 25.5665 112.157 26.9078 115.79 30.9317V6.47993H129.264V79.9353H116.1ZM106.568 37.6382C98.5879 37.6382 97.4468 44.3447 97.4468 53.0091C97.4468 61.6735 98.5879 68.4855 106.568 68.4855C114.548 68.4855 115.795 61.6762 115.795 53.0091C115.795 44.342 114.545 37.6382 106.563 37.6382H106.568Z" fill="#0E0E0F"/>
<path d="M184.822 79.9353V49.1934H159.842V79.9353H145.433V6.47993H159.842V36.5024H184.822V6.47993H199.231V79.9353H184.822Z" fill="#0E0E0F"/>
<path d="M216.438 79.9353V6.47993H265.052V19.2737H230.844V36.5024H259.968V49.2962H230.844V67.1441H265.052V79.9353H216.438Z" fill="#0E0E0F"/>
<path d="M328.074 69.2075C322.778 76.6334 315.841 79.9353 305.786 79.9353H279.147V6.47993H305.786C315.847 6.47993 322.786 9.7818 328.074 17.2103C332.53 23.6059 332.736 30.9317 332.736 43.2089C332.736 55.4862 332.53 62.8093 328.074 69.2075ZM315.336 23.8141C312.953 20.8205 309.323 19.2737 304.557 19.2737H293.569V67.1441H304.557C309.323 67.1441 312.953 65.5947 315.336 62.6038C318.031 59.4047 318.341 54.7641 318.341 43.2089C318.341 31.6537 318.018 27.0105 315.336 23.8141Z" fill="#0E0E0F"/>
<path d="M400.008 49.8047C400.008 60.4323 398.351 66.7251 392.96 72.2036C386.741 78.7019 380.003 80.5597 372.126 80.5597C363.73 80.5597 357.511 77.7744 352.432 72.8229C345.072 65.4971 344.969 57.141 344.969 43.2141C344.969 29.2873 345.072 20.9285 352.432 13.6054C357.511 8.65389 363.73 5.86852 372.126 5.86852C389.23 5.86852 397.935 17.1128 399.905 29.39H385.393C383.736 22.2751 379.277 18.6596 372.126 18.6596C368.083 18.6596 365.078 20.2065 362.901 22.5808C360.103 25.5717 359.377 29.1687 359.377 43.2141C359.377 57.141 360.103 60.8566 362.901 63.9503C365.078 66.3219 368.083 67.766 372.126 67.766C376.582 67.766 380.003 66.2191 382.388 63.6393C384.771 60.8566 385.706 57.6575 385.706 53.8391V51.1513H372.126V39.0822H400.008V49.8047Z" fill="#0E0E0F"/>
<path d="M414.727 79.9353V6.47993H463.34V19.2737H429.135V36.5024H458.259V49.2962H429.135V67.1441H463.34V79.9353H414.727Z" fill="#0E0E0F"/>
</svg>
