<svg width="562" height="167" viewBox="0 0 562 167" fill="none" xmlns="http://www.w3.org/2000/svg">
<mask id="mask0_12145_12255" style="mask-type:luminance" maskUnits="userSpaceOnUse" x="0" y="0" width="172" height="138">
<path fill-rule="evenodd" clip-rule="evenodd" d="M0.794617 0.460205H171.728V137.718H0.794617V0.460205Z" fill="white"/>
</mask>
<g mask="url(#mask0_12145_12255)">
<path fill-rule="evenodd" clip-rule="evenodd" d="M20.8098 132.621C15.7303 121.782 12.8931 109.689 12.8931 96.9363C12.8931 50.3142 50.8101 12.5198 97.5832 12.5198C123.627 12.5198 146.925 24.2386 162.46 42.6738L171.728 34.9221C153.973 13.8531 127.348 0.460205 97.5832 0.460205C44.1283 0.460205 0.794617 43.654 0.794617 96.9363C0.794617 111.511 4.03702 125.331 9.84221 137.718L20.8098 132.621Z" fill="white"/>
</g>
<path fill-rule="evenodd" clip-rule="evenodd" d="M97.5832 154.219C65.8444 154.219 40.115 128.573 40.115 96.9363C40.115 65.3 65.8444 39.6536 97.5832 39.6536C115.256 39.6536 131.063 47.6077 141.604 60.1173L150.875 52.3636C138.114 37.2204 118.976 27.5941 97.5832 27.5941C59.1624 27.5941 28.0164 58.6396 28.0164 96.9363C28.0164 135.233 59.1624 166.278 97.5832 166.278V154.219Z" fill="white"/>
<path fill-rule="evenodd" clip-rule="evenodd" d="M118.435 114.377C113.442 120.302 105.954 124.07 97.5831 124.07C82.549 124.07 70.3613 111.922 70.3613 96.9362C70.3613 81.9506 82.549 69.8023 97.5831 69.8023C105.954 69.8023 113.442 73.5701 118.435 79.4957L128.861 70.7754C121.371 61.887 110.14 56.2354 97.5831 56.2354C75.0318 56.2354 56.7504 74.4577 56.7504 96.9362C56.7504 119.415 75.0318 137.637 97.5831 137.637C109.091 137.637 119.483 132.888 126.905 125.254L118.435 114.377Z" fill="white"/>
<path fill-rule="evenodd" clip-rule="evenodd" d="M192.038 83.7288H204.477V92.1034H204.696C205.859 89.4931 207.877 87.1919 210.751 85.1967C213.624 83.2036 217.026 82.2057 220.954 82.2057C224.372 82.2057 227.3 82.804 229.738 84.0008C232.175 85.1967 234.174 86.7741 235.739 88.7316C237.303 90.6897 238.449 92.938 239.176 95.4751C239.903 98.014 240.268 100.624 240.268 103.306V135.936H227.174V107.004C227.174 105.482 227.064 103.887 226.846 102.219C226.628 100.552 226.154 99.0475 225.428 97.7052C224.7 96.3642 223.699 95.2576 222.427 94.3879C221.153 93.5176 219.462 93.0824 217.353 93.0824C215.242 93.0824 213.425 93.5007 211.898 94.3336C210.37 95.1676 209.114 96.2365 208.133 97.5421C207.151 98.8469 206.404 100.353 205.895 102.055C205.386 103.76 205.132 105.482 205.132 107.222V135.936H192.038V83.7288Z" fill="white"/>
<path fill-rule="evenodd" clip-rule="evenodd" d="M245.831 94.1703V83.7288H254.997V68.6101H267.873V83.7288H280.967V94.1703H267.873V118.425C267.873 120.746 268.29 122.667 269.128 124.189C269.963 125.712 271.837 126.473 274.747 126.473C275.62 126.473 276.565 126.383 277.584 126.201C278.602 126.021 279.511 125.749 280.313 125.385L280.748 135.609C279.584 136.045 278.201 136.388 276.602 136.643C275.001 136.896 273.474 137.024 272.019 137.024C268.527 137.024 265.69 136.534 263.508 135.555C261.326 134.576 259.597 133.236 258.325 131.531C257.052 129.828 256.179 127.87 255.706 125.658C255.232 123.447 254.997 121.072 254.997 118.533V94.1703H245.831Z" fill="white"/>
<path fill-rule="evenodd" clip-rule="evenodd" d="M288.825 83.7288H301.373V92.4297H301.592C303.045 89.3843 305.083 86.9204 307.702 85.0336C310.321 83.1492 313.376 82.2057 316.868 82.2057C317.376 82.2057 317.921 82.2244 318.505 82.2601C319.086 82.2978 319.596 82.3878 320.032 82.5321V94.4967C319.159 94.279 318.413 94.1346 317.795 94.0615C317.176 93.9897 316.576 93.9528 315.995 93.9528C313.011 93.9528 310.61 94.4967 308.793 95.5838C306.974 96.6717 305.556 97.9765 304.538 99.4996C303.518 101.023 302.828 102.582 302.465 104.177C302.099 105.772 301.919 107.041 301.919 107.983V135.936H288.825V83.7288Z" fill="white"/>
<path fill-rule="evenodd" clip-rule="evenodd" d="M326.032 135.936H339.126V83.7288H326.032V135.936ZM324.177 65.9999C324.177 63.8981 324.957 62.0673 326.522 60.5075C328.086 58.9488 330.069 58.1692 332.47 58.1692C334.87 58.1692 336.889 58.9132 338.526 60.3988C340.162 61.8854 340.981 63.7535 340.981 65.9999C340.981 68.2481 340.162 70.1163 338.526 71.6011C336.889 73.0886 334.87 73.8313 332.47 73.8313C330.069 73.8313 328.086 73.0529 326.522 71.4924C324.957 69.9343 324.177 68.1037 324.177 65.9999Z" fill="white"/>
<path fill-rule="evenodd" clip-rule="evenodd" d="M356.041 94.1703H346.111V83.7289H356.041V79.8245C356.041 76.7079 356.385 73.7169 357.078 70.8515C357.768 67.988 358.933 65.4673 360.57 63.2921C362.206 61.1171 364.37 59.3953 367.062 58.1261C369.752 56.8582 373.135 56.2224 377.21 56.2224C378.664 56.2224 379.883 56.2768 380.866 56.3855C381.847 56.4943 382.846 56.6951 383.866 56.9838L382.993 68.078C382.265 67.8605 381.483 67.6805 380.647 67.5341C379.81 67.3897 378.918 67.3166 377.973 67.3166C376.081 67.3166 374.554 67.6805 373.391 68.4045C372.226 69.1297 371.335 70.0732 370.718 71.2323C370.098 72.3926 369.681 73.6625 369.462 75.0392C369.244 76.4171 369.135 77.7581 369.135 79.0629V83.7289H381.247V94.1703H369.135V135.936H356.041V94.1703Z" fill="white"/>
<path fill-rule="evenodd" clip-rule="evenodd" d="M436.026 135.936H423.587V127.561H423.368C422.204 130.172 420.185 132.474 417.312 134.467C414.438 136.461 411.038 137.459 407.11 137.459C403.69 137.459 400.762 136.861 398.326 135.664C395.888 134.467 393.888 132.891 392.324 130.933C390.759 128.975 389.613 126.729 388.887 124.19C388.159 121.652 387.796 119.042 387.796 116.358V83.7288H400.89V112.66C400.89 114.183 400.999 115.779 401.218 117.446C401.436 119.115 401.908 120.619 402.636 121.959C403.362 123.303 404.363 124.407 405.636 125.277C406.908 126.147 408.6 126.582 410.711 126.582C412.746 126.582 414.547 126.166 416.112 125.331C417.676 124.498 418.949 123.428 419.931 122.123C420.913 120.818 421.658 119.314 422.168 117.609C422.676 115.906 422.932 114.183 422.932 112.443V83.7288H436.026V135.936Z" fill="white"/>
<path fill-rule="evenodd" clip-rule="evenodd" d="M148.344 95.5294C151.072 93.1744 154.4 91.9945 158.328 91.9945C160.438 91.9945 162.273 92.3397 163.839 93.028C165.402 93.7182 166.693 94.6424 167.712 95.8013C168.73 96.9623 169.475 98.3028 169.95 99.8258C170.422 101.348 170.659 102.944 170.659 104.611H143.816C144.106 100.914 145.616 97.8865 148.344 95.5294ZM172.623 120.056C171.167 122.16 169.312 123.809 167.058 125.005C164.802 126.201 162.038 126.8 158.765 126.8C156.872 126.8 155.055 126.473 153.309 125.821C151.563 125.168 149.998 124.281 148.617 123.156C147.234 122.033 146.124 120.691 145.289 119.132C144.452 117.573 143.961 115.852 143.816 113.966H183.644C183.715 113.386 183.753 112.806 183.753 112.225V110.485C183.753 105.772 183.115 101.658 181.843 98.1396C180.57 94.6236 178.805 91.687 176.551 89.3299C174.295 86.9748 171.622 85.1967 168.531 84.0006C165.438 82.804 162.074 82.2057 158.437 82.2057C154.509 82.2057 150.854 82.8773 147.472 84.2183C144.089 85.5606 141.16 87.4456 138.687 89.8739C136.213 92.3041 134.268 95.2407 132.85 98.6836C131.431 102.129 130.722 105.954 130.722 110.159C130.722 114.438 131.431 118.261 132.85 121.633C134.268 125.005 136.232 127.851 138.742 130.171C141.251 132.493 144.215 134.287 147.634 135.555C151.054 136.823 154.799 137.459 158.874 137.459C167.667 137.459 174.592 134.666 179.653 129.085L172.623 120.056Z" fill="white"/>
<path fill-rule="evenodd" clip-rule="evenodd" d="M525.74 95.5294C528.468 93.1744 531.796 91.9945 535.724 91.9945C537.834 91.9945 539.67 92.3397 541.236 93.028C542.799 93.7182 544.089 94.6424 545.109 95.8013C546.127 96.9623 546.872 98.3028 547.346 99.8258C547.818 101.348 548.055 102.944 548.055 104.611H521.212C521.502 100.914 523.013 97.8865 525.74 95.5294ZM550.019 120.056C548.563 122.16 546.708 123.809 544.455 125.005C542.198 126.201 539.435 126.8 536.161 126.8C534.269 126.8 532.451 126.473 530.705 125.821C528.959 125.168 527.394 124.281 526.013 123.156C524.631 122.033 523.521 120.691 522.685 119.132C521.848 117.573 521.357 115.852 521.212 113.966H561.04C561.112 113.386 561.149 112.806 561.149 112.225V110.485C561.149 105.772 560.512 101.658 559.239 98.1396C557.966 94.6236 556.201 91.687 553.948 89.3299C551.692 86.9748 549.018 85.1967 545.927 84.0006C542.834 82.804 539.47 82.2057 535.834 82.2057C531.905 82.2057 528.25 82.8773 524.868 84.2183C521.485 85.5606 518.556 87.4456 516.084 89.8739C513.61 92.3041 511.664 95.2407 510.246 98.6836C508.827 102.129 508.118 105.954 508.118 110.159C508.118 114.438 508.827 118.261 510.246 121.633C511.664 125.005 513.629 127.851 516.138 130.171C518.647 132.493 521.611 134.287 525.031 135.555C528.45 136.823 532.196 137.459 536.27 137.459C545.064 137.459 551.988 134.666 557.05 129.085L550.019 120.056Z" fill="white"/>
<path fill-rule="evenodd" clip-rule="evenodd" d="M486.538 115.685C485.81 117.673 484.773 119.426 483.429 120.944C482.081 122.461 480.445 123.671 478.518 124.575C476.59 125.479 474.426 125.93 472.025 125.93C469.697 125.93 467.606 125.461 465.751 124.52C463.896 123.581 462.331 122.334 461.059 120.78C459.786 119.227 458.804 117.473 458.113 115.522C457.421 113.571 457.077 111.549 457.077 109.451C457.077 107.141 457.421 104.972 458.113 102.948C458.804 100.924 459.786 99.1714 461.059 97.6898C462.331 96.2076 463.896 95.0335 465.751 94.1665C467.606 93.3 469.734 92.865 472.135 92.865C474.535 92.865 476.68 93.3 478.572 94.1665C480.464 95.0335 482.081 96.2263 483.429 97.7441C484.773 99.262 485.81 101.032 486.538 103.055C487.265 105.079 487.629 107.212 487.629 109.451C487.629 111.62 487.265 113.699 486.538 115.685ZM487.629 83.7289V91.5594H487.411C485.518 88.3697 482.973 86.0126 479.773 84.4903C476.571 82.9672 473.117 82.2058 469.407 82.2058C465.479 82.2058 461.932 82.9316 458.768 84.3816C455.603 85.8326 452.911 87.7901 450.693 90.2546C448.473 92.7204 446.765 95.6214 445.565 98.9556C444.364 102.292 443.765 105.845 443.765 109.615C443.765 113.313 444.382 116.812 445.619 120.111C446.856 123.411 448.582 126.293 450.802 128.757C453.02 131.223 455.729 133.181 458.931 134.63C462.132 136.08 465.697 136.806 469.625 136.806C473.262 136.806 476.554 136.128 479.5 134.773C482.446 133.419 484.864 131.459 486.757 128.895H486.975V132.716C486.975 135.336 486.702 137.737 486.156 139.921C485.611 142.103 484.7 143.996 483.429 145.597C482.155 147.198 480.445 148.452 478.3 149.363C476.153 150.272 473.516 150.728 470.389 150.728C467.116 150.728 463.878 150.092 460.677 148.824C457.56 147.589 454.755 145.819 452.259 143.518L444.528 153.447C446.201 154.824 448.092 156.057 450.202 157.145C452.311 158.233 454.512 159.138 456.804 159.864C459.095 160.588 461.422 161.132 463.788 161.495C466.15 161.857 468.387 162.039 470.498 162.039C475.589 162.039 479.991 161.314 483.701 159.864C487.411 158.413 490.484 156.365 492.922 153.719C495.358 151.071 497.159 147.845 498.323 144.039C499.486 140.232 500.069 135.971 500.069 131.259V83.7289H487.629Z" fill="white"/>
</svg>
