<svg width="87" height="22" viewBox="0 0 87 22" fill="none" xmlns="http://www.w3.org/2000/svg">
<path d="M7.52052 18.7575V4.03839L13.37 6.823V21.5417L7.52052 18.7575ZM0 15.177V0.458282L5.84944 3.24289V17.9616L0 15.177Z" fill="white"/>
<path d="M20.7255 3.03669H28.3495C30.1082 3.03669 31.4273 3.41677 32.3067 4.17692C33.1861 4.93708 33.6258 5.99534 33.6258 7.3517C33.6258 8.11186 33.5141 8.74532 33.2905 9.2521C33.0669 9.74396 32.8061 10.1464 32.508 10.4594C32.2099 10.7575 31.9118 10.9736 31.6137 11.1078C31.3305 11.2419 31.1218 11.3314 30.9876 11.3761V11.4208C31.2261 11.4506 31.4795 11.5251 31.7478 11.6444C32.031 11.7636 32.2918 11.9574 32.5303 12.2257C32.7688 12.479 32.9626 12.8144 33.1116 13.2317C33.2756 13.6491 33.3575 14.1708 33.3575 14.7968C33.3575 15.7358 33.4246 16.5928 33.5588 17.3679C33.7078 18.1281 33.9314 18.6721 34.2295 19H31.2336C31.0249 18.6572 30.8982 18.2771 30.8535 17.8598C30.8237 17.4424 30.8088 17.04 30.8088 16.6525C30.8088 15.9221 30.7641 15.2961 30.6746 14.7744C30.5852 14.2378 30.4213 13.7981 30.1828 13.4553C29.9443 13.0976 29.6164 12.8368 29.199 12.6728C28.7966 12.5088 28.2749 12.4269 27.634 12.4269H23.5202V19H20.7255V3.03669ZM23.5202 10.3029H28.1035C28.9978 10.3029 29.676 10.0942 30.1381 9.67689C30.6001 9.24464 30.8311 8.60373 30.8311 7.75414C30.8311 7.24737 30.7566 6.83748 30.6076 6.52447C30.4585 6.19656 30.2498 5.94317 29.9816 5.76431C29.7282 5.58545 29.4301 5.46621 29.0873 5.40659C28.7593 5.34697 28.4165 5.31716 28.0588 5.31716H23.5202V10.3029ZM42.9289 12.2033C42.8991 11.8009 42.8096 11.4133 42.6606 11.0407C42.5264 10.6681 42.3327 10.3476 42.0793 10.0793C41.8408 9.79613 41.5427 9.57255 41.185 9.4086C40.8422 9.22974 40.4546 9.14031 40.0224 9.14031C39.5752 9.14031 39.1653 9.22229 38.7927 9.38624C38.435 9.53529 38.122 9.75141 37.8537 10.0346C37.6003 10.3029 37.3916 10.6234 37.2277 10.996C37.0786 11.3686 36.9967 11.771 36.9817 12.2033H42.9289ZM36.9817 13.8801C36.9817 14.3273 37.0414 14.7595 37.1606 15.1769C37.2948 15.5942 37.4885 15.9594 37.7419 16.2724C37.9953 16.5854 38.3157 16.8388 38.7033 17.0325C39.0908 17.2114 39.5529 17.3008 40.0894 17.3008C40.8347 17.3008 41.4309 17.1443 41.8781 16.8313C42.3401 16.5034 42.6829 16.019 42.9065 15.3781H45.3211C45.187 16.0041 44.9559 16.563 44.628 17.0549C44.3001 17.5468 43.9051 17.9641 43.4431 18.3069C42.981 18.6348 42.4594 18.8808 41.8781 19.0447C41.3117 19.2236 40.7155 19.313 40.0894 19.313C39.1802 19.313 38.3754 19.164 37.6748 18.8659C36.9743 18.5678 36.3781 18.1504 35.8862 17.6138C35.4093 17.0772 35.0441 16.4363 34.7907 15.6911C34.5522 14.9458 34.433 14.126 34.433 13.2317C34.433 12.412 34.5597 11.6369 34.8131 10.9066C35.0814 10.1613 35.454 9.51293 35.9309 8.96145C36.4228 8.39505 37.0116 7.9479 37.6972 7.61999C38.3828 7.29208 39.1579 7.12813 40.0224 7.12813C40.9316 7.12813 41.7439 7.32189 42.4594 7.70942C43.1897 8.08205 43.7934 8.58137 44.2703 9.20738C44.7473 9.83339 45.0901 10.5563 45.2988 11.3761C45.5223 12.1809 45.582 13.0156 45.4776 13.8801H36.9817ZM53.4071 3.03669H55.9558V19H53.4071V3.03669ZM45.1571 7.44113H47.0575V6.47976C47.0575 5.74941 47.1469 5.16066 47.3258 4.71351C47.5047 4.25145 47.7431 3.90118 48.0412 3.6627C48.3393 3.40931 48.6747 3.24536 49.0473 3.17083C49.4349 3.0814 49.8373 3.03669 50.2546 3.03669C51.0744 3.03669 51.6706 3.08886 52.0432 3.19319V5.18302C51.8793 5.1383 51.7004 5.10849 51.5067 5.09359C51.3278 5.06378 51.1117 5.04887 50.8583 5.04887C50.5155 5.04887 50.2174 5.13085 49.964 5.2948C49.7255 5.45876 49.6063 5.77922 49.6063 6.25618V7.44113H51.775V9.34153H49.6063V19H47.0575V9.34153H45.1571V7.44113ZM65.5397 12.2033C65.5099 11.8009 65.4205 11.4133 65.2714 11.0407C65.1373 10.6681 64.9435 10.3476 64.6901 10.0793C64.4516 9.79613 64.1535 9.57255 63.7958 9.4086C63.453 9.22974 63.0655 9.14031 62.6332 9.14031C62.1861 9.14031 61.7762 9.22229 61.4036 9.38624C61.0458 9.53529 60.7328 9.75141 60.4645 10.0346C60.2112 10.3029 60.0025 10.6234 59.8385 10.996C59.6895 11.3686 59.6075 11.771 59.5926 12.2033H65.5397ZM59.5926 13.8801C59.5926 14.3273 59.6522 14.7595 59.7715 15.1769C59.9056 15.5942 60.0994 15.9594 60.3528 16.2724C60.6061 16.5854 60.9266 16.8388 61.3141 17.0325C61.7017 17.2114 62.1637 17.3008 62.7003 17.3008C63.4456 17.3008 64.0418 17.1443 64.4889 16.8313C64.951 16.5034 65.2938 16.019 65.5174 15.3781H67.932C67.7978 16.0041 67.5668 16.563 67.2389 17.0549C66.911 17.5468 66.516 17.9641 66.0539 18.3069C65.5919 18.6348 65.0702 18.8808 64.4889 19.0447C63.9225 19.2236 63.3263 19.313 62.7003 19.313C61.7911 19.313 60.9862 19.164 60.2857 18.8659C59.5851 18.5678 58.9889 18.1504 58.4971 17.6138C58.0201 17.0772 57.6549 16.4363 57.4016 15.6911C57.1631 14.9458 57.0438 14.126 57.0438 13.2317C57.0438 12.412 57.1705 11.6369 57.4239 10.9066C57.6922 10.1613 58.0648 9.51293 58.5418 8.96145C59.0337 8.39505 59.6224 7.9479 60.308 7.61999C60.9937 7.29208 61.7687 7.12813 62.6332 7.12813C63.5424 7.12813 64.3548 7.32189 65.0702 7.70942C65.8005 8.08205 66.4042 8.58137 66.8812 9.20738C67.3581 9.83339 67.7009 10.5563 67.9096 11.3761C68.1332 12.1809 68.1928 13.0156 68.0885 13.8801H59.5926ZM76.711 11.309C76.6067 10.5936 76.316 10.057 75.839 9.69925C75.377 9.32662 74.7882 9.14031 74.0728 9.14031C73.7449 9.14031 73.3946 9.19993 73.022 9.31917C72.6494 9.4235 72.3065 9.63217 71.9935 9.94518C71.6805 10.2433 71.4197 10.6681 71.211 11.2196C71.0024 11.7561 70.898 12.4641 70.898 13.3435C70.898 13.8205 70.9502 14.2975 71.0545 14.7744C71.1738 15.2514 71.3526 15.6762 71.5911 16.0488C71.8445 16.4214 72.1649 16.727 72.5525 16.9655C72.94 17.189 73.4095 17.3008 73.961 17.3008C74.7063 17.3008 75.3174 17.0698 75.7943 16.6077C76.2862 16.1457 76.5917 15.4973 76.711 14.6626H79.2598C79.0213 16.168 78.4474 17.3232 77.5382 18.1281C76.6439 18.918 75.4515 19.313 73.961 19.313C73.0518 19.313 72.2469 19.164 71.5464 18.8659C70.8608 18.5528 70.2795 18.1355 69.8025 17.6138C69.3255 17.0772 68.9604 16.4438 68.707 15.7134C68.4685 14.9831 68.3493 14.1931 68.3493 13.3435C68.3493 12.479 68.4685 11.6667 68.707 10.9066C68.9455 10.1464 69.3032 9.49058 69.7801 8.93909C70.2571 8.3727 70.8458 7.933 71.5464 7.61999C72.2618 7.29208 73.0965 7.12813 74.0504 7.12813C74.7212 7.12813 75.3546 7.21756 75.9508 7.39642C76.5619 7.56037 77.0985 7.81376 77.5606 8.15657C78.0375 8.49939 78.4251 8.93164 78.7232 9.45331C79.0213 9.97499 79.2001 10.5936 79.2598 11.309H76.711ZM79.051 7.44113H80.9738V3.97571H83.5225V7.44113H85.8254V9.34153H83.5225V15.5122C83.5225 15.7805 83.53 16.0115 83.5449 16.2053C83.5747 16.3991 83.6269 16.563 83.7014 16.6972C83.7908 16.8313 83.9175 16.9357 84.0815 17.0102C84.2454 17.0698 84.469 17.0996 84.7522 17.0996C84.9311 17.0996 85.1099 17.0996 85.2888 17.0996C85.4676 17.0847 85.6465 17.0549 85.8254 17.0102V18.9776C85.5422 19.0075 85.2664 19.0373 84.9981 19.0671C84.7298 19.0969 84.4541 19.1118 84.1709 19.1118C83.5002 19.1118 82.9561 19.0522 82.5388 18.9329C82.1364 18.7988 81.8159 18.6125 81.5774 18.374C81.3539 18.1206 81.1974 17.8076 81.1079 17.435C81.0334 17.0623 80.9887 16.6375 80.9738 16.1606V9.34153H79.051V7.44113Z" fill="white"/>
</svg>
