<svg width="4641" height="1088" viewBox="0 0 4641 1088" fill="none" xmlns="http://www.w3.org/2000/svg">
<g clip-path="url(#clip0_44_471)" filter="url(#filter0_d_44_471)">
<path d="M323.67 940.099C403.81 940.099 457.237 893.172 473.265 817.912H628.202C608.612 973.745 489.293 1080 324.56 1080C142.019 1080 4 948.068 4 766.558C4 585.047 142.019 453.12 324.56 453.12C489.293 453.12 608.612 559.37 628.202 715.204H473.265C457.237 639.943 403.81 593.016 323.67 593.016C224.83 593.016 156.266 666.506 156.266 766.558C156.266 866.61 224.83 940.099 323.67 940.099Z" fill="#FAFAF9"/>
<path d="M1023.89 964.006H767.445L727.375 1067.6H567.095L824.434 461.975H968.686L1225.13 1067.6H1064.85L1023.89 964.006ZM974.029 836.506L895.669 636.402L817.31 836.506H974.029Z" fill="#FAFAF9"/>
<path d="M1606.86 1067.6L1491.11 893.172H1377.13V1067.6H1226.64V465.516H1491.11C1641.59 465.516 1742.21 546.975 1742.21 677.131C1742.21 755.933 1703.92 819.683 1639.81 856.87L1782.28 1067.6H1606.86ZM1377.13 758.589H1488.43C1546.31 758.589 1591.73 726.714 1591.73 677.131C1591.73 628.433 1546.31 597.443 1488.43 597.443H1377.13V758.589Z" fill="#FAFAF9"/>
<path d="M2156.71 1067.6L2040.96 893.172H1926.98V1067.6H1776.49V465.516H2040.96C2191.44 465.516 2292.06 546.975 2292.06 677.131C2292.06 755.933 2253.77 819.683 2189.66 856.87L2332.13 1067.6H2156.71ZM1926.98 758.589H2038.28C2096.16 758.589 2141.58 726.714 2141.58 677.131C2141.58 628.433 2096.16 597.443 2038.28 597.443H1926.98V758.589Z" fill="#FAFAF9"/>
<path d="M2615.26 453.12C2797.81 453.12 2935.82 591.245 2935.82 766.558C2935.82 941.87 2797.81 1080 2615.26 1080C2432.72 1080 2294.7 941.87 2294.7 766.558C2294.7 591.245 2432.72 453.12 2615.26 453.12ZM2615.26 940.985C2713.21 940.985 2783.56 861.297 2783.56 766.558C2783.56 671.818 2713.21 592.131 2615.26 592.131C2517.32 592.131 2446.97 671.818 2446.97 766.558C2446.97 861.297 2517.32 940.985 2615.26 940.985Z" fill="#FAFAF9"/>
<path d="M3424.51 599.214H3231.29V1067.6H3081.69V599.214H2888.46V465.516H3424.51V599.214Z" fill="#FAFAF9"/>
<rect x="4368.06" y="135" width="269.942" height="135" fill="#498448"/>
<rect x="4503.03" y="135" width="134.971" height="135" fill="#3D783D"/>
<rect x="3558.23" y="945" width="134.971" height="135" fill="#F98635"/>
<rect x="3693.2" y="675" width="269.942" height="270" fill="#F98635"/>
<rect x="3828.17" y="540" width="269.942" height="270" fill="#F98635"/>
<rect x="3963.15" y="405" width="269.942" height="270" fill="#F98635"/>
<rect x="3828.17" y="810" width="134.971" height="135" fill="#EA7928"/>
<rect x="3963.15" y="675" width="134.971" height="135" fill="#EA7928"/>
<rect x="4098.12" y="540" width="134.971" height="135" fill="#EA7928"/>
<rect x="3963.15" y="135" width="269.942" height="135" fill="#498448"/>
<rect x="4098.12" y="135" width="134.971" height="135" fill="#3D783D"/>
<rect x="4098.12" width="134.971" height="135" fill="#498448"/>
<rect x="4368.06" width="134.971" height="270" fill="#498448"/>
<rect x="4233.09" y="270" width="134.971" height="135" fill="#498448"/>
<rect x="4368.06" y="405" width="134.971" height="135" fill="#498448"/>
<rect x="4503.03" y="405" width="134.971" height="270" fill="#498448"/>
<rect x="4503.03" y="540" width="134.971" height="135" fill="#3D783D"/>
</g>
<defs>
<filter id="filter0_d_44_471" x="0" y="0" width="4641" height="1088" filterUnits="userSpaceOnUse" color-interpolation-filters="sRGB">
<feFlood flood-opacity="0" result="BackgroundImageFix"/>
<feColorMatrix in="SourceAlpha" type="matrix" values="0 0 0 0 0 0 0 0 0 0 0 0 0 0 0 0 0 0 127 0" result="hardAlpha"/>
<feOffset dy="4"/>
<feGaussianBlur stdDeviation="2"/>
<feComposite in2="hardAlpha" operator="out"/>
<feColorMatrix type="matrix" values="0 0 0 0 0 0 0 0 0 0 0 0 0 0 0 0 0 0 0.25 0"/>
<feBlend mode="normal" in2="BackgroundImageFix" result="effect1_dropShadow_44_471"/>
<feBlend mode="normal" in="SourceGraphic" in2="effect1_dropShadow_44_471" result="shape"/>
</filter>
<clipPath id="clip0_44_471">
<rect width="4633" height="1080" fill="white" transform="translate(4)"/>
</clipPath>
</defs>
</svg>
