<svg width="4641" height="1088" viewBox="0 0 4641 1088" fill="none" xmlns="http://www.w3.org/2000/svg">
<g clip-path="url(#clip0_44_449)" filter="url(#filter0_d_44_449)">
<path d="M323.62 940.099C403.748 940.099 457.166 893.172 473.192 817.912H628.105C608.519 973.745 489.217 1080 324.511 1080C141.998 1080 4 948.068 4 766.558C4 585.047 141.998 453.12 324.511 453.12C489.217 453.12 608.519 559.37 628.105 715.204H473.192C457.166 639.943 403.748 593.016 323.62 593.016C224.796 593.016 156.243 666.506 156.243 766.558C156.243 866.61 224.796 940.099 323.62 940.099Z" fill="#011F18"/>
<path d="M1023.74 964.006H767.327L727.263 1067.6H567.008L824.307 461.975H968.536L1224.94 1067.6H1064.69L1023.74 964.006ZM973.878 836.506L895.531 636.402L817.184 836.506H973.878Z" fill="#011F18"/>
<path d="M1606.62 1067.6L1490.88 893.172H1376.92V1067.6H1226.45V465.516H1490.88C1641.34 465.516 1741.94 546.975 1741.94 677.131C1741.94 755.933 1703.66 819.683 1639.56 856.87L1782.01 1067.6H1606.62ZM1376.92 758.589H1488.2C1546.07 758.589 1591.48 726.714 1591.48 677.131C1591.48 628.433 1546.07 597.443 1488.2 597.443H1376.92V758.589Z" fill="#011F18"/>
<path d="M2156.38 1067.6L2040.64 893.172H1926.68V1067.6H1776.22V465.516H2040.64C2191.1 465.516 2291.71 546.975 2291.71 677.131C2291.71 755.933 2253.42 819.683 2189.32 856.87L2331.77 1067.6H2156.38ZM1926.68 758.589H2037.97C2095.84 758.589 2141.24 726.714 2141.24 677.131C2141.24 628.433 2095.84 597.443 2037.97 597.443H1926.68V758.589Z" fill="#011F18"/>
<path d="M2614.86 453.12C2797.37 453.12 2935.37 591.245 2935.37 766.558C2935.37 941.87 2797.37 1080 2614.86 1080C2432.35 1080 2294.35 941.87 2294.35 766.558C2294.35 591.245 2432.35 453.12 2614.86 453.12ZM2614.86 940.985C2712.79 940.985 2783.13 861.297 2783.13 766.558C2783.13 671.818 2712.79 592.131 2614.86 592.131C2516.93 592.131 2446.59 671.818 2446.59 766.558C2446.59 861.297 2516.93 940.985 2614.86 940.985Z" fill="#011F18"/>
<path d="M3423.98 599.214H3230.79V1067.6H3081.21V599.214H2888.02V465.516H3423.98V599.214Z" fill="#011F18"/>
<rect x="4367.38" y="135" width="269.9" height="135" fill="#498448"/>
<rect x="4502.33" y="135" width="134.95" height="135" fill="#3D783D"/>
<rect x="3557.68" y="945" width="134.95" height="135" fill="#F98635"/>
<rect x="3692.63" y="675" width="269.9" height="270" fill="#F98635"/>
<rect x="3827.58" y="540" width="269.9" height="270" fill="#F98635"/>
<rect x="3962.53" y="405" width="269.9" height="270" fill="#F98635"/>
<rect x="3827.58" y="810" width="134.95" height="135" fill="#EA7928"/>
<rect x="3962.53" y="675" width="134.95" height="135" fill="#EA7928"/>
<rect x="4097.48" y="540" width="134.95" height="135" fill="#EA7928"/>
<rect x="3962.53" y="135" width="269.9" height="135" fill="#498448"/>
<rect x="4097.48" y="135" width="134.95" height="135" fill="#3D783D"/>
<rect x="4097.48" width="134.95" height="135" fill="#498448"/>
<rect x="4367.38" width="134.95" height="270" fill="#498448"/>
<rect x="4232.43" y="270" width="134.95" height="135" fill="#498448"/>
<rect x="4367.38" y="405" width="134.95" height="135" fill="#498448"/>
<rect x="4502.33" y="405" width="134.95" height="270" fill="#498448"/>
<rect x="4502.33" y="540" width="134.95" height="135" fill="#3D783D"/>
</g>
<defs>
<filter id="filter0_d_44_449" x="0" y="0" width="4641" height="1088" filterUnits="userSpaceOnUse" color-interpolation-filters="sRGB">
<feFlood flood-opacity="0" result="BackgroundImageFix"/>
<feColorMatrix in="SourceAlpha" type="matrix" values="0 0 0 0 0 0 0 0 0 0 0 0 0 0 0 0 0 0 127 0" result="hardAlpha"/>
<feOffset dy="4"/>
<feGaussianBlur stdDeviation="2"/>
<feComposite in2="hardAlpha" operator="out"/>
<feColorMatrix type="matrix" values="0 0 0 0 0 0 0 0 0 0 0 0 0 0 0 0 0 0 0.25 0"/>
<feBlend mode="normal" in2="BackgroundImageFix" result="effect1_dropShadow_44_449"/>
<feBlend mode="normal" in="SourceGraphic" in2="effect1_dropShadow_44_449" result="shape"/>
</filter>
<clipPath id="clip0_44_449">
<rect width="4633" height="1080" fill="white" transform="translate(4)"/>
</clipPath>
</defs>
</svg>
