<svg width="213" height="50" viewBox="0 0 213 50" fill="none" xmlns="http://www.w3.org/2000/svg" data-sentry-element="svg" data-sentry-component="IconVectisFull" data-sentry-source-file="icons.tsx"><path d="M83.2108 37.3751L69.5703 13.9751H73.6919L84.9771 33.4101L96.197 13.9751H100.319L86.7108 37.3751H83.2108ZM103.129 37.3751V13.9751H124.719V17.4851H106.695V23.9201H121.186V27.4301H106.695V33.8651H124.719V37.3751H103.129ZM132.361 37.3751C131.576 37.3751 130.856 37.1908 130.202 36.8226C129.569 36.4326 129.057 35.9233 128.664 35.2951C128.293 34.6451 128.108 33.9301 128.108 33.1501V18.2001C128.108 17.4201 128.293 16.7159 128.664 16.0876C129.057 15.4376 129.569 14.9284 130.202 14.5601C130.856 14.1701 131.576 13.9751 132.361 13.9751H151.595V17.4851H132.851C132.502 17.4851 132.208 17.6043 131.968 17.8426C131.75 18.0593 131.641 18.3409 131.641 18.6876V32.6626C131.641 33.0093 131.75 33.3018 131.968 33.5401C132.208 33.7568 132.502 33.8651 132.851 33.8651H151.595V37.3751H132.361ZM163.837 37.3751V17.4851H153.828V13.9751H177.379V17.4851H167.37V37.3751H163.837ZM179.728 37.3751V13.9751H183.261V37.3751H179.728ZM190.943 37.3751C190.18 37.3751 189.471 37.1908 188.817 36.8226C188.163 36.4326 187.64 35.9233 187.247 35.2951C186.876 34.6451 186.691 33.9301 186.691 33.1501V31.7851H190.224V33.0526C190.224 33.2693 190.3 33.4643 190.453 33.6376C190.627 33.7893 190.823 33.8651 191.041 33.8651H205.892C206.11 33.8651 206.296 33.7893 206.448 33.6376C206.601 33.4643 206.677 33.2693 206.677 33.0526V28.2426C206.677 28.0043 206.601 27.8093 206.448 27.6576C206.296 27.5058 206.11 27.4301 205.892 27.4301H190.943C190.18 27.4301 189.471 27.2458 188.817 26.8776C188.163 26.4876 187.64 25.9783 187.247 25.3501C186.876 24.7001 186.691 23.9851 186.691 23.2051V18.2001C186.691 17.4201 186.876 16.7159 187.247 16.0876C187.64 15.4376 188.163 14.9284 188.817 14.5601C189.471 14.1701 190.18 13.9751 190.943 13.9751H205.99C206.754 13.9751 207.462 14.1701 208.117 14.5601C208.771 14.9284 209.283 15.4376 209.654 16.0876C210.047 16.7159 210.243 17.4201 210.243 18.2001V19.5651H206.677V18.2976C206.677 18.0809 206.601 17.8968 206.448 17.7451C206.296 17.5718 206.11 17.4851 205.892 17.4851H191.041C190.823 17.4851 190.627 17.5718 190.453 17.7451C190.3 17.8968 190.224 18.0809 190.224 18.2976V23.1076C190.224 23.3459 190.3 23.5409 190.453 23.6926C190.627 23.8443 190.823 23.9201 191.041 23.9201H205.99C206.754 23.9201 207.462 24.1151 208.117 24.5051C208.771 24.8734 209.283 25.3826 209.654 26.0326C210.047 26.6608 210.243 27.3651 210.243 28.1451V33.1501C210.243 33.9301 210.047 34.6451 209.654 35.2951C209.283 35.9233 208.771 36.4326 208.117 36.8226C207.462 37.1908 206.754 37.3751 205.99 37.3751H190.943Z" fill="white" data-sentry-element="path" data-sentry-source-file="icons.tsx"></path><path d="M55.0351 25.914C55.1604 25.7502 55.2409 25.4952 55.2802 25.1612C55.7824 20.8865 49.5223 3.6902 44.0065 0C51.4424 15.4839 52.9562 26.5593 41.0625 32.9033C44.0206 33.169 45.6944 32.9972 47.5682 32.1683C47.578 32.164 47.5881 32.1595 47.5979 32.1553C48.0329 31.9613 48.4793 31.732 48.9556 31.4643L55.0351 25.914Z" fill="url(#paint0_linear_2055_3545)" data-sentry-element="path" data-sentry-source-file="icons.tsx"></path><path d="M13.1951 0C5.52339 7.31182 0.766069 24.7312 2.17108 25.914C2.57935 26.2577 4.98671 28.4355 8.19691 31.3522C11.1102 32.9782 12.9188 33.1923 16.3061 32.9033C5.06134 26.7743 5.38571 17.2043 13.1951 0Z" fill="#0B727C" data-sentry-element="path" data-sentry-source-file="icons.tsx"></path><path d="M24.9753 22.5801C26.6656 26.5439 25.4429 29.1752 23.1831 29.8734L23.0742 30.3334C25.542 29.7614 26.9006 27.0184 24.9753 22.5801Z" fill="#23FFFF" data-sentry-element="path" data-sentry-source-file="icons.tsx"></path><path fill-rule="evenodd" clip-rule="evenodd" d="M23.0751 30.334L20.2389 42.3228C17.5084 39.8327 14.4594 37.0537 11.6524 34.499C10.4388 33.3942 9.27042 32.3315 8.19252 31.3522C11.1058 32.9782 12.9144 33.1923 16.3017 32.9033C5.05695 26.7743 5.38132 17.2043 13.1907 0C7.57717 22.9597 17.8306 31.5495 23.0751 30.334Z" fill="url(#paint1_linear_2055_3545)" data-sentry-element="path" data-sentry-source-file="icons.tsx"></path><path d="M23.1875 29.874C18.2138 31.4108 8.2163 23.585 13.1943 0C7.58071 22.9597 17.8342 31.5495 23.0786 30.334L23.1875 29.874Z" fill="#23FFFF" data-sentry-element="path" data-sentry-source-file="icons.tsx"></path><path d="M44.0068 0C52.9027 31.4907 29.6316 35.8855 31.6036 24.923C30.0981 34.6048 51.2558 31.9403 44.0068 0Z" fill="#23FFFF" data-sentry-element="path" data-sentry-source-file="icons.tsx"></path><path d="M28.6562 12.7959V13.226L34.4722 18.7099L28.6562 12.7959Z" fill="url(#paint2_linear_2055_3545)" data-sentry-element="path" data-sentry-source-file="icons.tsx"></path><path fill-rule="evenodd" clip-rule="evenodd" d="M22.9968 18.4869L18.9258 22.5804H24.9807C26.906 27.0188 25.5474 29.7618 23.0796 30.3338L20.2435 42.3225C24.9163 46.584 28.6568 49.9998 28.6568 49.9998V49.3545V35.4835V13.2256L22.9968 18.4869Z" fill="url(#paint3_linear_2055_3545)" data-sentry-element="path" data-sentry-source-file="icons.tsx"></path><path d="M28.6561 12.7959L22.9961 18.4873L28.6561 13.226V12.7959Z" fill="url(#paint4_linear_2055_3545)" data-sentry-element="path" data-sentry-source-file="icons.tsx"></path><path d="M32.3325 22.5807H38.2793L34.4722 18.7097L28.6562 13.2258V35.4837V49.3548V50L37.0652 42.3228L47.3827 32.9033L48.9589 31.4643C48.4826 31.732 48.0362 31.9613 47.6011 32.1553L47.5715 32.1683C45.6976 32.9972 44.0238 33.169 41.0658 32.9033C52.9594 26.5593 51.4457 15.4839 44.0097 0C52.9056 31.4907 29.6346 35.8855 31.6065 24.923C31.7177 24.2074 31.953 23.4244 32.3325 22.5807Z" fill="url(#paint5_linear_2055_3545)" data-sentry-element="path" data-sentry-source-file="icons.tsx"></path><path d="M47.38 32.9033L37.0625 42.3228C47.1963 37.9665 53.7136 33.871 55.7679 27.957C52.8485 30.3225 50.7943 31.7205 47.38 32.9033Z" fill="url(#paint6_linear_2055_3545)" data-sentry-element="path" data-sentry-source-file="icons.tsx"></path><path d="M20.2423 42.3227C17.5118 39.8327 14.4629 37.0537 11.6559 34.499C6.466 32.5807 4.41166 31.0752 1.16797 28.0645C6.61297 36.926 11.9803 38.9247 20.2423 42.3227Z" fill="url(#paint7_linear_2055_3545)" data-sentry-element="path" data-sentry-source-file="icons.tsx"></path><defs data-sentry-element="defs" data-sentry-source-file="icons.tsx"><linearGradient id="paint0_linear_2055_3545" x1="55.8755" y1="7.84945" x2="45.5303" y2="32.9863" gradientUnits="userSpaceOnUse" data-sentry-element="linearGradient" data-sentry-source-file="icons.tsx"><stop stop-color="#2EFFFF" data-sentry-element="stop" data-sentry-source-file="icons.tsx"></stop><stop offset="0.730888" stop-color="#026B6A" data-sentry-element="stop" data-sentry-source-file="icons.tsx"></stop><stop offset="0.965" stop-color="#0B727C" data-sentry-element="stop" data-sentry-source-file="icons.tsx"></stop></linearGradient><linearGradient id="paint1_linear_2055_3545" x1="1.16453" y1="13.5484" x2="24.8413" y2="36.3615" gradientUnits="userSpaceOnUse" data-sentry-element="linearGradient" data-sentry-source-file="icons.tsx"><stop stop-color="#2EFFFF" data-sentry-element="stop" data-sentry-source-file="icons.tsx"></stop><stop offset="0.863303" stop-color="#0B727C" data-sentry-element="stop" data-sentry-source-file="icons.tsx"></stop></linearGradient><linearGradient id="paint2_linear_2055_3545" x1="28.4695" y1="12.9034" x2="33.6319" y2="18.1019" gradientUnits="userSpaceOnUse" data-sentry-element="linearGradient" data-sentry-source-file="icons.tsx"><stop stop-color="#23FFFF" data-sentry-element="stop" data-sentry-source-file="icons.tsx"></stop><stop offset="1" stop-color="#0A8584" data-sentry-element="stop" data-sentry-source-file="icons.tsx"></stop></linearGradient><linearGradient id="paint3_linear_2055_3545" x1="28.4701" y1="49.9998" x2="55.8492" y2="40.8771" gradientUnits="userSpaceOnUse" data-sentry-element="linearGradient" data-sentry-source-file="icons.tsx"><stop stop-color="#0B727C" data-sentry-element="stop" data-sentry-source-file="icons.tsx"></stop><stop offset="1" stop-color="#14D0E2" data-sentry-element="stop" data-sentry-source-file="icons.tsx"></stop></linearGradient><linearGradient id="paint4_linear_2055_3545" x1="28.9118" y1="12.9034" x2="24.3814" y2="17.008" gradientUnits="userSpaceOnUse" data-sentry-element="linearGradient" data-sentry-source-file="icons.tsx"><stop stop-color="#23FFFF" data-sentry-element="stop" data-sentry-source-file="icons.tsx"></stop><stop offset="1" stop-color="#0D848F" data-sentry-element="stop" data-sentry-source-file="icons.tsx"></stop></linearGradient><linearGradient id="paint5_linear_2055_3545" x1="28.4695" y1="50" x2="47.1613" y2="5.94691" gradientUnits="userSpaceOnUse" data-sentry-element="linearGradient" data-sentry-source-file="icons.tsx"><stop stop-color="#2EFFFF" data-sentry-element="stop" data-sentry-source-file="icons.tsx"></stop><stop offset="0.795263" stop-color="#026B6A" data-sentry-element="stop" data-sentry-source-file="icons.tsx"></stop><stop offset="1" stop-color="#0B727C" data-sentry-element="stop" data-sentry-source-file="icons.tsx"></stop></linearGradient><linearGradient id="paint6_linear_2055_3545" x1="42.3607" y1="37.527" x2="55.8263" y2="27.9946" gradientUnits="userSpaceOnUse" data-sentry-element="linearGradient" data-sentry-source-file="icons.tsx"><stop stop-color="#0B727C" data-sentry-element="stop" data-sentry-source-file="icons.tsx"></stop><stop offset="1" stop-color="#2EFFFF" data-sentry-element="stop" data-sentry-source-file="icons.tsx"></stop></linearGradient><linearGradient id="paint7_linear_2055_3545" x1="13.494" y1="37.6345" x2="1.21892" y2="28.1064" gradientUnits="userSpaceOnUse" data-sentry-element="linearGradient" data-sentry-source-file="icons.tsx"><stop stop-color="#0B727C" data-sentry-element="stop" data-sentry-source-file="icons.tsx"></stop><stop offset="1" stop-color="#2EFFFF" data-sentry-element="stop" data-sentry-source-file="icons.tsx"></stop></linearGradient></defs></svg>