<svg xmlns="http://www.w3.org/2000/svg" viewBox="0 0 150 37" fill="none" class="w-[98px] h-6 lg:w-[150px] lg:h-[37px]"><path fill="#fff" fill-rule="evenodd" d="M19.186.193a.68.68 0 0 0-.95 0L.197 17.943a.653.653 0 0 0 0 .933l18.04 17.75a.68.68 0 0 0 .95 0l18.04-17.75a.653.653 0 0 0 0-.934L19.186.193Zm0 1.635a.68.68 0 0 0-.95 0L1.859 17.942a.653.653 0 0 0 0 .934L18.237 34.99a.68.68 0 0 0 .95 0l16.378-16.114a.653.653 0 0 0 0-.934L19.186 1.828Z" clip-rule="evenodd"></path><path fill="#fff" d="m14.248 32.702 18.99-18.683.83.818L15.08 33.52l-.832-.818ZM10.617 29.129l18.99-18.683.83.817-18.99 18.683-.83-.817ZM6.985 25.556l18.99-18.683.83.817L7.817 26.373l-.83-.817ZM3.353 21.983 22.343 3.3l.83.817L4.185 22.8l-.83-.817ZM50.618 24.246l-.703-4.53L62.56 7h5.726L50.618 24.246ZM47 31.587V7h4.566v24.587H47Zm16.122 0-9.308-12.399 3.232-2.775 11.626 15.174h-5.55ZM74.093 31.587l-7.798-18.51h4.707l5.269 13.839-.913.246 5.55-14.085h4.6l-8.183 18.51h-3.232ZM92.686 31.939a7.212 7.212 0 0 1-4.145-1.265c-1.241-.843-2.236-1.99-2.986-3.442-.749-1.452-1.124-3.103-1.124-4.953s.375-3.5 1.124-4.952c.75-1.452 1.768-2.588 3.056-3.407 1.288-.82 2.74-1.23 4.356-1.23.936 0 1.791.14 2.564.422a6.161 6.161 0 0 1 2.037 1.124 6.562 6.562 0 0 1 1.44 1.686c.398.632.668 1.311.808 2.037l-.948-.246v-4.636h4.355v18.51h-4.39v-4.425l1.018-.176c-.164.632-.468 1.253-.913 1.862a6.922 6.922 0 0 1-1.616 1.58 8.773 8.773 0 0 1-2.142 1.09 7.242 7.242 0 0 1-2.494.42Zm1.194-3.829c1.007 0 1.897-.246 2.67-.738.772-.491 1.37-1.17 1.79-2.037.446-.89.668-1.908.668-3.056 0-1.124-.222-2.119-.667-2.985-.422-.867-1.019-1.546-1.791-2.038-.773-.491-1.663-.737-2.67-.737s-1.897.246-2.67.737c-.749.492-1.334 1.171-1.756 2.038-.421.866-.632 1.861-.632 2.985 0 1.148.21 2.166.632 3.056.422.866 1.007 1.546 1.757 2.037.772.492 1.662.738 2.669.738ZM105.773 31.587v-18.51h4.215l.071 3.793-.808.422c.234-.843.69-1.605 1.37-2.284a7.755 7.755 0 0 1 2.423-1.685 6.953 6.953 0 0 1 2.88-.633c1.405 0 2.576.281 3.513.843.96.562 1.674 1.405 2.142 2.53.492 1.123.738 2.528.738 4.214v11.31h-4.32V20.593c0-.936-.129-1.71-.387-2.318-.257-.632-.655-1.089-1.194-1.37-.538-.304-1.194-.445-1.967-.421-.632 0-1.218.105-1.756.316a3.946 3.946 0 0 0-1.37.843 4.305 4.305 0 0 0-.913 1.23 3.719 3.719 0 0 0-.316 1.545v11.17h-4.321ZM126.721 31.587V8.37h4.32v23.217h-4.32Zm-3.653-14.506v-4.004h12.013v4.004h-12.013ZM142.78 31.939c-1.639 0-3.114-.27-4.426-.808-1.288-.562-2.341-1.358-3.161-2.389l2.81-2.423c.702.796 1.487 1.37 2.353 1.72.867.352 1.78.528 2.74.528.398 0 .749-.047 1.054-.14.328-.095.609-.235.843-.422.234-.188.41-.398.527-.633.14-.257.21-.538.21-.843 0-.562-.21-1.006-.632-1.334-.234-.164-.609-.34-1.124-.527-.492-.188-1.135-.375-1.932-.562-1.264-.328-2.318-.703-3.161-1.124-.843-.445-1.499-.937-1.967-1.476a4.747 4.747 0 0 1-.913-1.51 5.752 5.752 0 0 1-.281-1.826c0-.82.176-1.558.527-2.213a5.686 5.686 0 0 1 1.51-1.756 6.8 6.8 0 0 1 2.213-1.124 8.963 8.963 0 0 1 2.634-.387c.937 0 1.839.117 2.705.351.89.235 1.709.574 2.459 1.02a7.212 7.212 0 0 1 1.967 1.545l-2.389 2.634a8.747 8.747 0 0 0-1.475-1.124 7.57 7.57 0 0 0-1.581-.773c-.538-.21-1.042-.316-1.51-.316-.445 0-.843.047-1.194.14-.352.07-.644.188-.878.352a1.815 1.815 0 0 0-.562.632 1.868 1.868 0 0 0-.176.843c.023.281.094.55.211.808.14.234.328.433.562.597.257.164.644.351 1.159.562.515.21 1.182.41 2.002.597 1.147.305 2.107.644 2.88 1.019.773.374 1.382.808 1.827 1.3.445.42.761.913.948 1.475a5.87 5.87 0 0 1 .281 1.861c0 1.1-.316 2.084-.948 2.95-.609.867-1.452 1.546-2.529 2.038-1.054.492-2.248.738-3.583.738Z"></path></svg>