<svg width="350" height="360" viewBox="0 0 350 360" fill="none" xmlns="http://www.w3.org/2000/svg">
<path d="M350 294.249V359.39C289.901 356.697 235.585 325.175 204.147 278.363L203.319 277.206C225.007 268.29 244.892 257.879 262.976 246.15C282.926 273.379 314.275 291.748 350 294.249Z" fill="#7EA5F3"/>
<path d="M346.351 0.0803916C345.056 27.2205 341.935 50.4134 336.803 71.5644C327.809 108.609 312.71 138.82 290.644 163.926C250.776 209.283 188.971 236.005 102.759 244.896V351.559H31.3973V246.914H0V184.386H31.3973V0H102.759V180.109C168.345 172.536 214.254 153.129 242.16 121.375C257.179 104.292 267.621 83.0282 274.097 56.3624C278.062 39.9947 280.572 21.6896 281.747 0.0803916H346.351Z" fill="#7EA5F3"/>
</svg>
