<svg width="600" height="600" viewBox="0 0 600 600" fill="none" xmlns="http://www.w3.org/2000/svg">
<path d="M475 414.249V479.39C414.901 476.697 360.585 445.175 329.147 398.363L328.319 397.206C350.007 388.29 369.892 377.879 387.976 366.15C407.926 393.379 439.275 411.748 475 414.249Z" fill="#7EA5F3"/>
<path d="M471.351 120.08C470.056 147.221 466.935 170.413 461.803 191.564C452.809 228.609 437.71 258.82 415.644 283.926C375.776 329.283 313.971 356.005 227.759 364.896V471.559H156.397V366.914H125V304.386H156.397V120H227.759V300.109C293.345 292.536 339.254 273.129 367.16 241.375C382.179 224.292 392.621 203.028 399.097 176.362C403.062 159.995 405.572 141.69 406.747 120.08H471.351Z" fill="#7EA5F3"/>
</svg>
