<svg id="Layer_1" data-name="Layer 1" xmlns="http://www.w3.org/2000/svg" viewBox="0 0 153.23 27.13">
  <defs>
    <style>
      .cls-1, .cls-2 {
        fill: #fff;
      }

      .cls-2 {
        fill-rule: evenodd;
      }
    </style>
  </defs>
  <path class="cls-1" d="M24.55,1.05c.52-.66,1.31-1.05,2.15-1.05h4.78c.43,0,.68,.5,.41,.84l-8.36,10.73c-.22,.28-.55,.44-.91,.44h-4.11c-.51,0-.93,.42-.93,.93v1.23c0,.51,.42,.93,.93,.93h4.11c.36,0,.69,.16,.91,.44l8.36,10.73c.27,.34,.02,.84-.41,.84h-4.78c-.84,0-1.63-.39-2.15-1.05l-7.64-9.8c-.46-.59-1.36-.59-1.82,0l-7.64,9.8c-.52,.66-1.31,1.05-2.15,1.05H.52c-.43,0-.68-.5-.41-.84L8.48,15.55c.22-.28,.55-.44,.91-.44h4.11c.51,0,.93-.42,.93-.93v-1.23c0-.51-.42-.93-.93-.93h-4.11c-.36,0-.69-.16-.91-.44L.11,.84c-.27-.34-.02-.84,.41-.84H5.3c.84,0,1.63,.39,2.15,1.05l7.64,9.8c.46,.59,1.36,.59,1.82,0L24.55,1.05Z"/>
  <path class="cls-2" d="M146.65,16.66c0,2.53,1.1,3.55,3.82,3.55h2.76v-2.5h-2.24c-1.03,0-1.45-.42-1.45-1.45v-6.71h3.69v-2.5h-3.69V3.36h-2.24l-.26,2.24c-.13,1.08-.5,1.45-1.58,1.45h-1.45v2.5h2.63v7.11Zm-16.92,3.55h2.9v-7.11c0-2.24,1.45-3.82,3.68-3.82s3.29,1.58,3.29,3.82v7.11h2.9v-7.5c0-3.61-1.82-5.92-5-5.92-2.26,0-3.95,1.03-4.87,2.79v-2.53h-2.9v13.16Zm-15.82-6.58c0-4.11,2.84-6.84,6.84-6.84s6.84,2.74,6.84,6.84v.66h-10.74c.24,2.26,1.84,3.69,3.9,3.69,1.66,0,2.76-.71,3.4-1.84h3.05c-.87,2.63-3.13,4.34-6.45,4.34-4,0-6.84-2.74-6.84-6.84Zm3-1l7.74-.03c-.29-2.03-1.84-3.32-3.9-3.32-1.92,0-3.47,1.29-3.84,3.34Zm-17.65,7.58h2.9v-7.11c0-2.24,1.45-3.82,3.69-3.82s3.29,1.58,3.29,3.82v7.11h2.9v-7.5c0-3.61-1.82-5.92-5-5.92-2.26,0-3.95,1.03-4.87,2.79v-2.53h-2.9v13.16Zm-8.95-13.43c4.26,0,7.11,2.74,7.11,6.84s-2.84,6.84-7.11,6.84-7.11-2.74-7.11-6.84,2.84-6.84,7.11-6.84Zm0,11.19c2.53,0,4.21-1.74,4.21-4.34s-1.68-4.34-4.21-4.34-4.21,1.74-4.21,4.34,1.68,4.34,4.21,4.34Zm-19.73-8.84v-2.08h-2.9V23.77h2.9v-5.64c.95,1.45,2.47,2.34,4.61,2.34,3.82,0,6.45-2.74,6.45-6.84s-2.63-6.84-6.45-6.84c-2.13,0-3.66,.9-4.61,2.34Zm8.16,4.5c0,2.61-1.68,4.34-4.21,4.34s-4.21-1.74-4.21-4.34,1.68-4.34,4.21-4.34,4.21,1.74,4.21,4.34Zm-12.83,6.58h-3.69l-3.69-4.95-3.69,4.95h-3.69l5.26-6.74-5-6.42h3.69l3.42,4.84,3.42-4.84h3.69l-5,6.42,5.26,6.74ZM44.27,6.78c-4,0-6.84,2.74-6.84,6.84s2.84,6.84,6.84,6.84c3.32,0,5.58-1.71,6.45-4.34h-3.05c-.63,1.13-1.74,1.84-3.4,1.84-2.05,0-3.66-1.42-3.9-3.69h10.74v-.66c0-4.11-2.84-6.84-6.84-6.84Zm3.9,5.82l-7.74,.03c.37-2.05,1.92-3.34,3.84-3.34,2.05,0,3.61,1.29,3.9,3.32Z"/>
</svg>