<svg width="800" height="97" viewBox="0 0 800 97" fill="none" xmlns="http://www.w3.org/2000/svg">
<g clip-path="url(#clip0_1_2479)">
<path d="M699.299 0H599.874H500.462H401.05H301.625H202.213H102.801H0V67.5806H4.66517V4.66517H6.12143H7.41015V4.4332H102.801H202.213H301.625H401.05H500.462H599.874H699.299H792.242V4.66517H795.335V67.5806H800V0H699.299Z" fill="black" style="fill:black;fill-opacity:1;"/>
<path d="M700.588 10.877H699.299H698.011H697.212H695.923V67.5807H700.588V10.877Z" fill="black" style="fill:black;fill-opacity:1;"/>
<path d="M599.075 10.877H597.787H596.498V67.5807H601.163V10.877H599.075Z" fill="black" style="fill:black;fill-opacity:1;"/>
<path d="M499.663 10.877H498.375H497.086V67.5807H501.751V10.877H499.663Z" fill="black" style="fill:black;fill-opacity:1;"/>
<path d="M397.674 67.5807H398.963H402.339V10.877H397.674V67.5807Z" fill="black" style="fill:black;fill-opacity:1;"/>
<path d="M298.249 67.5807H299.538H302.914V10.877H298.249V67.5807Z" fill="black" style="fill:black;fill-opacity:1;"/>
<path d="M198.837 67.5807H200.126H203.502V10.877H198.837V67.5807Z" fill="black" style="fill:black;fill-opacity:1;"/>
<path d="M99.4249 67.5807H100.714H104.09V10.877H99.4249V67.5807Z" fill="black" style="fill:black;fill-opacity:1;"/>
<path d="M54.8352 41.6129C60.454 41.6129 66.8332 43.9584 69.1786 51.2654L75.7254 49.0875C72.8773 40.1953 65.6604 35.0791 55.5826 35.0791C41.6515 35.0791 33.262 44.3064 33.262 56.5621V74.1016C33.262 86.3574 40.9041 95.4944 54.8223 95.4944C64.8872 95.4944 73.1995 91.2158 75.7125 81.8211L69.1658 79.6431C67.4002 86.2671 61.6139 88.9606 55.4022 88.9606C44.912 88.9606 40.2082 82.7489 40.2082 72.9289V57.6575C40.2082 48.5978 44.6543 41.6258 54.8094 41.6258L54.8352 41.6129Z" fill="black" style="fill:black;fill-opacity:1;"/>
<path d="M152.92 35.9941C139.736 35.9941 131.772 45.3889 131.772 57.5545V74.8491C131.772 87.0146 139.736 96.4094 152.92 96.4094C166.103 96.4094 174.055 87.0146 174.055 74.8491V57.5545C174.055 45.3889 166.091 35.9941 152.92 35.9941ZM167.096 74.0114C167.096 83.9861 161.722 89.8627 152.92 89.8627C144.118 89.8627 138.731 83.9861 138.731 74.0114V58.3921C138.731 48.4174 144.105 42.5408 152.92 42.5408C161.735 42.5408 167.096 48.4174 167.096 58.3921V74.0114Z" fill="black" style="fill:black;fill-opacity:1;"/>
<path d="M267.036 82.8131L238.079 36.8315H231.364V95.5715H238.336V50.0023L267.281 95.5715H273.995V36.8315H267.036V82.8131Z" fill="black" style="fill:black;fill-opacity:1;"/>
<path d="M353.2 42.5407C358.819 42.5407 365.198 44.8861 367.544 52.1932L374.09 50.0152C371.242 41.1231 364.025 36.0068 353.948 36.0068C340.017 36.0068 331.627 45.2341 331.627 57.4898V75.0293C331.627 87.2851 339.269 96.4221 353.187 96.4221C363.252 96.4221 371.564 92.1436 374.077 82.7488L367.531 80.5708C365.765 87.1949 359.979 89.8883 353.767 89.8883C343.277 89.8883 338.573 83.6767 338.573 73.8566V58.5852C338.573 49.5255 343.019 42.5535 353.174 42.5535L353.2 42.5407Z" fill="black" style="fill:black;fill-opacity:1;"/>
<path d="M478.026 57.8893V55.634C478.026 45.0536 470.383 36.8315 457.883 36.8315H436.567V95.5715H443.539V76.6917H457.883C458.888 76.6917 459.893 76.6015 460.821 76.5242L472.407 95.5715H480.796L467.793 74.5911C474.327 71.5755 478.026 65.2736 478.026 57.8893ZM458.308 70.2352H443.539V42.953H458.308C466.195 42.953 471.054 48.0821 471.054 56.3041V56.8841C471.054 65.1061 466.195 70.2352 458.308 70.2352Z" fill="black" style="fill:black;fill-opacity:1;"/>
<path d="M539.382 69.4749H567.991V62.9282H539.382V43.3783H570.517V36.8315H532.423V95.5715H571.355V89.0248H539.382V69.4749Z" fill="black" style="fill:black;fill-opacity:1;"/>
<path d="M627.479 44.3065H646.436V96.4997H653.408V44.3065H672.288V37.7598H627.479V44.3065Z" fill="black" style="fill:black;fill-opacity:1;"/>
<path d="M737.987 69.4749H766.596V62.9282H737.987V43.3783H769.109V36.8315H731.015V95.5715H769.96V89.0248H737.987V69.4749Z" fill="black" style="fill:black;fill-opacity:1;"/>
</g>
<defs>
<clipPath id="clip0_1_2479">
<rect width="800" height="96.4995" fill="white" style="fill:white;fill-opacity:1;"/>
</clipPath>
</defs>
</svg>
