<svg width="800" height="96" viewBox="0 0 800 96" fill="none" xmlns="http://www.w3.org/2000/svg">
<g clip-path="url(#clip0_1_2514)">
<path d="M800 0V65.2132H797.905V2.09448H794.803V1.86176H700.267V0H800Z" fill="white" style="fill:white;fill-opacity:1;"/>
<path d="M700.267 0H600.521V1.86176H700.267V0Z" fill="white" style="fill:white;fill-opacity:1;"/>
<path d="M700.267 10.9121H698.172V65.2134H700.267V10.9121Z" fill="white" style="fill:white;fill-opacity:1;"/>
<path d="M600.52 0H500.787V1.86176H600.52V0Z" fill="white" style="fill:white;fill-opacity:1;"/>
<path d="M600.52 10.9121H598.426V65.2134H600.52V10.9121Z" fill="white" style="fill:white;fill-opacity:1;"/>
<path d="M500.787 0H401.054V1.86176H500.787V0Z" fill="white" style="fill:white;fill-opacity:1;"/>
<path d="M500.787 10.9121H498.692V65.2134H500.787V10.9121Z" fill="white" style="fill:white;fill-opacity:1;"/>
<path d="M401.054 0H301.308V1.86176H401.054V0Z" fill="white" style="fill:white;fill-opacity:1;"/>
<path d="M401.053 10.9121H398.959V65.2134H401.053V10.9121Z" fill="white" style="fill:white;fill-opacity:1;"/>
<path d="M301.308 0H201.574V1.86176H301.308V0Z" fill="white" style="fill:white;fill-opacity:1;"/>
<path d="M301.307 10.9121H299.213V65.2134H301.307V10.9121Z" fill="white" style="fill:white;fill-opacity:1;"/>
<path d="M201.574 0H101.841V1.86176H201.574V0Z" fill="white" style="fill:white;fill-opacity:1;"/>
<path d="M201.574 10.9121H199.479V65.2134H201.574V10.9121Z" fill="white" style="fill:white;fill-opacity:1;"/>
<path d="M101.841 0V1.86176H4.84833V2.09448H2.09448V65.2132H0V0H101.841Z" fill="white" style="fill:white;fill-opacity:1;"/>
<path d="M101.841 10.9121H99.7461V65.2134H101.841V10.9121Z" fill="white" style="fill:white;fill-opacity:1;"/>
<path d="M53.7196 94.497C63.817 94.497 72.1562 90.2047 74.6773 80.7795L68.1094 78.5945C66.3382 85.24 60.5331 87.9421 54.3014 87.9421C43.7773 87.9421 39.0582 81.7104 39.0582 71.8586V56.5379C39.0582 47.4489 43.5187 40.4544 53.7067 40.4544C59.3437 40.4544 65.7434 42.8074 68.0965 50.1381L74.6644 47.9531C71.8071 39.0322 64.5669 33.8994 54.4565 33.8994C40.4804 33.8994 32.0637 43.1565 32.0637 55.4518V73.048C32.0637 85.3434 39.7305 94.51 53.6937 94.51L53.7196 94.497Z" fill="white" style="fill:white;fill-opacity:1;"/>
<path d="M152.121 34.8174C138.895 34.8174 130.905 44.2425 130.905 56.4474V73.7979C130.905 86.0028 138.895 95.4279 152.121 95.4279C165.347 95.4279 173.324 86.0028 173.324 73.7979V56.4474C173.324 44.2425 165.334 34.8174 152.121 34.8174ZM166.343 72.9576C166.343 82.9645 160.951 88.8601 152.121 88.8601C143.291 88.8601 137.886 82.9645 137.886 72.9576V57.2878C137.886 47.2808 143.278 41.3852 152.121 41.3852C160.964 41.3852 166.343 47.2808 166.343 57.2878V72.9576Z" fill="white" style="fill:white;fill-opacity:1;"/>
<path d="M237.814 48.871L266.852 94.5875H273.588V35.6577H266.606V81.7879L237.555 35.6577H230.819V94.5875H237.814V48.871Z" fill="white" style="fill:white;fill-opacity:1;"/>
<path d="M353.049 95.4282C363.146 95.4282 371.485 91.1358 374.007 81.7107L367.439 79.5257C365.668 86.1711 359.862 88.8733 353.631 88.8733C343.107 88.8733 338.388 82.6415 338.388 72.7897V57.469C338.388 48.38 342.848 41.3855 353.036 41.3855C358.673 41.3855 365.073 43.7386 367.426 51.0692L373.994 48.8843C371.136 39.9633 363.896 34.8306 353.786 34.8306C339.81 34.8306 331.393 44.0876 331.393 56.383V73.9792C331.393 86.2746 339.06 95.4411 353.023 95.4411L353.049 95.4282Z" fill="white" style="fill:white;fill-opacity:1;"/>
<path d="M468.012 73.5393C474.567 70.514 478.278 64.1917 478.278 56.7835V54.5209C478.278 43.9063 470.611 35.6577 458.07 35.6577H436.686V94.5875H443.68V75.6467H458.07C459.078 75.6467 460.087 75.5562 461.018 75.4786L472.641 94.5875H481.057L468.012 73.5393ZM458.497 69.1694H443.68V41.7989H458.497C466.409 41.7989 471.283 46.9446 471.283 55.1932V55.775C471.283 64.0237 466.409 69.1694 458.497 69.1694Z" fill="white" style="fill:white;fill-opacity:1;"/>
<path d="M571.909 88.0197H539.832V68.4066H568.534V61.8387H539.832V42.2256H571.068V35.6577H532.851V94.5875H571.909V88.0197Z" fill="white" style="fill:white;fill-opacity:1;"/>
<path d="M654.227 43.1567H673.168V36.5889H628.214V43.1567H647.232V95.5187H654.227V43.1567Z" fill="white" style="fill:white;fill-opacity:1;"/>
<path d="M732.084 94.5875H771.156V88.0197H739.079V68.4066H767.781V61.8387H739.079V42.2256H770.302V35.6577H732.084V94.5875Z" fill="white" style="fill:white;fill-opacity:1;"/>
</g>
<defs>
<clipPath id="clip0_1_2514">
<rect width="800" height="95.5185" fill="white" style="fill:white;fill-opacity:1;"/>
</clipPath>
</defs>
</svg>
