<svg width="2500" height="714" viewBox="0 0 2500 714" fill="none" xmlns="http://www.w3.org/2000/svg">
<path d="M421.31 381.49L487.71 157.38H399.17L310.64 313.96V157.38H222.11L155.71 381.49H208.83L155.71 560.78H310.64V449.12L443.45 606.73L532.539 471.14L355.47 381.49H421.31Z" fill="#FCFCFC"/>
<path d="M726.14 381.91H788.36L829.83 465.9H912.78L860.94 360.91L892.05 255.92H809.1L784.21 339.91H726.14V255.92H643.2V465.9H726.14V381.91Z" fill="#FCFCFC"/>
<path d="M1161.63 255.92H985.36L923.15 465.9H1006.1L1018.54 423.9H1128.45L1140.89 465.9H1223.84L1161.63 255.92ZM1030.99 381.9L1052.76 308.41H1094.24L1116.02 381.9H1030.99Z" fill="#FCFCFC"/>
<path d="M2105.19 255.92L2042.98 465.9H2125.93L2138.38 423.9H2248.29L2260.73 465.9H2343.68L2281.47 255.92H2105.19ZM2150.81 381.9L2172.59 308.41H2214.06L2235.84 381.9H2150.81Z" fill="#FCFCFC"/>
<path d="M1648.96 255.92H1472.69L1410.48 465.9H1493.43L1505.87 423.9H1615.78L1628.22 465.9H1711.17L1648.95 255.92H1648.96ZM1518.31 381.9L1540.09 308.41H1581.57L1603.34 381.9H1518.31Z" fill="#FCFCFC"/>
<path d="M1939.29 416.03L1876.04 255.92H1730.88V465.9H1813.83V308.42H1834.56L1896.78 465.9H2022.24V255.92H1939.29V416.03Z" fill="#FCFCFC"/>
<path d="M1275.69 308.42V465.9H1358.64V308.42H1426.03L1441.59 255.92H1192.74L1208.29 308.42H1275.69Z" fill="#FCFCFC"/>
</svg>
