<svg class="block w-full h-full" fill="none" preserveAspectRatio="xMidYMid meet" viewBox="0 0 341 36"><g clip-path="url(#clip0_1_55)"><path d="M0 23.0606H8.84081C8.84081 25.5291 11.2445 27.1337 18.9039 27.1337C25.9113 27.1337 27.6224 26.0229 27.6224 24.1714C27.6224 22.032 26.3187 21.6617 17.6816 21.0857C5.90746 20.2628 0.692598 17.8766 0.692598 11.376C0.692598 5.24571 7.25191 2.48914 17.315 2.48914C28.5188 2.48914 34.9558 5.90399 35.2003 12.4457H26.4002C26.4002 9.85371 23.5891 8.86628 17.0705 8.86628C10.8779 8.86628 9.49267 9.89485 9.49267 11.4994C9.49267 13.3097 10.8779 13.8857 18.7816 14.544C29.4558 15.3669 36.4225 16.1074 36.4225 23.8011C36.4225 31.3303 29.5373 33.5109 19.189 33.5109C7.41488 33.5109 0.407411 30.7954 0 23.0606ZM41.18 3.31199H49.6134V32.688H41.18V3.31199ZM67.6413 3.31199L84.7936 24.3771V3.31199H93.1862V32.688H80.8417L63.6895 11.6229V32.688H55.2561V3.31199H67.6413ZM97.9688 17.9588C97.9688 7.96114 105.424 2.48914 116.384 2.48914C126.732 2.48914 133.128 7.38514 133.699 14.0091H124.736C124.206 11.7463 121.68 9.73028 116.424 9.73028C108.847 9.73028 106.81 14.2149 106.81 18.2469C106.81 22.32 108.724 26.8457 117.443 26.8457C121.395 26.8457 123.88 26.1874 126.569 25.0354V22.2377H116.262V16.6834H133.699V29.232C127.71 32.6057 122.739 33.5109 116.995 33.5109C105.547 33.5109 97.9688 28.0388 97.9688 17.9588ZM174.723 3.31199V18.3703C174.723 28.368 169.304 33.5109 156.797 33.5109C144.248 33.5109 138.871 28.4091 138.871 18.3703V3.31199H147.304V18.0823C147.304 21.9909 148.689 26.2697 156.797 26.2697C164.945 26.2697 166.33 21.9497 166.33 18.0823V3.31199H174.723ZM180.001 3.31199H188.434V25.4468H208.601V32.688H180.001V3.31199ZM254.522 32.688H245.478L242.707 27.1337H224.781L222.011 32.688H212.926L227.918 3.31199H239.57L254.522 32.688ZM233.744 9.27771L228 20.7566H239.489L233.744 9.27771ZM287.25 20.6743C290.387 20.9623 292.261 22.896 292.261 26.2286V32.688H283.868V27.8331C283.868 25.0766 283.216 24.336 280.364 24.336H266.757V32.688H258.323V3.31199H280.65C288.227 3.31199 292.424 6.35656 292.424 12.5691C292.424 16.8891 290.55 19.44 287.25 20.6743ZM278.572 10.2651H266.757V17.3829H278.572C281.138 17.3829 283.583 17.3828 283.583 13.8446C283.583 10.2651 281.138 10.2651 278.572 10.2651Z" fill="white"></path><path d="M322.424 0C332.365 0 340.424 8.05888 340.424 18C340.424 27.9411 332.365 36 322.424 36C312.483 36 304.424 27.9411 304.424 18C304.424 8.05888 312.483 0 322.424 0ZM312.824 8.39983L318.106 27.6002H326.716L332.024 8.39983H327.784L322.944 26.5103H321.877L317.064 8.39983H312.824Z" fill="#F53B00"></path></g><defs><clipPath id="clip0_1_55"><rect width="341" height="36" fill="white"></rect></clipPath></defs></svg>