<svg width="1500" height="221" viewBox="0 0 1500 221" fill="none" xmlns="http://www.w3.org/2000/svg">
<path fill-rule="evenodd" clip-rule="evenodd" d="M0 121.78C0 145.46 10.8632 186.047 105.004 186.047L121.696 186.038C212.008 186.038 226.977 155.576 226.977 125.88V122.499C226.977 86.7493 199.7 70.321 132.109 69.114L101.941 68.6254C65.2554 67.8974 60.422 60.895 60.422 53.1646C60.422 45.4342 63.5613 37.7038 107.014 37.7038H110.842C157.951 37.7038 161.531 52.4366 162.737 59.2091H221.12V56.7664C221.12 29.6955 201.815 0 116.853 0H100.19C18.3668 0 2.43103 28.0192 2.43103 54.841V57.0154C2.43103 85.0634 22.9514 107.785 90.054 109.701L120.949 110.429C162.469 111.636 168.02 118.16 168.02 128.553C168.02 138.209 162.689 147.635 115.379 147.635H112C65.6574 147.635 59.3788 129.999 58.6609 119.127H0V121.78ZM239.925 96.1752C239.925 126.378 252.721 180.769 349.992 185.559V220.322H431.585L403.58 184.812C491.442 176.114 503.033 125.842 503.033 96.1465V88.9046C503.033 56.2874 488.772 0 376.791 0H366.406C253.2 0 239.925 56.2874 239.925 88.9046V96.1752ZM371.479 43.5088C432.303 43.5088 444.133 69.1236 444.133 90.6193V93.972C444.133 115.238 431.776 142.29 371.479 142.29C310.645 142.29 298.825 114.749 298.825 93.4931V90.6193C298.825 68.8745 309.688 43.5088 371.479 43.5088ZM634.093 185.562C537.789 185.562 522.111 124.255 522.111 90.3827V3.21192H578.581V86.9917C578.581 110.183 588.956 138.93 637.921 138.93C686.198 138.93 696.821 110.192 696.821 86.9917V3.17361H753.128V90.3444C753.128 124.169 734.78 185.523 642.812 185.523L634.093 185.562ZM818.509 150.052H927.37L944.263 182.908H1004.85L908.783 3.17361H835.89L745.128 182.908H802.334L818.509 150.052ZM838.541 109.464L871.858 42.0652L906.611 109.464H838.541ZM1015.94 3.17361H1134.95C1238.98 3.17361 1261.67 47.8606 1261.67 88.2082V95.4597C1261.67 134.112 1240.18 182.908 1135.19 182.908H1015.94V3.17361ZM1072.19 139.677H1130.57C1194.3 139.677 1202.74 111.649 1202.74 93.2852V91.8387C1202.74 73.485 1195.27 45.6957 1130.57 45.6957H1072.19V139.677ZM1273.02 121.78C1273.02 145.46 1283.89 186.047 1378.02 186.047L1394.77 186.038C1485.04 186.038 1500 155.576 1500 125.88V122.499C1500 86.7493 1472.73 70.321 1405.14 69.114L1374.97 68.6254C1338.24 67.8974 1333.45 60.895 1333.45 53.1646C1333.45 45.4342 1336.59 37.7038 1380.04 37.7038H1383.86C1430.97 37.7038 1434.55 52.4366 1435.76 59.2091H1494.14V56.7664C1494.14 29.6955 1474.84 0 1389.87 0H1373.21C1291.39 0 1275.45 28.0192 1275.45 54.841V57.0154C1275.45 85.0634 1295.97 107.785 1363.08 109.701L1393.97 110.429C1435.49 111.636 1441.04 118.16 1441.04 128.553C1441.04 138.209 1435.71 147.635 1388.4 147.635H1385.02C1338.68 147.635 1332.4 129.999 1331.67 119.127H1273.02V121.78Z" fill="black"/>
</svg>
