<svg width="240" height="240" viewBox="0 0 240 240" fill="none" xmlns="http://www.w3.org/2000/svg">
<path d="M185.89 66.8876C189.203 63.5743 194.335 63.7692 196.457 67.2772C198.753 71.0453 200.485 75.1166 201.72 79.3827C202.413 81.8081 201.612 84.6451 199.598 86.6591L134.696 151.56C130.777 155.48 125.904 158.186 120.729 159.291L115.336 160.439C110.182 161.565 105.266 164.272 101.368 168.17L51.5392 217.999C49.417 209.813 48.486 204.292 55.1339 197.643L185.89 66.8876ZM199.945 94.8485C202.111 92.683 205.446 93.9392 205.23 96.7977C203.887 114.295 195.55 132.724 180.694 147.58C169.369 159.989 137.405 178.959 114.559 191.671C109.881 194.269 106.07 188.725 109.902 184.892L199.924 94.87L199.945 94.8485ZM170.081 40.6434C172.138 38.5862 175.17 38.1536 177.249 39.5829C181.58 42.528 185.63 46.7942 187.709 51.9481C188.488 53.9402 187.817 56.3869 186.107 58.0975L116.202 128.002C112.283 131.921 107.41 134.628 102.234 135.732L96.8429 136.881C91.689 138.007 86.7731 140.713 82.8751 144.611L39.7589 187.727C37.6367 179.542 38.6546 172.071 45.3029 165.423L70.4659 140.259L170.081 40.6434ZM140.455 28.2167C144.353 24.3188 149.94 22.8028 154.531 24.535C157.412 25.6395 160.184 26.9825 162.804 28.5634C166.269 30.6423 166.442 35.7096 163.193 38.9579L99.2667 102.885C95.6071 106.544 90.6265 108.494 85.8624 108.147C80.86 107.779 75.5972 109.836 71.7208 113.713L36.7042 148.729C34.5821 140.544 37.3324 131.34 43.9806 124.692L55.3282 113.345L140.455 28.2167ZM130.215 21.9999C133.29 21.9567 134.48 25.6162 132.142 27.955L98.9445 61.1532L64.1876 95.91C64.166 95.9317 64.1652 95.9315 64.1652 95.9315L53.4025 106.694C51.1504 108.946 47.8159 106.911 49.0714 104.053L59.5529 80.2313C60.1376 78.7804 60.7874 77.3076 61.5021 75.8134L61.5665 75.662C67.6084 62.8637 77.3323 49.286 86.4708 40.1474C101.132 25.4866 114.298 22.1515 130.215 21.9999Z" fill="white"/>
</svg>
