<svg width="240" height="240" viewBox="0 0 240 240" fill="none" xmlns="http://www.w3.org/2000/svg">
<path d="M185.89 66.8866C189.203 63.5735 194.335 63.7684 196.457 67.2763C198.753 71.0443 200.485 75.1157 201.72 79.3817C202.413 81.8071 201.612 84.6441 199.598 86.6581L134.696 151.559C130.777 155.479 125.904 158.186 120.729 159.291L115.336 160.438C110.182 161.564 105.266 164.272 101.368 168.17L51.5392 217.999C49.4169 209.813 48.4857 204.291 55.1339 197.642L185.89 66.8866ZM199.945 94.8485C202.111 92.683 205.446 93.9384 205.23 96.7968C203.887 114.294 195.55 132.723 180.694 147.579C169.369 159.988 137.405 178.958 114.559 191.67C109.881 194.268 106.069 188.725 109.902 184.891L199.945 94.8485ZM170.081 40.6425C172.138 38.5853 175.17 38.1527 177.249 39.5819C181.58 42.5271 185.63 46.7932 187.709 51.9472C188.489 53.9394 187.817 56.3868 186.107 58.0975L116.202 128.001C112.283 131.92 107.41 134.628 102.234 135.732L96.8429 136.88C91.6889 138.006 86.7731 140.713 82.8751 144.611L39.7589 187.726C37.6368 179.541 38.6547 172.07 45.3028 165.422L70.4659 140.258L170.081 40.6425ZM140.455 28.2167C144.353 24.3187 149.94 22.8026 154.531 24.535C157.411 25.6395 160.184 26.9816 162.804 28.5624C166.269 30.6413 166.442 35.7086 163.193 38.9569L99.2667 102.885C95.6071 106.544 90.6264 108.493 85.8624 108.146C80.86 107.778 75.5971 109.836 71.7208 113.712L36.7042 148.729C34.582 140.544 37.3323 131.34 43.9806 124.691L140.455 28.2167ZM130.215 21.9999C133.29 21.9567 134.48 25.6162 132.142 27.955L98.9444 61.1522L71.2257 88.872L64.1876 95.91C64.166 95.9317 64.1651 95.9315 64.1651 95.9315L53.4024 106.694C51.1503 108.946 47.8154 106.91 49.0714 104.052L59.5528 80.2313C60.1375 78.7804 60.7874 77.3076 61.5021 75.8134L61.5665 75.662C67.6084 62.8636 77.3322 49.285 86.4708 40.1464C101.131 25.4858 114.298 22.1515 130.215 21.9999Z" fill="#12121C"/>
</svg>
