<?xml version="1.0" encoding="UTF-8"?><svg id="Layer_1" xmlns="http://www.w3.org/2000/svg" xmlns:xlink="http://www.w3.org/1999/xlink" viewBox="0 0 946.25 208.68"><defs><style>.cls-1{fill:url(#linear-gradient);}.cls-2{fill:#fff;}.cls-3{fill:url(#linear-gradient-3);}.cls-4{fill:url(#linear-gradient-4);}.cls-5{fill:url(#linear-gradient-2);}</style><linearGradient id="linear-gradient" x1="228.37" y1="969.61" x2="361.26" y2="1006.57" gradientTransform="translate(0 -877.99)" gradientUnits="userSpaceOnUse"><stop offset="0" stop-color="#000987"/><stop offset=".11" stop-color="#2248be"/><stop offset=".3" stop-color="#2774d0"/><stop offset="1" stop-color="#2c90e1"/></linearGradient><linearGradient id="linear-gradient-2" x1="32.47" y1="982.33" x2="329.77" y2="982.33" gradientTransform="translate(0 -877.99)" gradientUnits="userSpaceOnUse"><stop offset="0" stop-color="#d9403e"/><stop offset=".2" stop-color="#e4af0f"/><stop offset=".28" stop-color="#e3ad0c"/><stop offset=".75" stop-color="#d96c3f"/><stop offset=".89" stop-color="#d33e3c"/><stop offset="1" stop-color="#cf3e3a"/></linearGradient><linearGradient id="linear-gradient-3" x1="88.52" y1="974.91" x2="190.11" y2="984.42" gradientTransform="translate(0 -877.99)" gradientUnits="userSpaceOnUse"><stop offset="0" stop-color="#2143bc"/><stop offset=".47" stop-color="#2c7ff7"/><stop offset="1" stop-color="#2143bc"/></linearGradient><linearGradient id="linear-gradient-4" x1="-15.82" y1="975.29" x2="69.28" y2="983.12" gradientTransform="translate(0 -877.99)" gradientUnits="userSpaceOnUse"><stop offset=".56" stop-color="#2c90e2"/><stop offset=".88" stop-color="#2143bc"/><stop offset="1" stop-color="#000987"/></linearGradient></defs><path class="cls-2" d="m430.59,188.85V19.82h23.84v169.03h-23.84Z"/><path class="cls-2" d="m520.7,119.71v69.14h-23.36V19.82h61.51c31.23,0,52.21,21.69,52.21,50.06s-20.98,49.83-52.21,49.83h-38.14Zm33.85-20.98c20.26,0,32.66-11.2,32.66-28.61s-12.4-29.32-32.66-29.32h-33.85v57.93h33.85Z"/><path class="cls-2" d="m713.8,16.24c42.44,0,84.87,31.47,84.87,87.97s-42.44,88.21-84.87,88.21-84.87-31.71-84.87-88.21,42.44-87.97,84.87-87.97Zm0,154.72c31.47,0,61.03-22.65,61.03-66.75s-29.56-66.51-61.03-66.51-61.03,22.41-61.03,66.51,29.56,66.75,61.03,66.75Z"/><path class="cls-2" d="m879.74,119.71h-25.27v69.14h-23.6V19.82h63.65c31.95,0,51.73,22.41,51.73,50.3,0,24.32-15.5,43.15-41.01,47.92l40.29,70.81h-27.17l-38.63-69.14Zm10.49-20.98c19.07,0,31.94-11.2,31.94-28.61s-12.88-29.32-31.94-29.32h-35.76v57.93h35.76Z"/><path class="cls-1" d="m335.75,99.58l-5.99-.84c-18.65-2.33-37.48-4-56.14-5.17-11.33-.84-22.65-1.34-33.81-1.84-.84,1.34-1.84,2.83-2.66,4.17-4.32,6.66-8.67,13.16-12.99,19.82,16.49-.5,32.99-1.17,49.46-2.16,21.16-1.34,80.28-8.49,88.6-9.99-8.82-1.66-17.66-3-26.48-4Z"/><path class="cls-5" d="m288.46,0c-7.15,10.48-13.16,20.99-20.15,31.47-4.17-5.49-11.33-14.83-12.67-16.64-36.47,49.8-72.46,100.1-106.76,151.55C112.42,126.06,32.81,52.29,32.81,52.29c0,0,76.28,106.76,118.58,156.39l4.17-5.99c35.3-49.95,68.78-101.42,101.92-153.06,4.5,4.82,12,12.99,13.49,14.48.67-1.34,13.32-20.15,18.33-29.63l40.81,56.14S303.31,32.32,288.48.02l-.02-.02Z"/><path class="cls-3" d="m185.85,90.91c-29.48,0-59.12.84-88.6,2.83-2.83.17-5.66.32-8.49.67,6.66,6.48,13.66,13.16,20.49,19.99,21.16,1.17,42.3,1.84,63.46,1.99.99-1.34,1.84-2.83,2.83-4.17l14.98-21.31c-1.49,0-3.16,0-4.67,0Z"/><path class="cls-4" d="m54.97,97.42c-15.5,1.66-39.47,3.5-54.97,6.33,18.83,3.33,46.13,5.66,64.95,7.33-3.5-4.67-6.83-9.32-9.99-13.66Z"/></svg>