<?xml version="1.0" encoding="UTF-8"?> <svg xmlns="http://www.w3.org/2000/svg" width="100" height="27" viewBox="0 0 100 27" fill="none"><g clip-path="url(#clip0_255_11530)"><path d="M21.7277 23.2592L19.0155 23.2593L16.6327 18.5446L5.60646 18.5449L3.22388 23.2596L0.486328 23.2596L9.50973 5.51608L12.7289 5.51602L21.7277 23.2592ZM11.0306 7.84804L6.56963 16.6438L15.6694 16.6436L11.2081 7.84804L11.0306 7.84804Z" fill="#040404"></path><path d="M39.0374 23.2588L24.0569 23.2592L24.0565 5.51579L26.5913 5.51573L26.5916 20.9778L39.0373 20.9776L39.0374 23.2588Z" fill="#040404"></path><path d="M36.8078 5.51552L54.0442 5.51517L54.0443 7.79646L46.6934 7.79661L46.6937 23.2587L44.159 23.2587L44.1587 7.79666L36.8078 7.79681L36.8078 5.51552Z" fill="#040404"></path><path d="M57.9708 23.6319C55.4773 23.632 53.8848 22.1013 53.8848 20.0768C53.8847 18.0647 55.4524 16.534 58.0818 16.5339C59.3779 16.5339 60.4272 16.9165 60.9951 17.2498L60.9951 18.3238C60.4396 17.9658 59.4026 17.5338 58.1435 17.5338C56.2301 17.5338 55.1315 18.5831 55.1315 20.0768C55.1316 21.5705 56.2549 22.6321 58.0449 22.632C59.304 22.632 60.3286 22.2369 60.7483 21.916L60.7483 22.9653C60.2916 23.2615 59.2423 23.6319 57.9708 23.6319Z" fill="#040404"></path><path d="M65.664 16.5337C68.1946 16.5337 69.1205 17.4718 69.1205 18.7063L69.1206 23.4959L67.8861 23.4959L67.8861 22.3602C67.38 22.9034 66.1456 23.6317 64.5408 23.6318C62.7756 23.6318 61.9238 22.8171 61.9238 21.6691C61.9238 20.4593 62.8372 19.5829 65.2814 19.5581L65.3678 19.5581C67.5651 19.5334 67.886 19.2124 67.886 18.6446C67.886 18.1014 67.3552 17.5706 65.5776 17.5707C64.1951 17.5707 62.9113 18.0275 62.3434 18.3855L62.3434 17.2745C62.8495 16.9535 64.1086 16.5338 65.664 16.5337ZM64.9605 22.6566C66.4295 22.6565 67.4911 21.9899 67.8861 21.4838L67.8861 19.7679C67.7626 19.9778 67.022 20.2617 65.4913 20.2741L65.3925 20.2741C63.7507 20.2865 63.1705 20.8543 63.1706 21.5209C63.1706 22.1875 63.689 22.6566 64.9605 22.6566Z" fill="#040404"></path><path d="M72.1718 25.8413L70.9374 25.8413L70.9372 16.6694L72.1716 16.6694L72.1716 17.694L72.2457 17.694C72.6654 17.1879 73.727 16.5336 75.0725 16.5336C77.2945 16.5335 78.7635 18.0025 78.7636 20.0763C78.7636 22.1625 77.2947 23.6315 75.0727 23.6316C73.7271 23.6316 72.6655 22.965 72.2458 22.4712L72.1717 22.4713L72.1718 25.8413ZM74.7023 22.6193C76.4552 22.6193 77.5045 21.57 77.5044 20.0763C77.5044 18.5827 76.4551 17.5334 74.7022 17.5335C73.4801 17.5335 72.542 18.2495 72.1717 18.7803L72.1717 21.3726C72.5421 21.9034 73.4802 22.6194 74.7023 22.6193Z" fill="#040404"></path><path d="M81.0176 16.0397C80.4621 16.0397 80.1411 15.7434 80.1411 15.3237C80.1411 14.904 80.4621 14.6201 81.0176 14.6201C81.5731 14.62 81.894 14.904 81.894 15.3237C81.894 15.7434 81.5731 16.0396 81.0176 16.0397ZM81.635 23.4956L80.4005 23.4957L80.4004 16.6692L81.6348 16.6692L81.635 23.4956Z" fill="#040404"></path><path d="M86.0783 23.6313C84.7575 23.6314 83.9057 22.8537 83.9057 21.323L83.9056 17.4469L82.5724 17.4469L82.5724 16.6692L83.3007 16.6692C83.7204 16.6692 83.9056 16.484 83.9056 16.0149L83.9056 15.1261L85.14 15.1261L85.14 16.6691L87.2015 16.6691L87.2016 17.4468L85.1401 17.4468L85.1401 21.2983C85.1402 22.1377 85.6092 22.5574 86.2882 22.5574C86.6091 22.5574 86.9054 22.508 87.2017 22.4092L87.2017 23.4461C86.819 23.5819 86.4981 23.6313 86.0783 23.6313Z" fill="#040404"></path><path d="M91.7511 16.5332C94.2817 16.5332 95.2076 17.4713 95.2076 18.7057L95.2077 23.4954L93.9732 23.4954L93.9732 22.3597C93.4671 22.9029 92.2327 23.6312 90.6279 23.6312C88.8627 23.6313 88.0109 22.8166 88.0109 21.6685C88.0108 20.4588 88.9243 19.5823 91.3685 19.5576L91.4549 19.5576C93.6522 19.5329 93.9732 19.2119 93.9731 18.644C93.9731 18.1009 93.4423 17.5701 91.6647 17.5701C90.2822 17.5702 88.9984 18.0269 88.4305 18.3849L88.4305 17.2739C88.9366 16.953 90.1957 16.5332 91.7511 16.5332ZM91.0476 22.656C92.5166 22.656 93.5782 21.9894 93.9732 21.4833L93.9732 19.7674C93.8497 19.9772 93.1091 20.2612 91.5784 20.2736L91.4796 20.2736C89.8378 20.2859 89.2577 20.8538 89.2577 21.5204C89.2577 22.187 89.7761 22.6561 91.0476 22.656Z" fill="#040404"></path><path d="M98.2589 23.4953L97.0244 23.4953L97.0242 14.6074L98.2587 14.6074L98.2589 23.4953Z" fill="#040404"></path><path d="M60.9334 5.3736C63.3776 5.37355 64.6615 6.60796 64.6615 7.94115C64.6615 9.31138 63.3777 10.6076 60.6496 10.6076C59.0325 10.6077 57.7117 10.0769 57.1685 9.68186L57.1685 8.48446C57.724 8.94119 59.0325 9.55838 60.6002 9.55835C62.5259 9.55831 63.3777 8.70653 63.3777 7.8918C63.3777 7.08942 62.5259 6.23768 60.6002 6.23772C59.7484 6.23773 58.9584 6.43526 58.588 6.57105L58.588 5.62054L62.1061 2.99112V2.91705L57.2301 2.91715L57.2301 1.8185L64.291 1.81836L64.291 2.58371L60.5261 5.34892V5.41065C60.6495 5.38595 60.7853 5.37361 60.9334 5.3736Z" fill="#F1AE5B"></path></g><defs><clipPath id="clip0_255_11530"><rect width="99.6484" height="25.969" fill="white" transform="translate(0.134277 0.705078)"></rect></clipPath></defs></svg> 