<svg clip-rule="evenodd" fill-rule="evenodd" height="128" stroke-linejoin="round" stroke-miterlimit="2" width="576" xmlns="http://www.w3.org/2000/svg" xmlns:xlink="http://www.w3.org/1999/xlink"><linearGradient id="a"><stop offset="0" stop-color="#fff" stop-opacity=".5"/><stop offset="1" stop-color="#fff"/></linearGradient><linearGradient id="b" gradientTransform="matrix(38.1039 -65.8481 65.8481 38.1039 25.9389 85.9253)" gradientUnits="userSpaceOnUse" x1="0" x2="1" xlink:href="#a" y1="0" y2="0"/><linearGradient id="c" gradientTransform="matrix(37.9738 65.9222 -65.9222 37.9738 64.0427 20.0772)" gradientUnits="userSpaceOnUse" x1="0" x2="1" xlink:href="#a" y1="0" y2="0"/><linearGradient id="d" gradientTransform="matrix(76.0772 .0748611 -.0748611 76.0772 25.9393 85.9246)" gradientUnits="userSpaceOnUse" x1="0" x2="1" y1="0" y2="0"><stop offset="0" stop-color="#fff"/><stop offset="1" stop-color="#fff" stop-opacity=".5"/></linearGradient><clipPath id="e"><path clip-rule="evenodd" d="m0 0h576v128h-576z"/></clipPath><path d="m0 0h576v128h-576z" fill="none"/><g clip-path="url(#e)"><path d="m393.999 32v64h-8v-64zm0 32 32.564-32h11.413l-32.563 32 32.563 32h-11.413zm-184-32c9.935 0 18 8.066 18 18 0 5.211-2.219 9.908-5.763 13.196 4.689 3.251 7.763 8.671 7.763 14.804 0 9.935-8.065 18-18 18h-36v-64zm-26 56h28c5.519 0 10-4.481 10-10s-4.481-10-10-10h-28zm0-28h26c5.519 0 10-4.481 10-10s-4.481-10-10-10h-26zm73.944 16-8.285 20h-8.659l26.51-64h10.981l26.509 64h-8.659l-8.284-20zm15.056-36.35-11.743 28.35h23.486zm95 45.507c-5.865 6.648-14.446 10.843-24 10.843-17.661 0-32-14.339-32-32s14.339-32 32-32c9.554 0 18.135 4.195 24 10.843l-5.716 5.617c-4.403-5.175-10.963-8.46-18.284-8.46-13.246 0-24 10.754-24 24s10.754 24 24 24c7.321 0 13.881-3.285 18.284-8.46zm133.977-53.157v8h-40v20h24v8h-24v20h40v8h-48v-64zm42.023 0c17.661 0 32 14.339 32 32s-14.339 32-32 32h-24v-64zm-16 56h16c13.246 0 24-10.754 24-24s-10.754-24-24-24h-16z" fill="#fff"/><path d="m.098 60.361c.535-9.59 3.244-19.2 8.323-28.094.051-.089.102-.178.153-.266.051-.089.102-.177.154-.265 6.667-11.424 16.346-20.021 27.45-25.366 11.95-5.752 25.551-7.738 38.826-5.428 7.199 1.253 14.303 3.769 20.995 7.633 1.052.607 2.079 1.24 3.083 1.896-13.024-6.121-28.809-1.334-36.135 11.354l-37.008 64.1c-13.713-.999-24.698-11.892-25.841-25.564z" fill="url(#b)"/><path d="m99.102 10.48c8.038 5.258 15.006 12.409 20.169 21.255.051.088.103.177.154.265.051.089.102.177.152.266 6.56 11.486 9.166 24.167 8.243 36.456-.994 13.225-6.074 25.996-14.713 36.338-4.684 5.608-10.415 10.502-17.108 14.366-1.051.607-2.113 1.18-3.183 1.721 11.813-8.219 15.56-24.282 8.235-36.97l-37.009-64.101c7.722-11.375 22.648-15.442 35.06-9.596z" fill="url(#c)"/><path d="m92.798 121.161c-8.572 4.331-18.249 6.79-28.492 6.838-.102.001-.204.001-.306.001s-.204 0-.307-.001c-13.227-.062-25.512-4.145-35.693-11.089-10.956-7.473-19.476-18.259-24.113-30.911-2.514-6.861-3.887-14.271-3.887-21.999 0-1.214.034-2.42.101-3.617 1.211 14.34 13.249 25.616 27.899 25.616h74.017c5.991 12.375 2.05 27.335-9.219 35.162z" fill="url(#d)"/></g></svg>