<svg width="1024" height="450" viewBox="0 0 1024 450" fill="none" xmlns="http://www.w3.org/2000/svg">
<path d="M232.337 150L189.629 281.323L183.555 300H159L165.063 281.323L207.771 150H232.337Z" fill="#292727"/>
<path d="M317.664 300H293.109L287.034 281.323L244.338 150H268.893L311.601 281.323L317.664 300Z" fill="#292727"/>
<path d="M381.027 150H357.664V300H381.027V150Z" fill="#292727"/>
<path d="M454.353 300H429.798L423.724 281.323L381.027 150H405.582L448.29 281.323L454.353 300Z" fill="#292727"/>
<path d="M527.691 150L484.983 281.323L478.908 300H454.354L460.416 281.323L503.124 150H527.691Z" fill="#292727"/>
<path d="M551.055 150H527.691V300H551.055V150Z" fill="#292727"/>
<path d="M687.742 300H663.187L657.113 281.323L614.416 150H638.971L681.679 281.323L687.742 300Z" fill="#292727"/>
<path d="M614.416 150H591.053V300H614.416V150Z" fill="#292727"/>
<path d="M711.106 150H687.742V300H711.106V150Z" fill="#292727"/>
<path d="M774.469 150H751.105V300H774.469V150Z" fill="#292727"/>
<path d="M865.013 300H835.377L789.176 240.91L774.469 222.105V221.813L789.176 202.996L830.611 150H860.259L804 221.953L865.013 300Z" fill="#292727"/>
</svg>
