<svg width="1554" height="450" viewBox="0 0 1554 450" fill="none" xmlns="http://www.w3.org/2000/svg">
<path d="M232.337 150L189.629 281.323L183.555 300H159L165.063 281.323L207.771 150H232.337Z" fill="white"/>
<path d="M317.664 300H293.109L287.034 281.323L244.338 150H268.893L311.601 281.323L317.664 300Z" fill="white"/>
<path d="M449.949 281.323V300H357.664V150H380.934V281.323H449.949Z" fill="white"/>
<path d="M513.313 150H489.949V300H513.313V150Z" fill="white"/>
<path d="M586.638 300H562.083L556.009 281.323L513.312 150H537.867L580.576 281.323L586.638 300Z" fill="white"/>
<path d="M659.976 150L617.268 281.323L611.194 300H586.639L592.701 281.323L635.41 150H659.976Z" fill="white"/>
<path d="M683.34 150H659.977V300H683.34V150Z" fill="white"/>
<path d="M796.675 150L753.967 281.323L747.893 300H723.338L729.401 281.323L772.109 150H796.675Z" fill="white"/>
<path d="M882.002 300H857.447L851.372 281.323L808.676 150H833.231L875.939 281.323L882.002 300Z" fill="white"/>
<path d="M1018.69 300H994.136L988.062 281.323L945.365 150H969.92L1012.63 281.323L1018.69 300Z" fill="white"/>
<path d="M945.365 150H922.002V300H945.365V150Z" fill="white"/>
<path d="M1042.05 150H1018.69V300H1042.05V150Z" fill="white"/>
<path d="M1155.39 150L1112.68 281.323L1106.61 300H1082.05L1088.12 281.323L1130.83 150H1155.39Z" fill="white"/>
<path d="M1240.72 300H1216.16L1210.09 281.323L1167.39 150H1191.95L1234.66 281.323L1240.72 300Z" fill="white"/>
<path d="M1304.08 150H1280.72V300H1304.08V150Z" fill="white"/>
<path d="M1394.63 300H1364.99L1318.79 240.91L1304.08 222.105V221.813L1318.79 202.996L1360.22 150H1389.87L1333.61 221.953L1394.63 300Z" fill="white"/>
</svg>
